SplineFontDB: 3.0
FontName: HM_FTXkoodak_Shadow
FullName: HM_FTXkoodak_Shadow
FamilyName: HM_FTXkoodak_Shadow
Weight: Shadow
Copyright: Copyright (c) Hossein, 2013. All rights reserved.
Version: 0.1
ItalicAngle: 0
UnderlinePosition: -540
UnderlineWidth: 60
Ascent: 1638
Descent: 410
sfntRevision: 0x00010000
LayerCount: 2
Layer: 0 1 "Back"  1
Layer: 1 1 "Fore"  0
XUID: [1021 102 1371595031 6992056]
FSType: 0
OS2Version: 2
OS2_WeightWidthSlopeOnly: 0
OS2_UseTypoMetrics: 1
CreationTime: 1194658560
ModificationTime: 1360912644
PfmFamily: 17
TTFWeight: 400
TTFWidth: 5
LineGap: 0
VLineGap: 0
Panose: 2 0 5 3 8 0 0 2 0 3
OS2TypoAscent: 2100
OS2TypoAOffset: 0
OS2TypoDescent: -1000
OS2TypoDOffset: 0
OS2TypoLinegap: 0
OS2WinAscent: 2100
OS2WinAOffset: 0
OS2WinDescent: 1000
OS2WinDOffset: 0
HheadAscent: 2100
HheadAOffset: 0
HheadDescent: -1000
HheadDOffset: 0
OS2SubXSize: 1434
OS2SubYSize: 1331
OS2SubXOff: 0
OS2SubYOff: 293
OS2SupXSize: 1434
OS2SupYSize: 1331
OS2SupXOff: 0
OS2SupYOff: 928
OS2StrikeYSize: 102
OS2StrikeYPos: 512
OS2Vendor: 'pars'
OS2CodePages: 20000051.41000000
OS2UnicodeRanges: 00002003.80000000.00000008.00000000
Lookup: 4 0 1 "gsub_ligature_dfl_liga_arab_FAR_Lookup_01"  {"gsub_ligature_dfl_liga_arab_FAR_Lookup_01_Subtable_01"  } ['liga' ('arab' <'FAR ' > ) ]
Lookup: 4 0 1 "gsub_ligature_dfl_liga_arab_FAR_Lookup_02"  {"gsub_ligature_dfl_liga_arab_FAR_Lookup_02_Subtable_01"  } ['liga' ('arab' <'FAR ' > ) ]
Lookup: 3 0 0 "gsub_alternate_dfl_aalt_arab_FAR_Lookup_01"  {"gsub_alternate_dfl_aalt_arab_FAR_Lookup_01_Subtable_01"  } ['aalt' ('arab' <'FAR ' > ) ]
Lookup: 1 1 0 "gsub_single_rtl_fina_arab_FAR_Lookup_01"  {"gsub_single_rtl_fina_arab_FAR_Lookup_01_Subtable_01"  } ['fina' ('arab' <'FAR ' > ) ]
Lookup: 1 1 0 "gsub_single_rtl_init_arab_FAR_Lookup_01"  {"gsub_single_rtl_init_arab_FAR_Lookup_01_Subtable_01"  } ['init' ('arab' <'FAR ' > ) ]

StartChar: .notdef
Encoding: 65536 -1 0
Width: 1122
GlyphClass: 2
Flags: W
LayerCount: 2
Fore
SplineSet
624 299 m 0,0,1
 624 269 624 269 602 246.5 c 128,-1,2
 580 224 580 224 548 224 c 0,3,4
 518 224 518 224 496.5 246.5 c 128,-1,5
 475 269 475 269 475 299 c 0,6,7
 475 331 475 331 496.5 352.5 c 128,-1,8
 518 374 518 374 551 374 c 0,9,10
 581 374 581 374 602.5 352.5 c 128,-1,11
 624 331 624 331 624 299 c 0,0,1
732 780 m 0,12,13
 732 737 732 737 708.5 710 c 128,-1,14
 685 683 685 683 648 683 c 0,15,16
 616 683 616 683 597 701.5 c 128,-1,17
 578 720 578 720 578 749 c 0,18,19
 578 770 578 770 588 785 c 128,-1,20
 598 800 598 800 610.5 810.5 c 128,-1,21
 623 821 623 821 633 829 c 128,-1,22
 643 837 643 837 643 843 c 0,23,24
 643 863 643 863 623.5 875 c 128,-1,25
 604 887 604 887 574 887 c 0,26,27
 536 887 536 887 512 866 c 128,-1,28
 488 845 488 845 488 813 c 0,29,30
 488 795 488 795 498.5 769 c 128,-1,31
 509 743 509 743 521.5 718 c 128,-1,32
 534 693 534 693 545.5 673 c 128,-1,33
 557 653 557 653 559 648 c 0,34,35
 570 619 570 619 576.5 583.5 c 128,-1,36
 583 548 583 548 583 513 c 0,37,38
 583 492 583 492 581.5 470.5 c 128,-1,39
 580 449 580 449 578 424 c 1,40,-1
 539 424 l 1,41,-1
 539 442 l 1,42,-1
 543 472 l 1,43,44
 543 505 543 505 498 544 c 0,45,46
 425 609 425 609 416 620 c 0,47,48
 371 673 371 673 371 740 c 0,49,50
 371 781 371 781 386 815.5 c 128,-1,51
 401 850 401 850 426.5 875.5 c 128,-1,52
 452 901 452 901 486.5 915 c 128,-1,53
 521 929 521 929 560 929 c 0,54,55
 595 929 595 929 626.5 918.5 c 128,-1,56
 658 908 658 908 681.5 888.5 c 128,-1,57
 705 869 705 869 718.5 841.5 c 128,-1,58
 732 814 732 814 732 780 c 0,12,13
132 31 m 1,59,-1
 992 31 l 1,60,-1
 992 1122 l 1,61,-1
 132 1122 l 1,62,-1
 132 31 l 1,59,-1
100 0 m 1,63,-1
 100 1154 l 1,64,-1
 1022 1154 l 1,65,-1
 1022 0 l 1,66,-1
 100 0 l 1,63,-1
EndSplineSet
EndChar

StartChar: exclam
Encoding: 33 33 4
Width: 625
VWidth: 1639
GlyphClass: 2
Flags: W
LayerCount: 2
Fore
SplineSet
206.62109375 1312 m 0,0,1
 323.029296875 1325.37207031 323.029296875 1325.37207031 365.701171875 1251.3203125 c 0,2,3
 367.44921875 1248.07324219 367.44921875 1248.07324219 382.107421875 1197.20019531 c 0,4,5
 383.98046875 1191.19238281 383.98046875 1191.19238281 385.380859375 1187.36035156 c 0,4,5
 388.985351562 1177.98925781 388.985351562 1177.98925781 398.741210938 1161.125 c 0,6,7
 411.170898438 1138.75390625 411.170898438 1138.75390625 414.901367188 1126.6796875 c 0,6,7
 426.044921875 1079.62890625 426.044921875 1079.62890625 413.602539062 950.7421875 c 0,8,9
 412.33984375 937.353515625 412.33984375 937.353515625 411.62109375 928.240234375 c 0,8,9
 391.110351562 611.717773438 391.110351562 611.717773438 388.661132812 549.400390625 c 0,10,11
 386.900390625 503.493164062 386.900390625 503.493164062 380.4609375 416.559570312 c 0,12,13
 375.541015625 342.759765625 375.541015625 342.759765625 375.541015625 342.759765625 c 1,14,15
 360.986328125 288.327148438 360.986328125 288.327148438 319.78125 280.440429688 c 1,16,17
 276.854492188 275.69140625 276.854492188 275.69140625 254.180664062 296.83984375 c 0,18,19
 251.16796875 299.853515625 251.16796875 299.853515625 245.861328125 308.6015625 c 0,20,21
 239.134765625 318.619140625 239.134765625 318.619140625 236.140625 321.440429688 c 1,20,21
 232.086914062 322.56640625 232.086914062 322.56640625 204.981445312 324.719726562 c 1,22,23
 167.125 333.706054688 167.125 333.706054688 152.500976562 377.200195312 c 1,24,25
 147.963867188 397.697265625 147.963867188 397.697265625 144.30078125 462.48046875 c 2,26,27
 134.4609375 610.080078125 l 1,28,-1
 101.661132812 1087.3203125 l 2,29,30
 91.7158203125 1233.18164062 91.7158203125 1233.18164062 141.311523438 1281.80957031 c 0,31,32
 155.141601562 1294.43554688 155.141601562 1294.43554688 170.541015625 1302.16015625 c 0,31,32
 188.098632812 1309.68457031 188.098632812 1309.68457031 206.62109375 1312 c 0,0,1
242.701171875 1264.44042969 m 1,33,34
 190.004882812 1261.42871094 190.004882812 1261.42871094 160.141601562 1194.10742188 c 0,35,36
 146.266601562 1161.14355469 146.266601562 1161.14355469 147.581054688 1133.24023438 c 0,35,36
 152.3515625 1064.65820312 152.3515625 1064.65820312 160.159179688 927.494140625 c 0,37,38
 173.821289062 687.458007812 173.821289062 687.458007812 185.30078125 567.440429688 c 0,37,38
 186.875 551.704101562 186.875 551.704101562 187.678710938 517.963867188 c 0,39,40
 189.971679688 444.208984375 189.971679688 444.208984375 201.701171875 413.280273438 c 0,39,40
 214.822265625 377.197265625 214.822265625 377.197265625 240.891601562 372.616210938 c 0,41,42
 244.270507812 372.022460938 244.270507812 372.022460938 247.62109375 372.280273438 c 0,41,42
 275.702148438 374.440429688 275.702148438 374.440429688 288.981445312 412.455078125 c 0,43,44
 289.88671875 415.328125 289.88671875 415.328125 290.260742188 416.559570312 c 0,43,44
 299.682617188 443.883789062 299.682617188 443.883789062 303.263671875 541.532226562 c 0,45,46
 303.9609375 557.88671875 303.9609375 557.88671875 305.020507812 569.080078125 c 0,45,46
 308.786132812 607.670898438 308.786132812 607.670898438 312.00390625 686.162109375 c 0,47,48
 314.4765625 745.279296875 314.4765625 745.279296875 316.500976562 774.080078125 c 0,47,48
 332.465820312 1007.49316406 332.465820312 1007.49316406 339.4609375 1134.87988281 c 0,49,50
 342.979492188 1187.66210938 342.979492188 1187.66210938 300.859375 1234.76953125 c 0,51,52
 272.555664062 1264.33398438 272.555664062 1264.33398438 242.701171875 1264.44042969 c 1,33,34
204.981445312 264.040039062 m 0,51,52
 326.940429688 278.719726562 326.940429688 278.719726562 373.901367188 206.639648438 c 0,53,54
 376.813476562 201.23046875 376.813476562 201.23046875 388.018554688 154.002929688 c 0,55,56
 390.103515625 146.134765625 390.103515625 146.134765625 391.94140625 141.040039062 c 0,55,56
 395.430664062 131.966796875 395.430664062 131.966796875 405.349609375 116.24609375 c 0,57,58
 418.432617188 94.31640625 418.432617188 94.31640625 421.4609375 82 c 0,57,58
 437.026367188 14.5498046875 437.026367188 14.5498046875 386.916015625 -34.9541015625 c 0,59,60
 360.567382812 -59.4296875 360.567382812 -59.4296875 327.981445312 -65.599609375 c 0,59,60
 277.59765625 -72.8349609375 277.59765625 -72.8349609375 241.060546875 -50.83984375 c 0,61,62
 235.321289062 -47.5595703125 235.321289062 -47.5595703125 224.661132812 -37.7197265625 c 0,63,64
 213.356445312 -27.83203125 213.356445312 -27.83203125 208.260742188 -24.599609375 c 0,63,64
 203.1875 -22.0634765625 203.1875 -22.0634765625 191.098632812 -19.564453125 c 0,65,66
 179.381835938 -17.1435546875 179.381835938 -17.1435546875 173.821289062 -14.759765625 c 0,65,66
 132.91796875 3.7578125 132.91796875 3.7578125 109.861328125 50.83984375 c 1,67,68
 104.928710938 66.974609375 104.928710938 66.974609375 101.661132812 111.51953125 c 1,69,70
 98.869140625 231.575195312 98.869140625 231.575195312 183.579101562 259.1015625 c 0,71,72
 194.677734375 262.407226562 194.677734375 262.407226562 204.981445312 264.040039062 c 0,51,52
242.701171875 216.48046875 m 0,71,72
 197.330078125 211.03515625 197.330078125 211.03515625 166.0234375 164.092773438 c 0,73,74
 151.45703125 140.62109375 151.45703125 140.62109375 150.861328125 119.719726562 c 0,73,74
 152.529296875 76.3369140625 152.529296875 76.3369140625 198.049804688 42.0732421875 c 0,75,76
 225.513671875 22.783203125 225.513671875 22.783203125 249.260742188 24.599609375 c 0,75,76
 293.518554688 28.140625 293.518554688 28.140625 326.40625 74.5009765625 c 0,77,78
 343.580078125 98.7099609375 343.580078125 98.7099609375 342.741210938 121.360351562 c 0,77,78
 341.092773438 162.564453125 341.092773438 162.564453125 295.740234375 197.579101562 c 0,79,80
 267.665039062 219.25390625 267.665039062 219.25390625 242.701171875 216.48046875 c 0,71,72
EndSplineSet
EndChar

StartChar: percent
Encoding: 37 37 8
Width: 1193
VWidth: 1639
GlyphClass: 2
Flags: W
LayerCount: 2
Fore
SplineSet
333.280273438 -154.16015625 m 1,0,1
 285.76171875 -153.370117188 285.76171875 -153.370117188 274.240234375 -147.599609375 c 0,2,3
 242.282226562 -127.553710938 242.282226562 -127.553710938 251.280273438 -41 c 0,4,5
 253.317382812 -26.1455078125 253.317382812 -26.1455078125 279.16015625 45.919921875 c 0,6,7
 326.563476562 176.146484375 326.563476562 176.146484375 339.83984375 209.919921875 c 0,8,9
 401.552734375 372.712890625 401.552734375 372.712890625 519.379882812 699.473632812 c 0,10,11
 583.30859375 876.736328125 583.30859375 876.736328125 615.360351562 964.3203125 c 2,10,-1
 690.799804688 1170.95996094 l 2,11,12
 730.553710938 1279.82421875 730.553710938 1279.82421875 731.799804688 1282.48046875 c 0,13,14
 754.465820312 1326.19335938 754.465820312 1326.19335938 812.985351562 1328.16113281 c 0,15,16
 820.084960938 1328.40039062 820.084960938 1328.40039062 831.83984375 1328.40039062 c 0,15,16
 873.046875 1327.10253906 873.046875 1327.10253906 885.959960938 1315.28027344 c 1,17,18
 901.791015625 1294.40625 901.791015625 1294.40625 900.719726562 1236.55957031 c 1,19,20
 943.307617188 1229.15332031 943.307617188 1229.15332031 935.625976562 1162.30078125 c 0,21,22
 934.868164062 1155.70703125 934.868164062 1155.70703125 933.51953125 1149.63964844 c 0,21,22
 925.01953125 1116.70703125 925.01953125 1116.70703125 897.440429688 1051.24023438 c 0,23,24
 887.599609375 1025 887.599609375 1025 868.740234375 972.51953125 c 0,25,26
 849.658203125 919.493164062 849.658203125 919.493164062 840.040039062 893.799804688 c 0,25,26
 678.767578125 470.696289062 678.767578125 470.696289062 505.48046875 0 c 0,27,28
 480.913085938 -62.9609375 480.913085938 -62.9609375 462.83984375 -114.799804688 c 0,29,30
 443.690429688 -166.055664062 443.690429688 -166.055664062 430.040039062 -180.400390625 c 0,31,32
 400.817382812 -209.622070312 400.817382812 -209.622070312 361.70703125 -192.771484375 c 1,33,34
 337.107421875 -179.874023438 337.107421875 -179.874023438 333.280273438 -154.16015625 c 1,0,1
229.959960938 1289.04003906 m 0,33,34
 353.951171875 1303.05371094 353.951171875 1303.05371094 398.879882812 1226.71972656 c 0,35,36
 401.940429688 1221.47460938 401.940429688 1221.47460938 411.305664062 1179.00195312 c 0,37,38
 413.342773438 1171.08496094 413.342773438 1171.08496094 415.280273438 1166.04003906 c 0,37,38
 418.202148438 1157.27246094 418.202148438 1157.27246094 428.708007812 1142.19238281 c 0,39,40
 441.829101562 1122.06835938 441.829101562 1122.06835938 444.799804688 1110.28027344 c 0,39,40
 460.810546875 1033.78417969 460.810546875 1033.78417969 403.931640625 985.318359375 c 0,41,42
 376.778320312 963.504882812 376.778320312 963.504882812 343.120117188 957.759765625 c 1,41,42
 299.189453125 953.641601562 299.189453125 953.641601562 261.120117188 975.799804688 c 0,43,44
 256.200195312 979.080078125 256.200195312 979.080078125 247.1796875 987.280273438 c 0,45,46
 237.500976562 995.706054688 237.500976562 995.706054688 233.240234375 998.759765625 c 0,45,46
 228.3203125 1001.21972656 228.3203125 1001.21972656 216.83984375 1003.6796875 c 0,47,48
 205.0078125 1006.59667969 205.0078125 1006.59667969 200.440429688 1008.59960938 c 0,47,48
 154.7109375 1028.15332031 154.7109375 1028.15332031 133.200195312 1074.20019531 c 1,49,50
 125.009765625 1097.17480469 125.009765625 1097.17480469 125 1141.44042969 c 0,51,52
 125.513671875 1187.89941406 125.513671875 1187.89941406 129.919921875 1202.12011719 c 0,53,54
 148.790039062 1268.16699219 148.790039062 1268.16699219 218.440429688 1286.53417969 c 0,55,56
 224.98046875 1288.11816406 224.98046875 1288.11816406 229.959960938 1289.04003906 c 0,33,34
822 1277.55957031 m 0,55,56
 791.270507812 1275.73144531 791.270507812 1275.73144531 772.799804688 1223.44042969 c 0,57,58
 764.336914062 1202.140625 764.336914062 1202.140625 699 1023.36035156 c 0,59,60
 649.799804688 884.780273438 649.799804688 884.780273438 547.299804688 608.440429688 c 0,61,62
 444.622070312 331.548828125 444.622070312 331.548828125 395.599609375 193.51953125 c 0,61,62
 368.760742188 114.819335938 368.760742188 114.819335938 313.599609375 -34.4404296875 c 0,63,64
 287.967773438 -102.413085938 287.967773438 -102.413085938 328.360351562 -104.959960938 c 1,65,66
 353.857421875 -103.36328125 353.857421875 -103.36328125 374.280273438 -47.5595703125 c 0,67,68
 386.580078125 -14.759765625 386.580078125 -14.759765625 411.1796875 51.66015625 c 0,69,70
 435.983398438 118.609375 435.983398438 118.609375 448.080078125 150.879882812 c 0,69,70
 490.759765625 266.047851562 490.759765625 266.047851562 577.220703125 495.775390625 c 0,71,72
 700.19140625 822.559570312 700.19140625 822.559570312 759.6796875 985.639648438 c 0,71,72
 773.620117188 1023.36035156 773.620117188 1023.36035156 802.3203125 1099.62011719 c 0,73,74
 831.01953125 1175.87988281 831.01953125 1175.87988281 844.959960938 1213.59960938 c 0,73,74
 859.608398438 1248.75683594 859.608398438 1248.75683594 842.875 1269.25292969 c 1,75,76
 833.955078125 1277.40234375 833.955078125 1277.40234375 822 1277.55957031 c 0,55,56
267.6796875 1241.48046875 m 1,75,76
 221.543945312 1237.93066406 221.543945312 1237.93066406 189.42578125 1189.46582031 c 0,77,78
 174.794921875 1165.77050781 174.794921875 1165.77050781 174.200195312 1144.71972656 c 0,77,78
 174.200195312 1101.359375 174.200195312 1101.359375 221.873046875 1065.69042969 c 0,79,80
 248.540039062 1047.03027344 248.540039062 1047.03027344 270.959960938 1047.95996094 c 0,79,80
 317.095703125 1051.50878906 317.095703125 1051.50878906 349.213867188 1099.97363281 c 0,81,82
 363.845703125 1123.66992188 363.845703125 1123.66992188 364.440429688 1144.71972656 c 0,81,82
 364.440429688 1187.93359375 364.440429688 1187.93359375 317.48828125 1223.02832031 c 0,83,84
 290.951171875 1241.60644531 290.951171875 1241.60644531 267.6796875 1241.48046875 c 1,75,76
848.240234375 182.040039062 m 0,83,84
 973.919921875 197.235351562 973.919921875 197.235351562 1017.16015625 124.639648438 c 0,85,86
 1027.94921875 106.291015625 1027.94921875 106.291015625 1033.55957031 82 c 1,87,88
 1034.19042969 61.74609375 1034.19042969 61.74609375 1035.20019531 59.0400390625 c 0,89,90
 1038.76074219 51.9189453125 1038.76074219 51.9189453125 1047.11425781 39.4775390625 c 0,91,92
 1061.3828125 16.9306640625 1061.3828125 16.9306640625 1064.71972656 3.2802734375 c 0,91,92
 1082.37402344 -69.099609375 1082.37402344 -69.099609375 1028.203125 -118.55859375 c 0,93,94
 1002.08203125 -141.026367188 1002.08203125 -141.026367188 969.599609375 -147.599609375 c 1,93,94
 918.498046875 -154.44921875 918.498046875 -154.44921875 881.040039062 -129.559570312 c 0,95,96
 876.671875 -126.647460938 876.671875 -126.647460938 868.6171875 -118.918945312 c 0,97,98
 857.9609375 -109.41015625 857.9609375 -109.41015625 853.16015625 -106.599609375 c 0,97,98
 847.375 -103.708007812 847.375 -103.708007812 833.737304688 -101.358398438 c 0,99,100
 824.032226562 -99.4736328125 824.032226562 -99.4736328125 820.360351562 -98.400390625 c 0,99,100
 773.17578125 -75.662109375 773.17578125 -75.662109375 754.759765625 -31.16015625 c 0,101,102
 746.569335938 -8.1845703125 746.569335938 -8.1845703125 746.559570312 36.080078125 c 0,103,104
 746.965820312 82.0302734375 746.965820312 82.0302734375 749.83984375 93.48046875 c 0,105,106
 768.73828125 159.625 768.73828125 159.625 834.282226562 178.807617188 c 0,107,108
 842.008789062 180.879882812 842.008789062 180.879882812 848.240234375 182.040039062 c 0,83,84
887.599609375 134.48046875 m 0,107,108
 838.66796875 128.833984375 838.66796875 128.833984375 807.771484375 79.78515625 c 0,109,110
 795.342773438 58.5166015625 795.342773438 58.5166015625 794.120117188 39.3603515625 c 0,109,110
 794.120117188 -6.033203125 794.120117188 -6.033203125 846.216796875 -40.6455078125 c 0,111,112
 852.986328125 -44.8955078125 852.986328125 -44.8955078125 858.080078125 -47.5595703125 c 0,111,112
 881.448242188 -58.2392578125 881.448242188 -58.2392578125 892.51953125 -57.400390625 c 0,113,114
 938.346679688 -53.875 938.346679688 -53.875 970.28515625 -7.306640625 c 0,115,116
 985.389648438 16.3505859375 985.389648438 16.3505859375 986 37.7197265625 c 0,115,116
 986 83.11328125 986 83.11328125 933.903320312 117.725585938 c 0,117,118
 927.133789062 121.975585938 927.133789062 121.975585938 922.040039062 124.639648438 c 0,117,118
 899.080078125 136.120117188 899.080078125 136.120117188 887.599609375 134.48046875 c 0,107,108
EndSplineSet
EndChar

StartChar: parenleft
Encoding: 40 40 11
Width: 742
VWidth: 1639
GlyphClass: 2
Flags: W
LayerCount: 2
Fore
SplineSet
605.381835938 1234.91992188 m 1,0,1
 652.041015625 1220.07421875 652.041015625 1220.07421875 638.576171875 1159.10253906 c 0,2,3
 637.416015625 1154.36621094 637.416015625 1154.36621094 636.541015625 1151.28027344 c 0,2,3
 632.163085938 1140.04199219 632.163085938 1140.04199219 602.1015625 1090.59960938 c 0,4,5
 589.801757812 1070.09960938 589.801757812 1070.09960938 564.381835938 1029.09960938 c 0,6,7
 538.654296875 987.553710938 538.654296875 987.553710938 526.661132812 967.599609375 c 0,6,7
 358.927734375 685.6640625 358.927734375 685.6640625 371.587890625 371.50390625 c 0,8,9
 378.28515625 218.927734375 378.28515625 218.927734375 429.901367188 85.2802734375 c 0,8,9
 453.673828125 23.2080078125 453.673828125 23.2080078125 546.70703125 -126.500976562 c 0,10,11
 548.690429688 -129.69921875 548.690429688 -129.69921875 549.62109375 -131.200195312 c 0,10,11
 594.155273438 -202.950195312 594.155273438 -202.950195312 598.821289062 -213.200195312 c 0,12,13
 602.373046875 -221.190429688 602.373046875 -221.190429688 603.686523438 -236.91015625 c 0,14,15
 605.221679688 -250.290039062 605.221679688 -250.290039062 607.021484375 -255.83984375 c 0,14,15
 608.201171875 -258.112304688 608.201171875 -258.112304688 628.341796875 -291.919921875 c 1,16,17
 655.279296875 -345.795898438 655.279296875 -345.795898438 628.444335938 -381.37109375 c 0,18,19
 626.071289062 -384.220703125 626.071289062 -384.220703125 625.061523438 -385.400390625 c 0,18,19
 591.569335938 -418.892578125 591.569335938 -418.892578125 535.33984375 -386.545898438 c 0,20,21
 531.665039062 -384.432617188 531.665039062 -384.432617188 528.301757812 -382.120117188 c 0,20,21
 524.513671875 -379.594726562 524.513671875 -379.594726562 516.842773438 -372.020507812 c 0,22,23
 503.521484375 -360.002929688 503.521484375 -360.002929688 497.141601562 -357.51953125 c 0,22,23
 492.640625 -356.234375 492.640625 -356.234375 484.197265625 -354.680664062 c 0,24,25
 470.657226562 -351.799804688 470.657226562 -351.799804688 464.341796875 -349.3203125 c 0,24,25
 457.78125 -346.040039062 457.78125 -346.040039062 452.041015625 -341.940429688 c 0,26,27
 446.301757812 -337.83984375 446.301757812 -337.83984375 438.921875 -332.919921875 c 0,28,29
 431.541015625 -328 431.541015625 -328 427.44140625 -323.900390625 c 0,30,31
 423.341796875 -319.799804688 423.341796875 -319.799804688 415.961914062 -312.419921875 c 0,32,33
 408.581054688 -305.040039062 408.581054688 -305.040039062 405.301757812 -301.759765625 c 0,34,35
 402.021484375 -298.48046875 402.021484375 -298.48046875 393.821289062 -289.459960938 c 0,36,37
 385.62109375 -280.440429688 385.62109375 -280.440429688 383.981445312 -278.799804688 c 0,38,39
 382.341796875 -277.16015625 382.341796875 -277.16015625 373.321289062 -266.5 c 2,40,-1
 364.301757812 -255.83984375 l 2,26,27
 254.6796875 -128.581054688 254.6796875 -128.581054688 187.181640625 39.3603515625 c 0,28,29
 78.7451171875 311.265625 78.7451171875 311.265625 105.181640625 592.040039062 c 1,30,31
 121.616210938 745.1640625 121.616210938 745.1640625 185.541015625 913.48046875 c 0,32,33
 276.09765625 1151.57714844 276.09765625 1151.57714844 424.981445312 1292.3203125 c 1,34,35
 448.676757812 1312.02050781 448.676757812 1312.02050781 461.061523438 1318.55957031 c 0,36,37
 480.930664062 1327.046875 480.930664062 1327.046875 538.141601562 1326.75976562 c 0,38,39
 573.899414062 1325.71191406 573.899414062 1325.71191406 590.62109375 1313.63964844 c 1,40,41
 606.793945312 1297.56835938 606.793945312 1297.56835938 607.021484375 1261.16015625 c 0,42,43
 606.462890625 1238.29199219 606.462890625 1238.29199219 605.381835938 1234.91992188 c 1,0,1
520.1015625 1277.55957031 m 0,44,45
 489.043945312 1271.68554688 489.043945312 1271.68554688 438.1015625 1211.95996094 c 0,46,47
 352.352539062 1114.80664062 352.352539062 1114.80664062 301.981445312 1023.36035156 c 0,48,49
 219.625976562 875.958984375 219.625976562 875.958984375 174.061523438 683.879882812 c 0,50,51
 145.955078125 561.208007812 145.955078125 561.208007812 147.821289062 465.759765625 c 0,52,53
 152.795898438 274.060546875 152.795898438 274.060546875 249.501953125 45.919921875 c 0,54,55
 324.196289062 -126.536132812 324.196289062 -126.536132812 438.1015625 -241.080078125 c 0,56,57
 483.115234375 -286.09375 483.115234375 -286.09375 492.861328125 -292.384765625 c 0,58,59
 497.475585938 -295.196289062 497.475585938 -295.196289062 500.421875 -296.83984375 c 0,58,59
 521.583984375 -308.033203125 521.583984375 -308.033203125 528.301757812 -306.6796875 c 0,60,61
 529.94140625 -306.6796875 529.94140625 -306.6796875 532.401367188 -305.860351562 c 0,62,63
 534.861328125 -305.040039062 534.861328125 -305.040039062 538.961914062 -301.759765625 c 2,64,-1
 543.061523438 -298.48046875 l 1,62,63
 566.5546875 -276.369140625 566.5546875 -276.369140625 537.3359375 -232.122070312 c 0,64,65
 530.122070312 -221.07421875 530.122070312 -221.07421875 528.301757812 -218.120117188 c 0,64,65
 420.806640625 -37.8056640625 420.806640625 -37.8056640625 404.544921875 -5.169921875 c 0,66,67
 392.017578125 20.19921875 392.017578125 20.19921875 382.341796875 42.6396484375 c 0,66,67
 233.6953125 389.481445312 233.6953125 389.481445312 325.3671875 758.482421875 c 0,68,69
 366.837890625 923.240234375 366.837890625 923.240234375 452.861328125 1067.63964844 c 0,68,69
 463.013671875 1083.8828125 463.013671875 1083.8828125 484.993164062 1116.83984375 c 0,70,71
 534.845703125 1192.078125 534.845703125 1192.078125 552.901367188 1230 c 0,70,71
 563.1171875 1254.51757812 563.1171875 1254.51757812 540.145507812 1272.03515625 c 0,72,73
 529.966796875 1278.19726562 529.966796875 1278.19726562 520.1015625 1277.55957031 c 0,44,45
EndSplineSet
EndChar

StartChar: parenright
Encoding: 41 41 12
Width: 839
VWidth: 1639
GlyphClass: 2
Flags: W
LayerCount: 2
Fore
SplineSet
147.611328125 1326.75976562 m 0,0,1
 208.749023438 1333.6328125 208.749023438 1333.6328125 239.451171875 1320.20019531 c 0,2,3
 273.268554688 1305.37109375 273.268554688 1305.37109375 328.01171875 1243.12011719 c 0,4,5
 425.463867188 1135.25 425.463867188 1135.25 490.37109375 990.559570312 c 0,6,7
 614.877929688 706.819335938 614.877929688 706.819335938 634.69140625 508.400390625 c 0,8,9
 663.567382812 195.57421875 663.567382812 195.57421875 511.33203125 -96.9814453125 c 0,10,11
 506.666015625 -105.947265625 506.666015625 -105.947265625 501.8515625 -114.799804688 c 0,10,11
 429.740234375 -247.12109375 429.740234375 -247.12109375 337.8515625 -339.48046875 c 0,12,13
 288.033203125 -389.298828125 288.033203125 -389.298828125 263.576171875 -397.004882812 c 0,14,15
 253.926757812 -399.607421875 253.926757812 -399.607421875 246.01171875 -400.16015625 c 0,14,15
 206.438476562 -398.665039062 206.438476562 -398.665039062 193.53125 -382.120117188 c 0,16,17
 191.51171875 -379.426757812 191.51171875 -379.426757812 188.563476562 -372.34765625 c 0,18,19
 183.448242188 -362.1640625 183.448242188 -362.1640625 180.411132812 -359.16015625 c 0,18,19
 175.79296875 -356.081054688 175.79296875 -356.081054688 142.533203125 -354.0234375 c 0,20,21
 130.95703125 -352.57421875 130.95703125 -352.57421875 124.651367188 -349.3203125 c 1,20,21
 98.8740234375 -326.313476562 98.8740234375 -326.313476562 100.051757812 -262.400390625 c 0,22,23
 100.498046875 -238.893554688 100.498046875 -238.893554688 103.331054688 -227.959960938 c 0,24,25
 109.420898438 -204.616210938 109.420898438 -204.616210938 155.263671875 -135.168945312 c 0,26,27
 160.6875 -126.81640625 160.6875 -126.81640625 164.01171875 -121.360351562 c 0,26,27
 257.776367188 37.796875 257.776367188 37.796875 283.731445312 98.400390625 c 0,28,29
 359.905273438 281.155273438 359.905273438 281.155273438 367.37109375 459.200195312 c 0,30,31
 378.188476562 739.022460938 378.188476562 739.022460938 208.291992188 1018.44042969 c 1,32,33
 175.97265625 1074.86523438 175.97265625 1074.86523438 145.971679688 1123.40039062 c 0,34,35
 102.147460938 1192.45605469 102.147460938 1192.45605469 100.051757812 1236.55957031 c 1,36,37
 100.051757812 1303.16308594 100.051757812 1303.16308594 126.100585938 1319.09863281 c 0,38,39
 136.341796875 1324.53125 136.341796875 1324.53125 147.611328125 1326.75976562 c 0,0,1
180.411132812 1277.55957031 m 1,38,39
 170.498046875 1273.53320312 170.498046875 1273.53320312 167.291992188 1271 c 0,40,41
 139.586914062 1253.50195312 139.586914062 1253.50195312 166.45703125 1208.55664062 c 0,42,43
 171.01171875 1200.93945312 171.01171875 1200.93945312 172.211914062 1198.83984375 c 0,42,43
 279.948242188 1027.94824219 279.948242188 1027.94824219 306.0234375 971.048828125 c 0,44,45
 307.553710938 967.6796875 307.553710938 967.6796875 308.331054688 965.959960938 c 0,44,45
 463.549804688 628.529296875 463.549804688 628.529296875 393.883789062 267.7890625 c 0,46,47
 358.735351562 88.8154296875 358.735351562 88.8154296875 270.611328125 -65.599609375 c 0,46,47
 253.98046875 -95.08203125 253.98046875 -95.08203125 217.982421875 -151.874023438 c 0,48,49
 175.790039062 -218.689453125 175.790039062 -218.689453125 157.451171875 -252.559570312 c 0,48,49
 142.247070312 -278.625 142.247070312 -278.625 160.84765625 -298.561523438 c 0,50,51
 169.811523438 -306 169.811523438 -306 180.411132812 -306.6796875 c 0,50,51
 203.270507812 -308.024414062 203.270507812 -308.024414062 249.537109375 -259.036132812 c 0,52,53
 252.838867188 -255.609375 252.838867188 -255.609375 254.211914062 -254.200195312 c 0,52,53
 344.22265625 -163.411132812 344.22265625 -163.411132812 410.01171875 -47.5595703125 c 0,54,55
 555.014648438 204.287109375 555.014648438 204.287109375 558.271484375 464.7421875 c 0,56,57
 558.46875 487.651367188 558.46875 487.651367188 557.611328125 508.400390625 c 0,56,57
 547.143554688 738.4453125 547.143554688 738.4453125 434.611328125 964.3203125 c 0,58,59
 354.708984375 1125.6328125 354.708984375 1125.6328125 264.051757812 1216.87988281 c 0,60,61
 220.916992188 1259.203125 220.916992188 1259.203125 206.651367188 1267.71972656 c 0,62,63
 189.9140625 1276.88574219 189.9140625 1276.88574219 180.411132812 1277.55957031 c 1,38,39
EndSplineSet
EndChar

StartChar: plus
Encoding: 43 43 14
Width: 956
VWidth: 1639
GlyphClass: 2
Flags: W
LayerCount: 2
Fore
SplineSet
370.442382812 483.799804688 m 1,0,-1
 370.442382812 721.599609375 l 2,1,2
 370.442382812 791.326171875 370.442382812 791.326171875 375.634765625 806.201171875 c 0,3,4
 380.56640625 818.418945312 380.56640625 818.418945312 386.841796875 826.559570312 c 0,3,4
 405.067382812 847.854492188 405.067382812 847.854492188 452.442382812 847.879882812 c 0,5,6
 512.901367188 847.879882812 512.901367188 847.879882812 529.2734375 835.05078125 c 0,7,8
 539.01171875 826.063476562 539.01171875 826.063476562 544.282226562 815.080078125 c 0,7,8
 547.760742188 808.122070312 547.760742188 808.122070312 550.684570312 769.317382812 c 0,9,10
 551.482421875 762.2421875 551.482421875 762.2421875 552.482421875 757.6796875 c 0,9,10
 555.375 752.741210938 555.375 752.741210938 570.522460938 739.639648438 c 1,11,12
 579.197265625 729.670898438 579.197265625 729.670898438 585.282226562 708.48046875 c 0,13,14
 587.258789062 696.935546875 587.258789062 696.935546875 586.921875 629.759765625 c 2,15,-1
 586.921875 483.799804688 l 1,16,-1
 768.961914062 483.799804688 l 2,17,18
 848.762695312 483.799804688 848.762695312 483.799804688 859.672851562 481.374023438 c 0,19,20
 865.268554688 479.9921875 865.268554688 479.9921875 869.001953125 478.879882812 c 0,19,20
 916.688476562 464.971679688 916.688476562 464.971679688 914.037109375 404.901367188 c 0,21,22
 913.322265625 395.049804688 913.322265625 395.049804688 911.642578125 387.040039062 c 1,21,22
 955.850585938 373.145507812 955.850585938 373.145507812 946.90234375 321.52734375 c 1,23,24
 937.561523438 278.634765625 937.561523438 278.634765625 903.442382812 265.6796875 c 1,23,24
 878.967773438 259.787109375 878.967773438 259.787109375 795.202148438 260.759765625 c 2,25,-1
 586.921875 260.759765625 l 1,26,-1
 586.921875 21.3203125 l 2,27,28
 586.921875 -44.7138671875 586.921875 -44.7138671875 581.21484375 -59.7119140625 c 0,29,30
 575.827148438 -71.9814453125 575.827148438 -71.9814453125 568.881835938 -80.3603515625 c 0,29,30
 543.439453125 -109.717773438 543.439453125 -109.717773438 496.876953125 -95.8466796875 c 0,31,32
 483.1171875 -91.748046875 483.1171875 -91.748046875 473.76171875 -83.6396484375 c 0,31,32
 469.850585938 -80.5107421875 469.850585938 -80.5107421875 464.318359375 -70.61328125 c 0,33,34
 457.564453125 -60.2041015625 457.564453125 -60.2041015625 454.08203125 -57.400390625 c 0,33,34
 450.801757812 -55.759765625 450.801757812 -55.759765625 446.702148438 -55.759765625 c 0,35,36
 442.602539062 -55.759765625 442.602539062 -55.759765625 436.041992188 -55.759765625 c 2,37,-1
 429.482421875 -55.759765625 l 1,35,36
 403.423828125 -51.6728515625 403.423828125 -51.6728515625 388.482421875 -37.7197265625 c 1,37,38
 370.015625 -13.095703125 370.015625 -13.095703125 370.442382812 55.759765625 c 2,39,-1
 370.442382812 260.759765625 l 1,40,41
 230.216796875 260.85546875 230.216796875 260.85546875 203.162109375 262.400390625 c 0,42,43
 194.541992188 263.015625 194.541992188 263.015625 177.389648438 262.861328125 c 0,44,45
 148.759765625 262.966796875 148.759765625 262.966796875 135.921875 265.6796875 c 0,44,45
 116.2421875 270.599609375 116.2421875 270.599609375 101.482421875 285.360351562 c 1,46,47
 86.8974609375 306.333007812 86.8974609375 306.333007812 90.001953125 303.400390625 c 1,48,49
 83.74609375 306.974609375 83.74609375 306.974609375 64.45703125 308.27734375 c 0,50,51
 48.23828125 309.752929688 48.23828125 309.752929688 42.4423828125 311.599609375 c 1,50,51
 7.7734375 339.864257812 7.7734375 339.864257812 8.001953125 403.440429688 c 0,52,53
 9.6005859375 452.533203125 9.6005859375 452.533203125 29.322265625 467.400390625 c 1,54,55
 61.248046875 485.720703125 61.248046875 485.720703125 134.282226562 483.799804688 c 1,56,-1
 370.442382812 483.799804688 l 1,0,-1
506.5625 436.240234375 m 1,57,-1
 506.5625 721.599609375 l 2,58,59
 506.5625 790.1171875 506.5625 790.1171875 469.64453125 797.97265625 c 0,60,61
 464.41796875 798.677734375 464.41796875 798.677734375 460.642578125 798.6796875 c 0,60,61
 418.140625 793.159179688 418.140625 793.159179688 416.362304688 719.959960938 c 1,62,-1
 416.362304688 437.879882812 l 1,63,-1
 137.5625 437.879882812 l 1,64,65
 63.224609375 435.708007812 63.224609375 435.708007812 57.2021484375 395.240234375 c 1,66,67
 58.767578125 352.560546875 58.767578125 352.560546875 135.921875 350.959960938 c 0,68,69
 182.662109375 350.959960938 182.662109375 350.959960938 276.142578125 350.139648438 c 0,70,71
 370.168945312 349.329101562 370.168945312 349.329101562 416.362304688 349.3203125 c 1,70,-1
 416.362304688 70.51953125 l 2,71,72
 416.362304688 6.1435546875 416.362304688 6.1435546875 451.638671875 -4.974609375 c 0,73,74
 457.629882812 -6.349609375 457.629882812 -6.349609375 462.282226562 -6.5595703125 c 0,73,74
 502.963867188 0.6279296875 502.963867188 0.6279296875 506.5625 70.51953125 c 1,75,-1
 506.5625 349.3203125 l 1,76,-1
 785.362304688 349.3203125 l 2,77,78
 852.19921875 349.3203125 852.19921875 349.3203125 861.383789062 384.981445312 c 0,79,80
 862.442382812 389.090820312 862.442382812 389.090820312 862.442382812 393.599609375 c 0,79,80
 857.059570312 434.21875 857.059570312 434.21875 785.362304688 437.879882812 c 1,81,82
 738.622070312 437.879882812 738.622070312 437.879882812 645.961914062 437.059570312 c 0,83,84
 553.301757812 436.240234375 553.301757812 436.240234375 506.5625 436.240234375 c 1,57,-1
EndSplineSet
EndChar

StartChar: hyphen
Encoding: 45 45 16
AltUni2: 002212.ffffffff.0 0000ad.ffffffff.0
Width: 1184
VWidth: 1639
GlyphClass: 2
Flags: W
LayerCount: 2
Fore
SplineSet
1027.765625 387.040039062 m 1,0,1
 1064.02441406 375.502929688 1064.02441406 375.502929688 1063.96972656 326.598632812 c 0,2,3
 1063.06445312 304.90234375 1063.06445312 304.90234375 1054.00488281 290.280273438 c 0,2,3
 1034.83886719 264.249023438 1034.83886719 264.249023438 994.96484375 260.759765625 c 0,4,5
 990.293945312 260.46875 990.293945312 260.46875 888.365234375 260.759765625 c 2,6,-1
 680.084960938 260.759765625 l 2,7,8
 426.689453125 260.8125 426.689453125 260.8125 376.685546875 262.400390625 c 0,9,10
 358.645507812 263.219726562 358.645507812 263.219726562 322.565429688 262.400390625 c 0,11,12
 285.938476562 261.67578125 285.938476562 261.67578125 268.4453125 262.400390625 c 0,11,12
 238.2734375 266.415039062 238.2734375 266.415039062 219.245117188 282.080078125 c 0,13,14
 217.064453125 284.98828125 217.064453125 284.98828125 213.3828125 292.024414062 c 0,15,16
 208.353515625 300.705078125 208.353515625 300.705078125 206.125 303.400390625 c 1,15,16
 200.279296875 305.526367188 200.279296875 305.526367188 184.805664062 305.040039062 c 1,17,18
 159.428710938 308.862304688 159.428710938 308.862304688 143.805664062 321.440429688 c 0,19,20
 111.12109375 348.356445312 111.12109375 348.356445312 123.3125 423.34375 c 0,21,22
 125.2265625 433.846679688 125.2265625 433.846679688 127.405273438 441.16015625 c 0,21,22
 133.064453125 456.90625 133.064453125 456.90625 145.4453125 467.400390625 c 0,23,24
 168.387695312 483.783203125 168.387695312 483.783203125 219.245117188 483.799804688 c 2,25,-1
 348.805664062 483.799804688 l 1,26,-1
 880.165039062 483.799804688 l 2,27,28
 967.805664062 483.799804688 967.805664062 483.799804688 988.694335938 476.8203125 c 0,29,30
 1032.59667969 459.262695312 1032.59667969 459.262695312 1029.40527344 413.280273438 c 0,29,30
 1028.58496094 409.1796875 1028.58496094 409.1796875 1028.58496094 400.16015625 c 0,31,32
 1028.31445312 390.711914062 1028.31445312 390.711914062 1027.765625 387.040039062 c 1,0,1
237.28515625 437.879882812 m 0,31,32
 191.556640625 433.06640625 191.556640625 433.06640625 177.59765625 406.712890625 c 1,33,34
 171.016601562 389.453125 171.016601562 389.453125 184.805664062 372.280273438 c 0,33,34
 189.8359375 366.263671875 189.8359375 366.263671875 197.924804688 360.799804688 c 0,35,36
 224.736328125 345.78515625 224.736328125 345.78515625 308.69921875 350.604492188 c 0,37,38
 332.576171875 351.783203125 332.576171875 351.783203125 345.525390625 350.959960938 c 0,37,38
 375.54296875 349.240234375 375.54296875 349.240234375 507.884765625 349.3203125 c 2,39,-1
 785.044921875 349.3203125 l 1,40,-1
 894.924804688 349.3203125 l 2,41,42
 943.904296875 350.466796875 943.904296875 350.466796875 963.805664062 367.360351562 c 0,43,44
 993.58203125 395.009765625 993.58203125 395.009765625 964.017578125 421.060546875 c 0,45,46
 957.16015625 426.374023438 957.16015625 426.374023438 950.685546875 429.6796875 c 0,45,46
 911.115234375 440.990234375 911.115234375 440.990234375 827.685546875 437.879882812 c 1,47,-1
 434.084960938 437.879882812 l 2,48,49
 412.944335938 437.879882812 412.944335938 437.879882812 369.405273438 439.319335938 c 0,50,51
 279.626953125 442.07421875 279.626953125 442.07421875 237.28515625 437.879882812 c 0,31,32
EndSplineSet
EndChar

StartChar: period
Encoding: 46 46 17
Width: 623
VWidth: 1639
GlyphClass: 2
Flags: W
LayerCount: 2
Fore
SplineSet
201.6796875 246 m 0,0,1
 327.524414062 260.737304688 327.524414062 260.737304688 372.240234375 186.959960938 c 0,2,3
 377.021484375 179.190429688 377.021484375 179.190429688 386.442382812 136.120117188 c 0,4,5
 388.432617188 128.161132812 388.432617188 128.161132812 390.279296875 123 c 0,4,5
 393.649414062 114.23828125 393.649414062 114.23828125 403.178710938 98.8994140625 c 0,6,7
 416.698242188 75.8740234375 416.698242188 75.8740234375 419.799804688 62.3203125 c 0,6,7
 435.630859375 -8.0390625 435.630859375 -8.0390625 381.438476562 -56.234375 c 0,8,9
 355.662109375 -77.814453125 355.662109375 -77.814453125 324.6796875 -83.6396484375 c 0,8,9
 276.3125 -90.537109375 276.3125 -90.537109375 237.759765625 -67.240234375 c 0,10,11
 232.01953125 -63.9599609375 232.01953125 -63.9599609375 222.1796875 -54.9404296875 c 0,12,13
 211.588867188 -45.7939453125 211.588867188 -45.7939453125 206.599609375 -42.6396484375 c 0,12,13
 200.815429688 -39.748046875 200.815429688 -39.748046875 187.177734375 -37.3974609375 c 0,14,15
 177.471679688 -35.513671875 177.471679688 -35.513671875 173.799804688 -34.4404296875 c 0,14,15
 132.647460938 -15.9033203125 132.647460938 -15.9033203125 109.83984375 27.8798828125 c 1,16,17
 100.009765625 52.5302734375 100.009765625 52.5302734375 100 98.400390625 c 0,18,19
 100.416992188 142.728515625 100.416992188 142.728515625 103.279296875 154.16015625 c 0,20,21
 119.033203125 219.42578125 119.033203125 219.42578125 183.139648438 241.271484375 c 0,22,23
 193.1015625 244.396484375 193.1015625 244.396484375 201.6796875 246 c 0,0,1
241.040039062 198.440429688 m 0,22,23
 192.108398438 192.793945312 192.108398438 192.793945312 161.2109375 143.745117188 c 0,24,25
 148.782226562 122.4765625 148.782226562 122.4765625 147.559570312 103.3203125 c 0,24,25
 147.559570312 61.1318359375 147.559570312 61.1318359375 195.01953125 25.2880859375 c 0,26,27
 222.806640625 5.5927734375 222.806640625 5.5927734375 245.959960938 6.5595703125 c 0,26,27
 290.217773438 10.1005859375 290.217773438 10.1005859375 323.104492188 56.4609375 c 0,28,29
 340.278320312 80.669921875 340.278320312 80.669921875 339.439453125 103.3203125 c 0,28,29
 337.745117188 145.697265625 337.745117188 145.697265625 292.250976562 180.521484375 c 0,30,31
 264.674804688 200.2265625 264.674804688 200.2265625 241.040039062 198.440429688 c 0,22,23
EndSplineSet
EndChar

StartChar: slash
Encoding: 47 47 18
Width: 696
VWidth: 1639
GlyphClass: 2
Flags: W
LayerCount: 2
Fore
SplineSet
536.001953125 1328.40039062 m 0,0,1
 627.725585938 1339.7578125 627.725585938 1339.7578125 647.522460938 1298.87988281 c 0,2,3
 650.627929688 1290.33789062 650.627929688 1290.33789062 650.220703125 1270.98925781 c 0,4,5
 650.43359375 1248.96972656 650.43359375 1248.96972656 654.08203125 1239.83984375 c 0,4,5
 655.227539062 1236.40429688 655.227539062 1236.40429688 671.990234375 1222.79101562 c 0,6,7
 677.819335938 1217.15820312 677.819335938 1217.15820312 680.322265625 1213.59960938 c 0,6,7
 697.10546875 1178.5078125 697.10546875 1178.5078125 668.888671875 1101.76757812 c 0,8,9
 667.681640625 1098.47070312 667.681640625 1098.47070312 667.202148438 1097.16015625 c 0,8,9
 526.440429688 728.084960938 526.440429688 728.084960938 309.681640625 141.040039062 c 0,10,11
 293.282226562 98.400390625 293.282226562 98.400390625 261.301757812 13.1201171875 c 0,12,13
 229.1015625 -72.70703125 229.1015625 -72.70703125 212.921875 -114.799804688 c 0,12,13
 191.817382812 -175.099609375 191.817382812 -175.099609375 172.049804688 -188.37890625 c 0,14,15
 160.668945312 -195.0078125 160.668945312 -195.0078125 148.961914062 -196.799804688 c 0,14,15
 109.09375 -198.58203125 109.09375 -198.58203125 94.841796875 -180.400390625 c 0,16,17
 91.6640625 -177.22265625 91.6640625 -177.22265625 88.435546875 -167.926757812 c 0,18,19
 84.267578125 -158.471679688 84.267578125 -158.471679688 81.7216796875 -155.799804688 c 0,18,19
 78.4423828125 -154.16015625 78.4423828125 -154.16015625 75.162109375 -154.16015625 c 0,20,21
 71.8818359375 -154.16015625 71.8818359375 -154.16015625 65.322265625 -154.16015625 c 2,22,-1
 58.76171875 -154.16015625 l 2,20,21
 30.958984375 -153.018554688 30.958984375 -153.018554688 17.76171875 -142.6796875 c 1,22,23
 2.84765625 -126.072265625 2.84765625 -126.072265625 3.001953125 -80.3603515625 c 0,24,25
 3.32421875 -39.4951171875 3.32421875 -39.4951171875 4.6416015625 -32.7998046875 c 0,26,27
 7.380859375 -12.71875 7.380859375 -12.71875 38.8466796875 67.31640625 c 0,28,29
 40.1181640625 70.59375 40.1181640625 70.59375 40.7216796875 72.16015625 c 0,28,29
 94.841796875 224.6796875 94.841796875 224.6796875 207.181640625 528.900390625 c 0,30,31
 319.702148438 833.670898438 319.702148438 833.670898438 373.641601562 985.639648438 c 0,30,31
 467.122070312 1241.48046875 467.122070312 1241.48046875 467.122070312 1241.48046875 c 1,32,33
 492.494140625 1308.08203125 492.494140625 1308.08203125 519.14453125 1322.37890625 c 0,34,35
 528.022460938 1326.56542969 528.022460938 1326.56542969 536.001953125 1328.40039062 c 0,0,1
572.08203125 1277.55957031 m 0,34,35
 545.614257812 1274.11816406 545.614257812 1274.11816406 522.881835938 1220.16015625 c 0,36,37
 507.137695312 1180.79980469 507.137695312 1180.79980469 479.192382812 1102.08007812 c 0,38,39
 460.5625 1049.59960938 460.5625 1049.59960938 450.721679688 1023.36035156 c 2,38,-1
 148.961914062 198.440429688 l 2,39,40
 135.022460938 159.900390625 135.022460938 159.900390625 107.141601562 83.6396484375 c 0,41,42
 79.0625 6.818359375 79.0625 6.818359375 65.322265625 -31.16015625 c 0,41,42
 39.654296875 -99.4345703125 39.654296875 -99.4345703125 78.4423828125 -103.3203125 c 0,43,44
 104.681640625 -106.599609375 104.681640625 -106.599609375 126.952148438 -41.4375 c 2,45,-1
 127.641601562 -39.3603515625 l 1,45,46
 142.40234375 -0.8203125 142.40234375 -0.8203125 171.1015625 75.4404296875 c 0,47,48
 200.024414062 152.26171875 200.024414062 152.26171875 214.5625 190.240234375 c 0,47,48
 375.216796875 628.15234375 375.216796875 628.15234375 524.522460938 1020.08007812 c 0,49,50
 533.66015625 1045.05761719 533.66015625 1045.05761719 552.874023438 1095.09765625 c 0,51,52
 585.666992188 1180.71679688 585.666992188 1180.71679688 599.961914062 1223.44042969 c 0,51,52
 610.046875 1251.17382812 610.046875 1251.17382812 591.782226562 1270.57519531 c 0,53,54
 582.548828125 1278.01660156 582.548828125 1278.01660156 572.08203125 1277.55957031 c 0,34,35
EndSplineSet
EndChar

StartChar: colon
Encoding: 58 58 29
Width: 623
VWidth: 1639
GlyphClass: 2
Flags: W
LayerCount: 2
Fore
SplineSet
213.16015625 711.759765625 m 1,0,1
 330.482421875 722.590820312 330.482421875 722.590820312 373.879882812 649.440429688 c 0,2,3
 379.159179688 638.880859375 379.159179688 638.880859375 383.096679688 615.943359375 c 0,4,5
 386.916015625 595.795898438 386.916015625 595.795898438 390.279296875 587.120117188 c 0,4,5
 393.592773438 579.16796875 393.592773438 579.16796875 402.9375 564.80859375 c 0,6,7
 416.650390625 542.509765625 416.650390625 542.509765625 419.799804688 529.719726562 c 0,6,7
 435.44140625 458.461914062 435.44140625 458.461914062 382.596679688 409.57421875 c 0,8,9
 355.267578125 385.788085938 355.267578125 385.788085938 321.399414062 380.48046875 c 1,8,9
 272.987304688 376.203125 272.987304688 376.203125 236.120117188 398.51953125 c 0,10,11
 231.200195312 401.799804688 231.200195312 401.799804688 222.1796875 410 c 0,12,13
 212.500976562 418.42578125 212.500976562 418.42578125 208.240234375 421.48046875 c 0,12,13
 202.455078125 424.372070312 202.455078125 424.372070312 188.817382812 426.721679688 c 0,14,15
 179.111328125 428.606445312 179.111328125 428.606445312 175.439453125 429.6796875 c 0,14,15
 130.755859375 451.17578125 130.755859375 451.17578125 109.83984375 493.639648438 c 1,16,17
 100.009765625 518.290039062 100.009765625 518.290039062 100 564.16015625 c 0,18,19
 100.479492188 608.971679688 100.479492188 608.971679688 106.559570312 629.759765625 c 0,20,21
 129.465820312 699.120117188 129.465820312 699.120117188 213.16015625 711.759765625 c 1,0,1
237.759765625 662.559570312 m 0,22,23
 190.163085938 654.944335938 190.163085938 654.944335938 161.32421875 606.8125 c 0,24,25
 149.725585938 585.838867188 149.725585938 585.838867188 149.200195312 567.440429688 c 0,24,25
 147.58203125 525.370117188 147.58203125 525.370117188 195.276367188 488.96875 c 0,26,27
 224.686523438 467.946289062 224.686523438 467.946289062 249.240234375 470.6796875 c 0,26,27
 297.284179688 478.3671875 297.284179688 478.3671875 326.778320312 525.520507812 c 0,28,29
 339.584960938 547.729492188 339.584960938 547.729492188 339.439453125 567.440429688 c 0,28,29
 339.439453125 608.623046875 339.439453125 608.623046875 293.100585938 643.874023438 c 0,30,31
 262.953125 665.387695312 262.953125 665.387695312 237.759765625 662.559570312 c 0,22,23
201.6796875 246 m 0,30,31
 327.524414062 260.737304688 327.524414062 260.737304688 372.240234375 186.959960938 c 0,32,33
 377.021484375 179.190429688 377.021484375 179.190429688 386.442382812 136.120117188 c 0,34,35
 388.432617188 128.161132812 388.432617188 128.161132812 390.279296875 123 c 0,34,35
 393.649414062 114.23828125 393.649414062 114.23828125 403.178710938 98.8994140625 c 0,36,37
 416.698242188 75.8740234375 416.698242188 75.8740234375 419.799804688 62.3203125 c 0,36,37
 435.630859375 -8.0390625 435.630859375 -8.0390625 381.438476562 -56.234375 c 0,38,39
 355.662109375 -77.814453125 355.662109375 -77.814453125 324.6796875 -83.6396484375 c 0,38,39
 276.3125 -90.537109375 276.3125 -90.537109375 237.759765625 -67.240234375 c 0,40,41
 232.01953125 -63.9599609375 232.01953125 -63.9599609375 222.1796875 -54.9404296875 c 0,42,43
 211.588867188 -45.7939453125 211.588867188 -45.7939453125 206.599609375 -42.6396484375 c 0,42,43
 200.815429688 -39.748046875 200.815429688 -39.748046875 187.177734375 -37.3974609375 c 0,44,45
 177.471679688 -35.513671875 177.471679688 -35.513671875 173.799804688 -34.4404296875 c 0,44,45
 132.647460938 -15.9033203125 132.647460938 -15.9033203125 109.83984375 27.8798828125 c 1,46,47
 100.009765625 52.5302734375 100.009765625 52.5302734375 100 98.400390625 c 0,48,49
 100.416992188 142.728515625 100.416992188 142.728515625 103.279296875 154.16015625 c 0,50,51
 119.033203125 219.42578125 119.033203125 219.42578125 183.139648438 241.271484375 c 0,52,53
 193.1015625 244.396484375 193.1015625 244.396484375 201.6796875 246 c 0,30,31
241.040039062 198.440429688 m 0,52,53
 192.108398438 192.793945312 192.108398438 192.793945312 161.2109375 143.745117188 c 0,54,55
 148.782226562 122.4765625 148.782226562 122.4765625 147.559570312 103.3203125 c 0,54,55
 147.559570312 61.1318359375 147.559570312 61.1318359375 195.01953125 25.2880859375 c 0,56,57
 222.806640625 5.5927734375 222.806640625 5.5927734375 245.959960938 6.5595703125 c 0,56,57
 290.217773438 10.1005859375 290.217773438 10.1005859375 323.104492188 56.4609375 c 0,58,59
 340.278320312 80.669921875 340.278320312 80.669921875 339.439453125 103.3203125 c 0,58,59
 337.745117188 145.697265625 337.745117188 145.697265625 292.250976562 180.521484375 c 0,60,61
 264.674804688 200.2265625 264.674804688 200.2265625 241.040039062 198.440429688 c 0,52,53
EndSplineSet
EndChar

StartChar: equal
Encoding: 61 61 32
Width: 961
VWidth: 1639
GlyphClass: 2
Flags: W
LayerCount: 2
Fore
SplineSet
916.477539062 498.559570312 m 1,0,1
 953.438476562 483.439453125 953.438476562 483.439453125 952.946289062 436.322265625 c 0,2,3
 951.721679688 413.96875 951.721679688 413.96875 941.077148438 398.51953125 c 0,2,3
 922.6953125 375.673828125 922.6953125 375.673828125 885.317382812 372.280273438 c 0,4,5
 880.625 372.012695312 880.625 372.012695312 768.876953125 372.280273438 c 2,6,-1
 537.63671875 372.280273438 l 1,7,-1
 296.556640625 372.280273438 l 2,8,9
 169.825195312 372.448242188 169.825195312 372.448242188 155.517578125 373.919921875 c 0,10,11
 124.756835938 378.043945312 124.756835938 378.043945312 107.95703125 393.599609375 c 0,12,13
 105.776367188 396.5078125 105.776367188 396.5078125 102.094726562 403.543945312 c 0,14,15
 97.0654296875 412.224609375 97.0654296875 412.224609375 94.8369140625 414.919921875 c 1,14,15
 88.9912109375 417.045898438 88.9912109375 417.045898438 73.517578125 416.559570312 c 1,16,17
 48.140625 420.381835938 48.140625 420.381835938 32.517578125 432.959960938 c 0,18,19
 21.9658203125 442.737304688 21.9658203125 442.737304688 16.1171875 459.200195312 c 0,20,21
 -1.400390625 514.672851562 -1.400390625 514.672851562 18.884765625 560.034179688 c 0,22,23
 25.275390625 572.3203125 25.275390625 572.3203125 32.517578125 578.919921875 c 0,22,23
 53.8583984375 595.302734375 53.8583984375 595.302734375 104.676757812 595.3203125 c 2,24,-1
 234.237304688 595.3203125 l 1,25,-1
 772.157226562 595.3203125 l 2,26,27
 860.009765625 595.3203125 860.009765625 595.3203125 882.801757812 586.142578125 c 0,28,29
 921.23046875 567.875 921.23046875 567.875 918.1171875 524.799804688 c 0,28,29
 917.296875 520.700195312 917.296875 520.700195312 917.296875 511.6796875 c 0,30,31
 917.026367188 502.231445312 917.026367188 502.231445312 916.477539062 498.559570312 c 1,0,1
125.997070312 549.400390625 m 0,30,31
 79.8603515625 544.2734375 79.8603515625 544.2734375 66.228515625 518.057617188 c 0,32,33
 58.29296875 502.797851562 58.29296875 502.797851562 71.876953125 485.440429688 c 0,32,33
 78.3427734375 477.95703125 78.3427734375 477.95703125 83.357421875 475.599609375 c 0,34,35
 104.1875 462.344726562 104.1875 462.344726562 155.517578125 462.48046875 c 0,36,37
 171.916992188 462.48046875 171.916992188 462.48046875 205.537109375 461.66015625 c 0,38,39
 239.668945312 460.865234375 239.668945312 460.865234375 255.556640625 460.83984375 c 2,38,-1
 675.397460938 460.83984375 l 1,39,-1
 781.997070312 460.83984375 l 2,40,41
 834.56640625 462.151367188 834.56640625 462.151367188 854.157226562 480.51953125 c 0,42,43
 882.993164062 507.296875 882.993164062 507.296875 849.389648438 533.859375 c 0,44,45
 843.112304688 538.334960938 843.112304688 538.334960938 837.756835938 541.200195312 c 0,44,45
 797.90625 552.4296875 797.90625 552.4296875 714.756835938 549.400390625 c 1,46,-1
 321.157226562 549.400390625 l 2,47,48
 299.95703125 549.400390625 299.95703125 549.400390625 256.71484375 550.845703125 c 0,49,50
 168.256835938 553.5859375 168.256835938 553.5859375 125.997070312 549.400390625 c 0,30,31
916.477539062 226.3203125 m 1,49,50
 954.2421875 210.87109375 954.2421875 210.87109375 952.921875 164 c 0,51,52
 951.344726562 142.813476562 951.344726562 142.813476562 941.077148438 127.919921875 c 0,51,52
 921.545898438 103.48828125 921.545898438 103.48828125 885.317382812 100.040039062 c 0,53,54
 880.625 99.7724609375 880.625 99.7724609375 768.876953125 100.040039062 c 2,55,-1
 537.63671875 100.040039062 l 1,56,-1
 296.556640625 100.040039062 l 2,57,58
 169.825195312 100.208007812 169.825195312 100.208007812 155.517578125 101.6796875 c 0,59,60
 124.756835938 105.8046875 124.756835938 105.8046875 107.95703125 121.360351562 c 0,61,62
 105.776367188 124.268554688 105.776367188 124.268554688 102.094726562 131.303710938 c 0,63,64
 97.0654296875 139.985351562 97.0654296875 139.985351562 94.8369140625 142.6796875 c 1,63,64
 88.9912109375 144.806640625 88.9912109375 144.806640625 73.517578125 144.3203125 c 1,65,66
 48.140625 148.141601562 48.140625 148.141601562 32.517578125 160.719726562 c 0,67,68
 21.9658203125 170.497070312 21.9658203125 170.497070312 16.1171875 186.959960938 c 0,69,70
 -1.400390625 242.432617188 -1.400390625 242.432617188 18.884765625 287.793945312 c 0,71,72
 25.275390625 300.080078125 25.275390625 300.080078125 32.517578125 306.6796875 c 0,71,72
 53.8583984375 323.0625 53.8583984375 323.0625 104.676757812 323.080078125 c 2,73,-1
 234.237304688 323.080078125 l 1,74,-1
 772.157226562 323.080078125 l 2,75,76
 860.009765625 323.080078125 860.009765625 323.080078125 882.801757812 313.90234375 c 0,77,78
 921.23046875 295.634765625 921.23046875 295.634765625 918.1171875 252.559570312 c 0,77,78
 917.296875 248.459960938 917.296875 248.459960938 917.296875 239.440429688 c 0,79,80
 917.026367188 229.991210938 917.026367188 229.991210938 916.477539062 226.3203125 c 1,49,50
125.997070312 277.16015625 m 0,79,80
 79.8603515625 272.034179688 79.8603515625 272.034179688 66.228515625 245.817382812 c 0,81,82
 58.29296875 230.557617188 58.29296875 230.557617188 71.876953125 213.200195312 c 0,81,82
 78.3427734375 205.717773438 78.3427734375 205.717773438 83.357421875 203.360351562 c 0,83,84
 104.154296875 190.102539062 104.154296875 190.102539062 157.157226562 190.240234375 c 0,85,86
 173.556640625 190.240234375 173.556640625 190.240234375 206.357421875 189.419921875 c 0,87,88
 239.704101562 188.625976562 239.704101562 188.625976562 255.556640625 188.599609375 c 2,87,-1
 673.756835938 188.599609375 l 1,88,-1
 785.27734375 188.599609375 l 2,89,90
 832.69921875 189.7734375 832.69921875 189.7734375 852.517578125 206.639648438 c 0,91,92
 883.849609375 235.883789062 883.849609375 235.883789062 849.659179688 261.828125 c 0,93,94
 843.295898438 266.169921875 843.295898438 266.169921875 837.756835938 268.959960938 c 0,93,94
 797.90625 280.190429688 797.90625 280.190429688 714.756835938 277.16015625 c 1,95,-1
 321.157226562 277.16015625 l 2,96,97
 299.95703125 277.16015625 299.95703125 277.16015625 256.71484375 278.60546875 c 0,98,99
 168.256835938 281.346679688 168.256835938 281.346679688 125.997070312 277.16015625 c 0,79,80
EndSplineSet
EndChar

StartChar: bracketleft
Encoding: 91 91 62
Width: 641
VWidth: 1639
GlyphClass: 2
Flags: W
LayerCount: 2
Fore
SplineSet
100 1315.28027344 m 1,0,-1
 506.720703125 1315.28027344 l 1,1,-1
 506.720703125 1226.71972656 l 1,2,-1
 541.16015625 1226.71972656 l 1,3,-1
 541.16015625 1180.79980469 l 1,4,-1
 277.120117188 1180.79980469 l 1,5,-1
 277.120117188 -314.879882812 l 1,6,-1
 506.720703125 -314.879882812 l 1,7,-1
 506.720703125 -403.440429688 l 1,8,-1
 541.16015625 -403.440429688 l 1,9,-1
 541.16015625 -447.719726562 l 1,10,-1
 180.360351562 -447.719726562 l 1,11,-1
 180.360351562 -405.080078125 l 1,12,-1
 100 -405.080078125 l 1,13,-1
 100 1315.28027344 l 1,0,-1
196.760742188 1269.36035156 m 1,14,-1
 145.919921875 1269.36035156 l 1,15,-1
 145.919921875 -359.16015625 l 1,16,-1
 196.760742188 -359.16015625 l 1,17,-1
 196.760742188 1269.36035156 l 1,14,-1
EndSplineSet
EndChar

StartChar: bracketright
Encoding: 93 93 64
Width: 738
VWidth: 1639
GlyphClass: 2
Flags: W
LayerCount: 2
Fore
SplineSet
100 1315.28027344 m 1,0,-1
 503.440429688 1315.28027344 l 1,1,-1
 503.440429688 1226.71972656 l 1,2,-1
 537.879882812 1226.71972656 l 1,3,-1
 537.879882812 -447.719726562 l 1,4,-1
 180.360351562 -447.719726562 l 1,5,-1
 180.360351562 -405.080078125 l 1,6,-1
 100 -405.080078125 l 1,7,-1
 100 -314.879882812 l 1,8,-1
 360.759765625 -314.879882812 l 1,9,-1
 360.759765625 1180.79980469 l 1,10,-1
 180.360351562 1180.79980469 l 1,11,-1
 180.360351562 1223.44042969 l 1,12,-1
 100 1223.44042969 l 1,13,-1
 100 1315.28027344 l 1,0,-1
457.520507812 1269.36035156 m 1,14,-1
 406.6796875 1269.36035156 l 1,15,-1
 406.6796875 -359.16015625 l 1,16,-1
 457.520507812 -359.16015625 l 1,17,-1
 457.520507812 1269.36035156 l 1,14,-1
EndSplineSet
EndChar

StartChar: guillemotleft
Encoding: 171 171 175
Width: 790
VWidth: 1639
GlyphClass: 2
Flags: W
LayerCount: 2
Fore
SplineSet
337.350585938 52.48046875 m 1,0,1
 337.829101562 25.5009765625 337.829101562 25.5009765625 338.991210938 21.3203125 c 0,2,3
 341.87109375 15.0791015625 341.87109375 15.0791015625 352.146484375 0.77734375 c 0,4,5
 377.841796875 -37.650390625 377.841796875 -37.650390625 370.151367188 -55.759765625 c 0,4,5
 352.063476562 -90.126953125 352.063476562 -90.126953125 299.184570312 -49.349609375 c 0,6,7
 295.82421875 -46.7578125 295.82421875 -46.7578125 293.071289062 -44.2802734375 c 0,6,7
 280.373046875 -28.6708984375 280.373046875 -28.6708984375 276.670898438 -26.240234375 c 0,8,9
 272.9296875 -24.369140625 272.9296875 -24.369140625 262.165039062 -24.8994140625 c 0,10,11
 253.595703125 -25.0029296875 253.595703125 -25.0029296875 250.430664062 -24.599609375 c 0,10,11
 229.278320312 -18.744140625 229.278320312 -18.744140625 211.071289062 1.6396484375 c 0,12,13
 179.205078125 36.203125 179.205078125 36.203125 147.111328125 109.879882812 c 0,14,15
 92.5068359375 239.303710938 92.5068359375 239.303710938 101.19140625 362.440429688 c 0,16,17
 108.034179688 454.544921875 108.034179688 454.544921875 178.270507812 569.080078125 c 0,18,19
 218.673828125 631.984375 218.673828125 631.984375 247.151367188 657.639648438 c 0,20,21
 288.123046875 692.430664062 288.123046875 692.430664062 347.19140625 690.440429688 c 0,22,23
 380.56640625 689.081054688 380.56640625 689.081054688 386.55078125 682.240234375 c 0,24,25
 392.049804688 673.088867188 392.049804688 673.088867188 391.470703125 636.3203125 c 1,26,27
 437.392578125 680.823242188 437.392578125 680.823242188 463.630859375 688.799804688 c 1,28,29
 519.231445312 699.750976562 519.231445312 699.750976562 547.270507812 683.879882812 c 0,30,31
 555.470703125 678.959960938 555.470703125 678.959960938 555.521484375 659.71484375 c 0,32,33
 555.470703125 659.280273438 555.470703125 659.280273438 555.470703125 657.639648438 c 2,34,-1
 555.470703125 656 l 2,32,33
 554.923828125 649.986328125 554.923828125 649.986328125 555.2890625 637.595703125 c 0,34,35
 555.267578125 612.436523438 555.267578125 612.436523438 550.55078125 601.879882812 c 1,34,35
 589.137695312 601.879882812 589.137695312 601.879882812 589.708984375 576.325195312 c 0,36,37
 588.559570312 564.372070312 588.559570312 564.372070312 580.071289062 552.6796875 c 0,36,37
 570.182617188 539.495117188 570.182617188 539.495117188 548.765625 514.658203125 c 0,38,39
 516.721679688 477.49609375 516.721679688 477.49609375 502.991210938 455.919921875 c 0,38,39
 413.630859375 309.604492188 413.630859375 309.604492188 453.791015625 141.040039062 c 0,40,41
 457.520507812 126.866210938 457.520507812 126.866210938 488.025390625 78.650390625 c 0,42,43
 494.442382812 68.095703125 494.442382812 68.095703125 498.071289062 60.6796875 c 0,42,43
 501.350585938 53.2998046875 501.350585938 53.2998046875 501.350585938 38.5400390625 c 0,44,45
 502.02734375 23.2333984375 502.02734375 23.2333984375 504.630859375 16.400390625 c 0,44,45
 507.459960938 11.5498046875 507.459960938 11.5498046875 514.87109375 1.0263671875 c 0,46,47
 539.498046875 -33.943359375 539.498046875 -33.943359375 535.791015625 -52.48046875 c 0,46,47
 528.42578125 -83.7802734375 528.42578125 -83.7802734375 479.227539062 -61.2529296875 c 0,48,49
 474.569335938 -58.94140625 474.569335938 -58.94140625 471.831054688 -57.400390625 c 0,48,49
 466.515625 -53.603515625 466.515625 -53.603515625 457.34375 -43.2568359375 c 0,50,51
 446.8359375 -31.40234375 446.8359375 -31.40234375 440.670898438 -27.8798828125 c 0,50,51
 435.193359375 -25.1416015625 435.193359375 -25.1416015625 422.037109375 -24.740234375 c 0,52,53
 410.84765625 -24.0361328125 410.84765625 -24.0361328125 406.23046875 -22.9599609375 c 0,52,53
 360.944335938 -1.2451171875 360.944335938 -1.2451171875 338.991210938 52.48046875 c 1,54,-1
 337.350585938 52.48046875 l 1,0,1
330.791015625 637.959960938 m 1,55,56
 284.87109375 618.280273438 284.87109375 618.280273438 224.650390625 523.877929688 c 0,57,58
 153.245117188 411.891601562 153.245117188 411.891601562 148.750976562 331.280273438 c 0,59,60
 145.93359375 263.603515625 145.93359375 263.603515625 196.310546875 149.240234375 c 0,61,62
 236.39453125 57.36328125 236.39453125 57.36328125 278.310546875 29.51953125 c 1,63,64
 271.619140625 44.2421875 271.619140625 44.2421875 256.072265625 72.0087890625 c 0,65,66
 233.567382812 112.853515625 233.567382812 112.853515625 225.831054688 134.48046875 c 0,65,66
 163.350585938 306.924804688 163.350585938 306.924804688 219.90625 466.036132812 c 0,67,68
 225.974609375 482.66796875 225.974609375 482.66796875 232.390625 496.919921875 c 0,67,68
 246.852539062 528.735351562 246.852539062 528.735351562 309.34375 608.963867188 c 0,69,70
 322.400390625 625.913085938 322.400390625 625.913085938 330.791015625 637.959960938 c 1,55,56
496.430664062 637.959960938 m 1,69,70
 450.213867188 616.118164062 450.213867188 616.118164062 394.750976562 533 c 1,71,72
 316.977539062 409.645507812 316.977539062 409.645507812 312.750976562 331.280273438 c 1,73,74
 311.592773438 270.485351562 311.592773438 270.485351562 352.111328125 165.639648438 c 1,75,76
 378.73828125 101.743164062 378.73828125 101.743164062 406.23046875 63.9599609375 c 0,77,78
 427.903320312 36.7763671875 427.903320312 36.7763671875 442.310546875 29.51953125 c 1,79,80
 395.922851562 114.565429688 395.922851562 114.565429688 388.19140625 137.759765625 c 0,81,82
 330.287109375 299.409179688 330.287109375 299.409179688 378.728515625 450.6796875 c 0,83,84
 386.088867188 472.9765625 386.088867188 472.9765625 394.750976562 492 c 0,83,84
 417.205078125 538.3046875 417.205078125 538.3046875 455.430664062 590.400390625 c 0,85,86
 461.033203125 597.403320312 461.033203125 597.403320312 473.393554688 610.766601562 c 0,87,88
 490.072265625 629.188476562 490.072265625 629.188476562 496.430664062 637.959960938 c 1,69,70
391.470703125 634.6796875 m 1,87,-1
 389.831054688 634.6796875 l 1,88,-1
 391.470703125 634.6796875 l 1,87,-1
550.55078125 601.879882812 m 1,89,-1
 548.911132812 600.240234375 l 1,90,-1
 550.55078125 601.879882812 l 1,89,-1
281.590820312 193.51953125 m 1,91,-1
 279.951171875 193.51953125 l 1,92,-1
 281.590820312 193.51953125 l 1,91,-1
283.23046875 188.599609375 m 1,93,94
 281.698242188 182.477539062 281.698242188 182.477539062 286.510742188 157.440429688 c 0,95,96
 294.327148438 121.880859375 294.327148438 121.880859375 327.510742188 70.51953125 c 1,97,-1
 329.151367188 70.51953125 l 1,98,99
 287.58203125 170.993164062 287.58203125 170.993164062 283.23046875 188.599609375 c 1,93,94
330.791015625 68.8798828125 m 1,100,-1
 329.151367188 67.240234375 l 1,101,-1
 330.791015625 68.8798828125 l 1,100,-1
335.7109375 59.0400390625 m 1,102,-1
 334.071289062 57.400390625 l 1,103,-1
 335.7109375 59.0400390625 l 1,102,-1
337.350585938 54.1201171875 m 1,104,-1
 335.7109375 54.1201171875 l 1,105,-1
 337.350585938 54.1201171875 l 1,104,-1
EndSplineSet
EndChar

StartChar: guillemotright
Encoding: 187 187 176
Width: 791
VWidth: 1639
GlyphClass: 2
Flags: W
LayerCount: 2
Fore
SplineSet
188.68359375 -26.240234375 m 1,0,1
 184.091796875 -26.240234375 184.091796875 -26.240234375 171.557617188 -27.18359375 c 0,2,3
 121.383789062 -30.0302734375 121.383789062 -30.0302734375 108.323242188 -19.6796875 c 1,2,3
 96.16796875 -6.24609375 96.16796875 -6.24609375 101.763671875 45.919921875 c 0,4,5
 104.1953125 58.71484375 104.1953125 58.71484375 126.36328125 83.6396484375 c 0,6,7
 150.119140625 110.354492188 150.119140625 110.354492188 169.00390625 136.120117188 c 0,8,9
 229.048828125 218.381835938 229.048828125 218.381835938 246.083007812 308.3203125 c 1,10,11
 261.196289062 404.680664062 261.196289062 404.680664062 210.00390625 516.599609375 c 0,12,13
 199.247070312 539.485351562 199.247070312 539.485351562 177.203125 577.280273438 c 1,14,15
 159.319335938 603.861328125 159.319335938 603.861328125 157.5234375 615 c 0,16,17
 153.09765625 666.224609375 153.09765625 666.224609375 160.803710938 680.599609375 c 1,18,19
 169.690429688 690.706054688 169.690429688 690.706054688 195.243164062 690.440429688 c 0,20,21
 201.810546875 690.001953125 201.810546875 690.001953125 214.595703125 690.061523438 c 0,22,23
 248.956054688 689.288085938 248.956054688 689.288085938 264.123046875 680.599609375 c 0,22,23
 281.41796875 668.709960938 281.41796875 668.709960938 315.401367188 618.7734375 c 0,24,25
 319.202148438 613.299804688 319.202148438 613.299804688 321.5234375 610.080078125 c 1,24,25
 321.5234375 614.375976562 321.5234375 614.375976562 320.739257812 625.975585938 c 0,26,27
 318.536132812 670.53125 318.536132812 670.53125 326.443359375 682.240234375 c 0,26,27
 331.631835938 689.50390625 331.631835938 689.50390625 357.5859375 690.077148438 c 0,28,29
 361.0234375 690.302734375 361.0234375 690.302734375 362.5234375 690.440429688 c 0,28,29
 426.28515625 692.716796875 426.28515625 692.716796875 460.154296875 648.388671875 c 0,30,31
 462.780273438 644.844726562 462.780273438 644.844726562 464.203125 642.879882812 c 0,30,31
 494.194335938 598.620117188 494.194335938 598.620117188 534.723632812 490.360351562 c 1,32,33
 589.341796875 350.780273438 589.341796875 350.780273438 590.51171875 273.209960938 c 0,34,35
 590.564453125 266.157226562 590.564453125 266.157226562 590.483398438 260.759765625 c 0,34,35
 587.537109375 163.357421875 587.537109375 163.357421875 505.203125 39.3603515625 c 0,36,37
 473.438476562 -8.78515625 473.438476562 -8.78515625 442.883789062 -37.7197265625 c 1,38,39
 407.126953125 -65.146484375 407.126953125 -65.146484375 387.123046875 -68.8798828125 c 0,40,41
 345.807617188 -73.2294921875 345.807617188 -73.2294921875 347.419921875 -41.7685546875 c 0,42,43
 347.787109375 -34.61328125 347.787109375 -34.61328125 351.043945312 -26.240234375 c 1,42,43
 346.490234375 -26.240234375 346.490234375 -26.240234375 334.946289062 -25.453125 c 0,44,45
 301.165039062 -23.732421875 301.165039062 -23.732421875 290.36328125 -27.8798828125 c 0,44,45
 280.40234375 -32.5283203125 280.40234375 -32.5283203125 264.27734375 -46.1005859375 c 0,46,47
 239.5546875 -65.5458984375 239.5546875 -65.5458984375 223.123046875 -68.8798828125 c 0,46,47
 188.203125 -72.98828125 188.203125 -72.98828125 182.995117188 -48.845703125 c 0,48,49
 182.081054688 -37.451171875 182.081054688 -37.451171875 188.68359375 -26.240234375 c 1,0,1
218.203125 634.6796875 m 1,48,49
 217.412109375 628.352539062 217.412109375 628.352539062 241.122070312 591.206054688 c 0,50,51
 243.422851562 587.331054688 243.422851562 587.331054688 244.443359375 585.48046875 c 0,50,51
 277.565429688 515.228515625 277.565429688 515.228515625 287.083007812 469.040039062 c 0,52,53
 323.545898438 281.274414062 323.545898438 281.274414062 251.00390625 145.959960938 c 0,54,55
 239.880859375 125.939453125 239.880859375 125.939453125 177.334960938 46 c 0,56,57
 168.536132812 34.62890625 168.536132812 34.62890625 162.443359375 26.240234375 c 1,56,57
 170.643554688 29.51953125 170.643554688 29.51953125 180.483398438 36.080078125 c 0,58,59
 190.323242188 42.6396484375 190.323242188 42.6396484375 196.883789062 47.5595703125 c 0,60,61
 203.443359375 52.48046875 203.443359375 52.48046875 212.463867188 63.1396484375 c 0,62,63
 221.483398438 73.7998046875 221.483398438 73.7998046875 225.583007812 77.900390625 c 0,64,65
 229.68359375 82 229.68359375 82 238.703125 95.1201171875 c 0,66,67
 247.723632812 108.240234375 247.723632812 108.240234375 250.18359375 111.51953125 c 0,68,69
 252.643554688 114.799804688 252.643554688 114.799804688 262.483398438 130.379882812 c 2,70,-1
 272.323242188 145.959960938 l 1,58,59
 336.04296875 250.587890625 336.04296875 250.587890625 344.483398438 329.639648438 c 0,60,61
 344.483398438 336.200195312 344.483398438 336.200195312 345.303710938 341.940429688 c 0,62,63
 346.123046875 347.6796875 346.123046875 347.6796875 345.303710938 355.059570312 c 0,64,65
 344.483398438 362.440429688 344.483398438 362.440429688 343.663085938 366.540039062 c 0,66,67
 342.84375 370.639648438 342.84375 370.639648438 341.203125 380.48046875 c 0,68,69
 339.563476562 390.3203125 339.563476562 390.3203125 338.743164062 391.959960938 c 0,70,71
 337.923828125 393.599609375 337.923828125 393.599609375 335.463867188 405.080078125 c 2,72,-1
 333.00390625 416.559570312 l 1,62,63
 290.737304688 574.365234375 290.737304688 574.365234375 218.203125 634.6796875 c 1,48,49
382.203125 634.6796875 m 1,64,65
 381.412109375 628.352539062 381.412109375 628.352539062 405.122070312 591.206054688 c 0,66,67
 407.422851562 587.331054688 407.422851562 587.331054688 408.443359375 585.48046875 c 0,66,67
 441.565429688 515.228515625 441.565429688 515.228515625 451.083007812 469.040039062 c 0,68,69
 487.655273438 283.696289062 487.655273438 283.696289062 416.643554688 149.240234375 c 0,70,71
 405.6953125 128.802734375 405.6953125 128.802734375 344.798828125 50.9970703125 c 0,72,73
 333.840820312 36.810546875 333.840820312 36.810546875 326.443359375 26.240234375 c 1,72,73
 379.293945312 50.462890625 379.293945312 50.462890625 437.963867188 149.240234375 c 0,74,75
 500.762695312 257.471679688 500.762695312 257.471679688 508.483398438 329.639648438 c 0,76,77
 511.434570312 361.840820312 511.434570312 361.840820312 495.36328125 419.83984375 c 1,78,79
 459.9765625 566.327148438 459.9765625 566.327148438 382.203125 634.6796875 c 1,64,65
323.163085938 608.440429688 m 1,80,-1
 321.5234375 608.440429688 l 1,81,-1
 323.163085938 608.440429688 l 1,80,-1
324.803710938 605.16015625 m 1,82,-1
 323.163085938 603.51953125 l 1,83,-1
 324.803710938 605.16015625 l 1,82,-1
326.443359375 601.879882812 m 1,84,-1
 324.803710938 600.240234375 l 1,85,-1
 326.443359375 601.879882812 l 1,84,-1
328.083007812 598.599609375 m 1,86,-1
 326.443359375 596.959960938 l 1,87,-1
 328.083007812 598.599609375 l 1,86,-1
329.723632812 595.3203125 m 1,88,89
 329.723632812 587.9140625 329.723632812 587.9140625 350.001953125 545.599609375 c 0,90,91
 351.813476562 541.602539062 351.813476562 541.602539062 352.68359375 539.559570312 c 0,90,91
 357.79296875 526.78515625 357.79296875 526.78515625 369.458007812 500.08203125 c 0,92,93
 403.779296875 420.482421875 403.779296875 420.482421875 410.083007812 382.120117188 c 1,92,-1
 411.723632812 382.120117188 l 1,93,94
 408.681640625 477.8515625 408.681640625 477.8515625 329.723632812 595.3203125 c 1,88,89
413.36328125 377.200195312 m 1,95,-1
 411.723632812 377.200195312 l 1,96,-1
 413.36328125 377.200195312 l 1,95,-1
EndSplineSet
EndChar

StartChar: guilsinglleft
Encoding: 8249 8249 195
Width: 566
GlyphClass: 2
Flags: W
LayerCount: 2
Fore
SplineSet
350 70 m 1,0,1
 363 48 363 48 363 35 c 0,2,3
 363 26 363 26 352 26 c 0,4,5
 343 26 343 26 326 33 c 1,6,7
 273 73 273 73 230 128 c 128,-1,8
 187 183 187 183 155 255 c 0,9,10
 126 321 126 321 113.5 385 c 128,-1,11
 101 449 101 449 100 513 c 1,12,13
 100 656 100 656 164 783 c 1,14,15
 231 904 231 904 327 958 c 1,16,17
 354 969 354 969 358 969 c 0,18,19
 366 969 366 969 366 963 c 0,20,21
 366 953 366 953 343 912 c 1,22,23
 224 746 224 746 224 513 c 0,24,25
 224 249 224 249 350 70 c 1,0,1
EndSplineSet
EndChar

StartChar: guilsinglright
Encoding: 8250 8250 196
Width: 569
GlyphClass: 2
Flags: W
LayerCount: 2
Fore
SplineSet
115 70 m 1,0,1
 244 249 244 249 244 513 c 0,2,3
 244 751 244 751 122 913 c 1,4,5
 100 954 100 954 100 963 c 0,6,7
 100 969 100 969 108 969 c 0,8,9
 110 969 110 969 118 966.5 c 128,-1,10
 126 964 126 964 137 958 c 0,11,12
 188 931 188 931 228.5 887 c 128,-1,13
 269 843 269 843 301 783 c 0,14,15
 336 718 336 718 352 650.5 c 128,-1,16
 368 583 368 583 369 513 c 0,17,18
 369 450 369 450 353.5 385 c 128,-1,19
 338 320 338 320 309 255 c 0,20,21
 279 188 279 188 235 130 c 128,-1,22
 191 72 191 72 138 33 c 1,23,24
 124 26 124 26 113 26 c 0,25,26
 101 26 101 26 101 35 c 0,27,28
 101 47 101 47 115 70 c 1,0,1
EndSplineSet
EndChar

StartChar: afii57451
Encoding: 1611 1611 311
AltUni2: 00fe70.ffffffff.0
Width: 119
VWidth: 1639
GlyphClass: 2
Flags: HW
AnchorPoint: "GposMark2BaseAnchorHamzaErabAbove_01_01" 234.843 1354.25 mark 0
AnchorPoint: "GposMark2BaseAnchorHamzaErabBelow_01_01" 234.843 1887.64 mark 0
AnchorPoint: "GposMark2BaseAnchorClassErabAbove_01_02" 234.843 1354.25 mark 0
AnchorPoint: "GposMark2MarkAnchorHamzaErabAbove_01_01" 234.843 1354.25 mark 0
AnchorPoint: "GposMark2MarkAnchorHamzaErabBelow_01_01" 234.843 1887.64 mark 0
AnchorPoint: "GposMark2MarkAnchorShaddaErabAbove_01_02" 234.843 1354.25 mark 0
AnchorPoint: "GposMark2MarkAnchorShaddaErabBelow_01_02" 234.843 1887.64 mark 0
LayerCount: 2
Fore
SplineSet
18.966796875 1613.75976562 m 1,0,1
 -32.1162109375 1613.75976562 -32.1162109375 1613.75976562 -41.3427734375 1618.54199219 c 0,2,3
 -44.8857421875 1620.73730469 -44.8857421875 1620.73730469 -46.6337890625 1621.95996094 c 0,4,5
 -72.15625 1643.55664062 -72.15625 1643.55664062 -62.2109375 1712.7578125 c 0,6,7
 -60.955078125 1720.38964844 -60.955078125 1720.38964844 -59.75390625 1725.28027344 c 0,8,9
 -54.169921875 1737.04296875 -54.169921875 1737.04296875 -44.9931640625 1746.59960938 c 1,10,11
 -34.40234375 1754.74316406 -34.40234375 1754.74316406 -3.9931640625 1764.63964844 c 0,12,13
 8.306640625 1768.74023438 8.306640625 1768.74023438 33.7265625 1776.94042969 c 0,14,15
 59.6474609375 1785.31835938 59.6474609375 1785.31835938 71.4462890625 1789.24023438 c 0,16,17
 252.418945312 1848.3984375 252.418945312 1848.3984375 343.686523438 1874.51953125 c 0,18,19
 384.2734375 1887.45605469 384.2734375 1887.45605469 428.966796875 1887.63964844 c 0,20,21
 458.872070312 1886.91210938 458.872070312 1886.91210938 471.606445312 1881.08007812 c 1,22,23
 495.61328125 1853.84960938 495.61328125 1853.84960938 492.926757812 1795.79980469 c 1,24,25
 524.827148438 1792.76171875 524.827148438 1792.76171875 527.424804688 1753.84667969 c 0,26,27
 527.721679688 1732.65527344 527.721679688 1732.65527344 517.526367188 1718.71972656 c 0,28,29
 512.606445312 1710.51953125 512.606445312 1710.51953125 505.2265625 1706.41992188 c 128,-1,30
 497.846679688 1702.3203125 497.846679688 1702.3203125 481.446289062 1697.40039062 c 2,31,-1
 465.046875 1692.48046875 l 2,32,33
 458.291015625 1690.63769531 458.291015625 1690.63769531 444.693359375 1686.00390625 c 0,34,35
 421.596679688 1678.13183594 421.596679688 1678.13183594 409.286132812 1676.08007812 c 1,36,-1
 409.286132812 1674.44042969 l 1,37,38
 467.583007812 1674.44042969 467.583007812 1674.44042969 478.999023438 1669.41503906 c 0,39,40
 493.669921875 1661.00195312 493.669921875 1661.00195312 499.486328125 1648.20019531 c 1,41,42
 503.833984375 1634.38671875 503.833984375 1634.38671875 502.766601562 1584.24023438 c 1,43,44
 541.842773438 1577.72753906 541.842773438 1577.72753906 537.518554688 1535.88378906 c 1,45,46
 532.474609375 1504.03320312 532.474609375 1504.03320312 507.686523438 1490.75976562 c 0,47,48
 495.1796875 1485.02832031 495.1796875 1485.02832031 387.727539062 1452.24609375 c 0,49,50
 382.818359375 1450.7265625 382.818359375 1450.7265625 379.766601562 1449.75976562 c 0,51,52
 218.5 1400.359375 218.5 1400.359375 138.686523438 1374.3203125 c 0,53,54
 75.1181640625 1354.24609375 75.1181640625 1354.24609375 56.69140625 1360.02441406 c 1,55,56
 40.068359375 1367.6328125 40.068359375 1367.6328125 33.7265625 1384.16015625 c 0,57,58
 30.48828125 1392.38085938 30.48828125 1392.38085938 30.4462890625 1402.20019531 c 1,59,60
 -14.1142578125 1392.27441406 -14.1142578125 1392.27441406 -36.7939453125 1410.40039062 c 1,61,62
 -51.892578125 1430.70117188 -51.892578125 1430.70117188 -49.9140625 1484.20019531 c 0,63,64
 -49.103515625 1512.82226562 -49.103515625 1512.82226562 -44.9931640625 1521.91992188 c 0,65,66
 -24.0849609375 1555.25390625 -24.0849609375 1555.25390625 63.24609375 1569.48046875 c 1,67,-1
 63.24609375 1571.12011719 l 1,68,69
 23.2177734375 1573.99511719 23.2177734375 1573.99511719 18.966796875 1613.75976562 c 1,0,1
417.486328125 1836.79980469 m 0,70,71
 410.248046875 1837.34082031 410.248046875 1837.34082031 389.606445312 1828.59960938 c 0,72,73
 378.125976562 1825.3203125 378.125976562 1825.3203125 354.346679688 1817.94042969 c 0,74,75
 330.068359375 1810.44335938 330.068359375 1810.44335938 319.0859375 1807.28027344 c 0,76,77
 272.356445312 1793.17285156 272.356445312 1793.17285156 180.063476562 1763.13378906 c 0,78,79
 100.4921875 1737.26367188 100.4921875 1737.26367188 61.6064453125 1725.28027344 c 0,80,81
 8.93359375 1707.72265625 8.93359375 1707.72265625 -0.7138671875 1699.04003906 c 1,82,83
 -18.7216796875 1677.65039062 -18.7216796875 1677.65039062 4.2060546875 1666.24023438 c 0,84,85
 12.78515625 1662.51367188 12.78515625 1662.51367188 33.7265625 1671.16015625 c 0,86,87
 90.220703125 1689.8828125 90.220703125 1689.8828125 105.88671875 1694.12011719 c 0,88,89
 139.506835938 1703.95996094 139.506835938 1703.95996094 206.74609375 1725.28027344 c 0,90,91
 274.533203125 1746.734375 274.533203125 1746.734375 307.606445312 1756.44042969 c 0,92,93
 317.291992188 1759.38769531 317.291992188 1759.38769531 338.193359375 1764.91210938 c 0,94,95
 401.469726562 1782.15625 401.469726562 1782.15625 425.686523438 1797.44042969 c 0,96,97
 445.681640625 1810.1640625 445.681640625 1810.1640625 437.08984375 1826.65234375 c 1,98,99
 430.180664062 1835.26660156 430.180664062 1835.26660156 417.486328125 1836.79980469 c 0,70,71
425.686523438 1625.24023438 m 0,100,101
 409.876953125 1623.17773438 409.876953125 1623.17773438 318.348632812 1591.12304688 c 0,102,103
 311.870117188 1588.90136719 311.870117188 1588.90136719 307.606445312 1587.51953125 c 0,104,105
 156.1796875 1538.17675781 156.1796875 1538.17675781 81.2861328125 1515.36035156 c 0,106,107
 24.5078125 1498.47265625 24.5078125 1498.47265625 12.40625 1489.12011719 c 0,108,109
 -10.5439453125 1469.0390625 -10.5439453125 1469.0390625 9.646484375 1455.46972656 c 0,110,111
 12.638671875 1453.78027344 12.638671875 1453.78027344 14.046875 1453.04003906 c 0,112,113
 18.7421875 1452.09082031 18.7421875 1452.09082031 41.9267578125 1457.95996094 c 0,114,115
 54.2265625 1461.24023438 54.2265625 1461.24023438 78.826171875 1469.44042969 c 0,116,117
 103.97265625 1477.71777344 103.97265625 1477.71777344 115.7265625 1480.91992188 c 0,118,119
 150.986328125 1491.58007812 150.986328125 1491.58007812 221.506835938 1514.54003906 c 0,120,121
 292.573242188 1537.640625 292.573242188 1537.640625 327.286132812 1548.16015625 c 0,122,123
 335.67578125 1550.55664062 335.67578125 1550.55664062 354.5859375 1555.05175781 c 0,124,125
 418.127929688 1570.83300781 418.127929688 1570.83300781 440.446289062 1587.51953125 c 0,126,127
 460.057617188 1601.78222656 460.057617188 1601.78222656 444.26171875 1618.55761719 c 0,128,129
 435.836914062 1625.22460938 435.836914062 1625.22460938 425.686523438 1625.24023438 c 0,100,101
EndSplineSet
EndChar

StartChar: afii57452
Encoding: 1612 1612 312
AltUni2: 00fe72.ffffffff.0
Width: 157
VWidth: 1639
GlyphClass: 2
Flags: HW
AnchorPoint: "GposMark2BaseAnchorHamzaErabAbove_01_01" 221.521 1348.66 mark 0
AnchorPoint: "GposMark2BaseAnchorHamzaErabBelow_01_01" 221.521 1941.76 mark 0
AnchorPoint: "GposMark2BaseAnchorClassErabAbove_01_02" 221.521 1348.66 mark 0
AnchorPoint: "GposMark2MarkAnchorHamzaErabAbove_01_01" 221.521 1348.66 mark 0
AnchorPoint: "GposMark2MarkAnchorHamzaErabBelow_01_01" 221.521 1941.76 mark 0
AnchorPoint: "GposMark2MarkAnchorShaddaErabAbove_01_02" 221.521 1348.66 mark 0
AnchorPoint: "GposMark2MarkAnchorShaddaErabBelow_01_02" 221.521 1941.76 mark 0
LayerCount: 2
Fore
SplineSet
189.048828125 1625.24023438 m 1,0,1
 142.4609375 1739.18261719 142.4609375 1739.18261719 185.768554688 1830.24023438 c 1,2,3
 229.341796875 1913.75292969 229.341796875 1913.75292969 307.12890625 1936.83984375 c 0,4,5
 315.329101562 1938.48046875 315.329101562 1938.48046875 325.98828125 1940.12011719 c 128,-1,6
 336.6484375 1941.75976562 336.6484375 1941.75976562 340.749023438 1941.75976562 c 128,-1,7
 344.848632812 1941.75976562 344.848632812 1941.75976562 360.428710938 1941.75976562 c 2,8,-1
 376.008789062 1941.75976562 l 2,9,10
 440.336914062 1940.66308594 440.336914062 1940.66308594 477.688476562 1913.87988281 c 0,11,12
 509.229492188 1890.47558594 509.229492188 1890.47558594 520.329101562 1851.55957031 c 0,13,14
 521.784179688 1846.46582031 521.784179688 1846.46582031 522.109375 1835.05566406 c 0,15,16
 523.114257812 1820.71972656 523.114257812 1820.71972656 525.249023438 1815.48046875 c 0,17,18
 529.365234375 1807.24609375 529.365234375 1807.24609375 538.393554688 1793.30957031 c 0,19,20
 556.477539062 1763.52050781 556.477539062 1763.52050781 558.048828125 1743.3203125 c 0,21,22
 559.310546875 1657.2265625 559.310546875 1657.2265625 503.928710938 1590.79980469 c 0,23,24
 497.344726562 1582.22167969 497.344726562 1582.22167969 474.409179688 1559.63964844 c 1,25,26
 461.235351562 1549.6875 461.235351562 1549.6875 458.008789062 1544.87988281 c 128,-1,27
 454.728515625 1539.95996094 454.728515625 1539.95996094 471.586914062 1525.89453125 c 0,28,29
 472.768554688 1525.20019531 472.768554688 1525.20019531 474.409179688 1523.55957031 c 2,30,-1
 476.048828125 1521.91992188 l 1,31,32
 499.040039062 1496.37402344 499.040039062 1496.37402344 487.119140625 1469.79882812 c 0,33,34
 481.525390625 1460.87304688 481.525390625 1460.87304688 474.409179688 1456.3203125 c 0,35,36
 445.331054688 1442.0625 445.331054688 1442.0625 402.249023438 1462.87988281 c 1,37,38
 375.735351562 1478.21679688 375.735351562 1478.21679688 377.6484375 1477.63964844 c 1,39,40
 369.3515625 1476.79003906 369.3515625 1476.79003906 357.96875 1469.44042969 c 0,41,42
 350.588867188 1465.33984375 350.588867188 1465.33984375 335.829101562 1457.95996094 c 0,43,44
 320.522460938 1450.22167969 320.522460938 1450.22167969 313.688476562 1446.48046875 c 0,45,46
 171.120117188 1375.77148438 171.120117188 1375.77148438 84.0888671875 1361.20019531 c 0,47,48
 4.8466796875 1348.65917969 4.8466796875 1348.65917969 -1.19140625 1400.55957031 c 1,49,50
 -56.9833984375 1401.78417969 -56.9833984375 1401.78417969 -71.7109375 1415.3203125 c 0,51,52
 -79.0419921875 1423.69726562 -79.0419921875 1423.69726562 -81.259765625 1456.29492188 c 0,53,54
 -81.48046875 1458.79394531 -81.48046875 1458.79394531 -81.55078125 1459.59960938 c 0,55,56
 -84.1279296875 1526.60253906 -84.1279296875 1526.60253906 -40.9462890625 1538.86132812 c 0,57,58
 -33.7138671875 1540.66210938 -33.7138671875 1540.66210938 -27.431640625 1541.59960938 c 1,59,60
 -39.333984375 1559.98925781 -39.333984375 1559.98925781 -32.3515625 1582.59960938 c 1,61,62
 -41.72265625 1580.72558594 -41.72265625 1580.72558594 -60.4658203125 1581.26074219 c 0,63,64
 -75.0693359375 1581.48339844 -75.0693359375 1581.48339844 -81.55078125 1580.95996094 c 0,65,66
 -102.09375 1582.09667969 -102.09375 1582.09667969 -107.791015625 1585.87988281 c 0,67,68
 -116.268554688 1593.36425781 -116.268554688 1593.36425781 -115.991210938 1617.04003906 c 0,69,70
 -115.485351562 1623.62109375 -115.485351562 1623.62109375 -115.720703125 1636.36230469 c 0,71,72
 -115.4375 1664.65332031 -115.4375 1664.65332031 -109.431640625 1677.71972656 c 0,73,74
 -86.0625 1716.96875 -86.0625 1716.96875 -25.791015625 1733.48046875 c 1,75,76
 84.7158203125 1752.75878906 84.7158203125 1752.75878906 130.008789062 1715.44042969 c 1,77,78
 151.287109375 1694.83496094 151.287109375 1694.83496094 154.608398438 1662.95996094 c 1,79,80
 155.16796875 1640.09179688 155.16796875 1640.09179688 156.249023438 1636.71972656 c 0,81,82
 165.609375 1617.09960938 165.609375 1617.09960938 189.048828125 1625.24023438 c 1,0,1
372.728515625 1631.79980469 m 1,83,84
 407.959960938 1656.20703125 407.959960938 1656.20703125 436.688476562 1695.75976562 c 0,85,86
 477.247070312 1751.59179688 477.247070312 1751.59179688 476.048828125 1797.44042969 c 0,87,88
 474.413085938 1843.23339844 474.413085938 1843.23339844 421.923828125 1877.08984375 c 0,89,90
 394.7578125 1893.59960938 394.7578125 1893.59960938 371.088867188 1894.20019531 c 0,91,92
 304.545898438 1894.20019531 304.545898438 1894.20019531 249.956054688 1815.30859375 c 0,93,94
 236.2578125 1794.86914062 236.2578125 1794.86914062 228.409179688 1776.12011719 c 0,95,96
 215.7890625 1746.12988281 215.7890625 1746.12988281 215.2890625 1726.91992188 c 0,97,98
 216.587890625 1699.63671875 216.587890625 1699.63671875 254.3125 1647.43359375 c 0,99,100
 257.744140625 1642.61621094 257.744140625 1642.61621094 259.568359375 1640 c 1,101,-1
 248.088867188 1635.08007812 l 1,102,-1
 259.568359375 1617.04003906 l 1,103,-1
 248.088867188 1612.12011719 l 1,104,-1
 259.568359375 1594.08007812 l 1,105,-1
 202.168945312 1562.91992188 l 1,106,-1
 138.208984375 1533.40039062 l 1,107,-1
 141.48828125 1544.87988281 l 1,108,-1
 115.249023438 1533.40039062 l 1,109,-1
 118.528320312 1544.87988281 l 1,110,-1
 92.2890625 1533.40039062 l 1,111,-1
 102.12890625 1559.63964844 l 1,112,-1
 92.2890625 1556.36035156 l 1,113,-1
 102.12890625 1582.59960938 l 1,114,-1
 92.2890625 1579.3203125 l 1,115,116
 93.677734375 1583.95117188 93.677734375 1583.95117188 97.828125 1593.88867188 c 0,117,118
 108.0703125 1620.96777344 108.0703125 1620.96777344 105.409179688 1633.44042969 c 0,119,120
 90.52734375 1696.68457031 90.52734375 1696.68457031 22.0224609375 1685.984375 c 0,121,122
 -29.92578125 1676.57128906 -29.92578125 1676.57128906 -58.5908203125 1638.36035156 c 1,123,124
 -28.9072265625 1651.578125 -28.9072265625 1651.578125 36.5283203125 1651.48046875 c 1,125,126
 70.6123046875 1649.38574219 70.6123046875 1649.38574219 77.5283203125 1630.16015625 c 0,127,128
 79.5859375 1623.41796875 79.5859375 1623.41796875 79.1689453125 1603.91992188 c 0,129,130
 80.5478515625 1535.0546875 80.5478515625 1535.0546875 44.728515625 1510.44042969 c 0,131,132
 42.7060546875 1508.96875 42.7060546875 1508.96875 -1.6640625 1490.62988281 c 0,133,134
 -9.498046875 1487.07226562 -9.498046875 1487.07226562 -14.3115234375 1484.20019531 c 0,135,136
 -27.3681640625 1475.37109375 -27.3681640625 1475.37109375 -27.431640625 1466.16015625 c 1,137,138
 -23.095703125 1451.46289062 -23.095703125 1451.46289062 -1.19140625 1449.75976562 c 0,139,140
 13.0703125 1449.33496094 13.0703125 1449.33496094 75.888671875 1467.79980469 c 1,141,142
 129.9609375 1486.58398438 129.9609375 1486.58398438 226.768554688 1531.75976562 c 0,143,144
 233.329101562 1535.04003906 233.329101562 1535.04003906 248.209960938 1543.96875 c 0,145,146
 280.157226562 1562.59375 280.157226562 1562.59375 294.008789062 1566.20019531 c 0,147,148
 300.611328125 1567.14355469 300.611328125 1567.14355469 314.819335938 1564.70410156 c 0,149,150
 325.680664062 1563.08105469 325.680664062 1563.08105469 330.088867188 1562.91992188 c 0,151,152
 332.676757812 1562.91992188 332.676757812 1562.91992188 336.72265625 1564.41113281 c 0,153,154
 343.485351562 1565.44042969 343.485351562 1565.44042969 346.48828125 1564.55957031 c 0,155,156
 350.2109375 1563.1640625 350.2109375 1563.1640625 359.942382812 1556.64648438 c 0,157,158
 388.396484375 1537.58789062 388.396484375 1537.58789062 398.96875 1548.16015625 c 0,159,160
 410.7578125 1560.1015625 410.7578125 1560.1015625 372.728515625 1584.24023438 c 1,161,-1
 372.728515625 1585.87988281 l 1,162,-1
 385.848632812 1595.71972656 l 1,163,-1
 385.848632812 1597.36035156 l 1,164,-1
 372.728515625 1607.20019531 l 1,165,-1
 372.728515625 1608.83984375 l 1,166,-1
 385.848632812 1618.6796875 l 1,167,-1
 385.848632812 1620.3203125 l 1,168,-1
 372.728515625 1630.16015625 l 1,169,-1
 372.728515625 1631.79980469 l 1,83,84
315.329101562 1845 m 0,170,171
 373.782226562 1859.61328125 373.782226562 1859.61328125 409.952148438 1838.64941406 c 0,172,173
 414.515625 1835.57128906 414.515625 1835.57128906 417.008789062 1833.51953125 c 0,174,175
 430.291992188 1817.06542969 430.291992188 1817.06542969 430.12890625 1776.12011719 c 1,176,177
 432.959960938 1741.66210938 432.959960938 1741.66210938 428.48828125 1725.28027344 c 0,178,179
 417.129882812 1682.11621094 417.129882812 1682.11621094 375.071289062 1654.91894531 c 0,180,181
 362.982421875 1647.72753906 362.982421875 1647.72753906 353.048828125 1644.91992188 c 0,182,183
 349.646484375 1644.06933594 349.646484375 1644.06933594 343.9375 1645.83105469 c 0,184,185
 339.017578125 1647.34960938 339.017578125 1647.34960938 336.6484375 1646.55957031 c 0,186,187
 332.903320312 1646.55957031 332.903320312 1646.55957031 323.283203125 1645.5859375 c 0,188,189
 306.663085938 1643.90429688 306.663085938 1643.90429688 300.568359375 1644.91992188 c 0,190,191
 253.162109375 1658.53125 253.162109375 1658.53125 253.008789062 1746.59960938 c 0,192,193
 253.008789062 1819.41113281 253.008789062 1819.41113281 300.44140625 1840.47460938 c 0,194,195
 308.436523438 1843.58300781 308.436523438 1843.58300781 315.329101562 1845 c 0,170,171
369.44921875 1743.3203125 m 1,196,-1
 346.48828125 1717.08007812 l 1,197,-1
 369.44921875 1743.3203125 l 1,196,-1
EndSplineSet
EndChar

StartChar: afii57453
Encoding: 1613 1613 313
AltUni2: 00fe74.ffffffff.0
Width: 117
VWidth: 1639
GlyphClass: 2
Flags: HW
AnchorPoint: "GposMark2BaseAnchorClassErabBelow_01_02" 11.8433 -108.24 mark 0
LayerCount: 2
Fore
SplineSet
-204.033203125 -382.120117188 m 1,0,1
 -255.116210938 -382.120117188 -255.116210938 -382.120117188 -264.342773438 -377.337890625 c 0,2,3
 -267.885742188 -375.142578125 -267.885742188 -375.142578125 -269.633789062 -373.919921875 c 0,4,5
 -295.15625 -352.323242188 -295.15625 -352.323242188 -285.2109375 -283.122070312 c 0,6,7
 -283.955078125 -275.490234375 -283.955078125 -275.490234375 -282.75390625 -270.599609375 c 0,8,9
 -277.169921875 -258.836914062 -277.169921875 -258.836914062 -267.993164062 -249.280273438 c 1,10,11
 -257.40234375 -241.13671875 -257.40234375 -241.13671875 -226.993164062 -231.240234375 c 0,12,13
 -214.693359375 -227.139648438 -214.693359375 -227.139648438 -189.2734375 -218.940429688 c 0,14,15
 -163.352539062 -210.561523438 -163.352539062 -210.561523438 -151.553710938 -206.639648438 c 0,16,17
 29.4189453125 -147.481445312 29.4189453125 -147.481445312 120.686523438 -121.360351562 c 0,18,19
 161.2734375 -108.423828125 161.2734375 -108.423828125 205.966796875 -108.240234375 c 0,20,21
 235.872070312 -108.967773438 235.872070312 -108.967773438 248.606445312 -114.799804688 c 1,22,23
 272.61328125 -142.030273438 272.61328125 -142.030273438 269.926757812 -200.080078125 c 1,24,25
 301.827148438 -203.118164062 301.827148438 -203.118164062 304.424804688 -242.033203125 c 0,26,27
 305.826171875 -263.03515625 305.826171875 -263.03515625 294.526367188 -277.16015625 c 0,28,29
 289.606445312 -285.360351562 289.606445312 -285.360351562 282.2265625 -289.459960938 c 128,-1,30
 274.846679688 -293.559570312 274.846679688 -293.559570312 258.446289062 -298.48046875 c 2,31,-1
 242.046875 -303.400390625 l 2,32,33
 235.291015625 -305.2421875 235.291015625 -305.2421875 221.693359375 -309.876953125 c 0,34,35
 197.970703125 -317.677734375 197.970703125 -317.677734375 186.286132812 -319.799804688 c 1,36,-1
 186.286132812 -321.440429688 l 1,37,38
 244.583007812 -321.440429688 244.583007812 -321.440429688 255.999023438 -326.46484375 c 0,39,40
 270.669921875 -334.877929688 270.669921875 -334.877929688 276.486328125 -347.6796875 c 1,41,42
 280.833984375 -361.494140625 280.833984375 -361.494140625 279.766601562 -411.639648438 c 1,43,44
 318.842773438 -418.15234375 318.842773438 -418.15234375 314.518554688 -459.99609375 c 1,45,46
 309.474609375 -491.846679688 309.474609375 -491.846679688 284.686523438 -505.120117188 c 0,47,48
 272.1796875 -510.852539062 272.1796875 -510.852539062 164.727539062 -543.634765625 c 0,49,50
 159.818359375 -545.153320312 159.818359375 -545.153320312 156.766601562 -546.120117188 c 0,51,52
 -4.5 -595.520507812 -4.5 -595.520507812 -84.3134765625 -621.559570312 c 0,53,54
 -147.881835938 -641.633789062 -147.881835938 -641.633789062 -166.30859375 -635.85546875 c 1,55,56
 -182.931640625 -628.247070312 -182.931640625 -628.247070312 -189.2734375 -611.719726562 c 0,57,58
 -192.51171875 -603.499023438 -192.51171875 -603.499023438 -192.553710938 -593.6796875 c 1,59,60
 -237.114257812 -603.60546875 -237.114257812 -603.60546875 -259.793945312 -585.48046875 c 1,61,62
 -274.892578125 -565.178710938 -274.892578125 -565.178710938 -272.9140625 -511.6796875 c 0,63,64
 -272.103515625 -483.057617188 -272.103515625 -483.057617188 -267.993164062 -473.959960938 c 0,65,66
 -247.084960938 -440.625976562 -247.084960938 -440.625976562 -159.75390625 -426.400390625 c 1,67,-1
 -159.75390625 -424.759765625 l 1,68,69
 -199.782226562 -421.885742188 -199.782226562 -421.885742188 -204.033203125 -382.120117188 c 1,0,1
194.486328125 -159.080078125 m 0,70,71
 187.248046875 -158.5390625 187.248046875 -158.5390625 166.606445312 -167.280273438 c 0,72,73
 155.125976562 -170.559570312 155.125976562 -170.559570312 131.346679688 -177.940429688 c 0,74,75
 107.068359375 -185.4375 107.068359375 -185.4375 96.0859375 -188.599609375 c 0,76,77
 49.3564453125 -202.70703125 49.3564453125 -202.70703125 -42.9365234375 -232.74609375 c 0,78,79
 -122.5078125 -258.616210938 -122.5078125 -258.616210938 -161.393554688 -270.599609375 c 0,80,81
 -214.06640625 -288.157226562 -214.06640625 -288.157226562 -223.713867188 -296.83984375 c 1,82,83
 -241.721679688 -318.229492188 -241.721679688 -318.229492188 -218.793945312 -329.639648438 c 0,84,85
 -210.21484375 -333.366210938 -210.21484375 -333.366210938 -189.2734375 -324.719726562 c 0,86,87
 -132.779296875 -305.997070312 -132.779296875 -305.997070312 -117.11328125 -301.759765625 c 0,88,89
 -83.4931640625 -291.919921875 -83.4931640625 -291.919921875 -16.25390625 -270.599609375 c 0,90,91
 51.533203125 -249.146484375 51.533203125 -249.146484375 84.6064453125 -239.440429688 c 0,92,93
 94.2919921875 -236.4921875 94.2919921875 -236.4921875 115.193359375 -230.967773438 c 0,94,95
 178.469726562 -213.724609375 178.469726562 -213.724609375 202.686523438 -198.440429688 c 0,96,97
 222.681640625 -185.715820312 222.681640625 -185.715820312 214.08984375 -169.227539062 c 1,98,99
 207.180664062 -160.61328125 207.180664062 -160.61328125 194.486328125 -159.080078125 c 0,70,71
202.686523438 -370.639648438 m 0,100,101
 186.876953125 -372.702148438 186.876953125 -372.702148438 95.3486328125 -404.756835938 c 0,102,103
 88.8701171875 -406.978515625 88.8701171875 -406.978515625 84.6064453125 -408.360351562 c 0,104,105
 -66.8203125 -457.703125 -66.8203125 -457.703125 -141.713867188 -480.51953125 c 0,106,107
 -198.4921875 -497.407226562 -198.4921875 -497.407226562 -210.59375 -506.759765625 c 0,108,109
 -233.543945312 -526.841796875 -233.543945312 -526.841796875 -213.353515625 -540.41015625 c 0,110,111
 -210.361328125 -542.099609375 -210.361328125 -542.099609375 -208.953125 -542.83984375 c 0,112,113
 -204.2578125 -543.7890625 -204.2578125 -543.7890625 -181.073242188 -537.919921875 c 0,114,115
 -168.7734375 -534.639648438 -168.7734375 -534.639648438 -144.173828125 -526.440429688 c 0,116,117
 -119.02734375 -518.162109375 -119.02734375 -518.162109375 -107.2734375 -514.959960938 c 0,118,119
 -72.013671875 -504.299804688 -72.013671875 -504.299804688 -1.4931640625 -481.33984375 c 0,120,121
 69.5732421875 -458.239257812 69.5732421875 -458.239257812 104.286132812 -447.719726562 c 0,122,123
 112.67578125 -445.323242188 112.67578125 -445.323242188 131.5859375 -440.828125 c 0,124,125
 195.127929688 -425.046875 195.127929688 -425.046875 217.446289062 -408.360351562 c 0,126,127
 237.057617188 -394.09765625 237.057617188 -394.09765625 221.26171875 -377.322265625 c 0,128,129
 212.836914062 -370.655273438 212.836914062 -370.655273438 202.686523438 -370.639648438 c 0,100,101
EndSplineSet
EndChar

StartChar: afii57454
Encoding: 1614 1614 314
AltUni2: 00fe76.ffffffff.0
Width: 118
VWidth: 1639
GlyphClass: 2
Flags: HW
AnchorPoint: "GposMark2BaseAnchorHamzaErabAbove_01_01" 206.468 1356.68 mark 0
AnchorPoint: "GposMark2BaseAnchorHamzaErabBelow_01_01" 206.468 1674.44 mark 0
AnchorPoint: "GposMark2BaseAnchorClassErabAbove_01_02" 206.468 1356.68 mark 0
AnchorPoint: "GposMark2MarkAnchorHamzaErabAbove_01_01" 206.468 1356.68 mark 0
AnchorPoint: "GposMark2MarkAnchorHamzaErabBelow_01_01" 206.468 1674.44 mark 0
AnchorPoint: "GposMark2MarkAnchorShaddaErabAbove_01_02" 206.468 1356.68 mark 0
AnchorPoint: "GposMark2MarkAnchorShaddaErabBelow_01_02" 206.468 1674.44 mark 0
LayerCount: 2
Fore
SplineSet
-12.6396484375 1402.20019531 m 1,0,1
 -59.0625 1391.89550781 -59.0625 1391.89550781 -81.5205078125 1412.04003906 c 1,2,3
 -92.97265625 1426.83105469 -92.97265625 1426.83105469 -93 1459.59960938 c 0,4,5
 -93 1513.54980469 -93 1513.54980469 -81.830078125 1528.24707031 c 0,6,7
 -73.54296875 1537.51757812 -73.54296875 1537.51757812 -63.48046875 1543.24023438 c 0,8,9
 -52.8369140625 1548.078125 -52.8369140625 1548.078125 -30.51171875 1554.29980469 c 0,10,11
 -14.6201171875 1558.85449219 -14.6201171875 1558.85449219 -7.7197265625 1561.28027344 c 0,12,13
 50.7900390625 1580.72167969 50.7900390625 1580.72167969 123.479492188 1602.28027344 c 0,14,15
 142.09375 1608.484375 142.09375 1608.484375 179.928710938 1622.11523438 c 0,16,17
 325.16796875 1674.44042969 325.16796875 1674.44042969 399 1674.44042969 c 2,18,-1
 423.599609375 1674.44042969 l 1,19,20
 436.719726562 1670.06640625 436.719726562 1670.06640625 440 1667.87988281 c 0,21,22
 460.903320312 1656.93066406 460.903320312 1656.93066406 458.974609375 1619.76269531 c 0,23,24
 458.619140625 1597.91210938 458.619140625 1597.91210938 462.959960938 1587.51953125 c 0,25,26
 465.1875 1585.14746094 465.1875 1585.14746094 484.280273438 1572.75976562 c 1,27,28
 505.936523438 1551.10351562 505.936523438 1551.10351562 492.573242188 1517.95019531 c 0,29,30
 489.85546875 1512.29589844 489.85546875 1512.29589844 487.559570312 1508.79980469 c 0,31,32
 471.4140625 1484.58105469 471.4140625 1484.58105469 385.290039062 1465.06542969 c 0,33,34
 379.305664062 1463.67773438 379.305664062 1463.67773438 376.040039062 1462.87988281 c 0,35,36
 328.479492188 1448.94042969 328.479492188 1448.94042969 234.1796875 1417.78027344 c 0,37,38
 139.321289062 1386.49609375 139.321289062 1386.49609375 92.3203125 1372.6796875 c 0,39,40
 34.712890625 1356.67773438 34.712890625 1356.67773438 20.76171875 1358.79101562 c 0,41,42
 -0.5068359375 1364.24414062 -0.5068359375 1364.24414062 -9.3603515625 1382.51953125 c 1,43,44
 -12.400390625 1396.18652344 -12.400390625 1396.18652344 -12.6396484375 1402.20019531 c 1,0,1
384.240234375 1625.24023438 m 0,45,46
 377.149414062 1624.22753906 377.149414062 1624.22753906 361.865234375 1618.50292969 c 0,47,48
 352.072265625 1614.95898438 352.072265625 1614.95898438 348.16015625 1613.75976562 c 0,49,50
 335.860351562 1609.66015625 335.860351562 1609.66015625 312.080078125 1602.28027344 c 0,51,52
 287.706054688 1594.67871094 287.706054688 1594.67871094 276 1590.79980469 c 0,53,54
 91.685546875 1533.16796875 91.685546875 1533.16796875 38.2001953125 1515.36035156 c 0,55,56
 31.4921875 1512.96386719 31.4921875 1512.96386719 16.845703125 1508.98242188 c 0,57,58
 -19.6123046875 1498.28417969 -19.6123046875 1498.28417969 -32.3203125 1487.48046875 c 0,59,60
 -51.966796875 1467.83300781 -51.966796875 1467.83300781 -31.6435546875 1455.16894531 c 0,61,62
 -28.7197265625 1453.67089844 -28.7197265625 1453.67089844 -27.400390625 1453.04003906 c 0,63,64
 -17.6298828125 1450.77148438 -17.6298828125 1450.77148438 3.759765625 1459.59960938 c 0,65,66
 16.0595703125 1463.70019531 16.0595703125 1463.70019531 41.4794921875 1471.08007812 c 0,67,68
 67.4013671875 1478.671875 67.4013671875 1478.671875 79.2001953125 1482.55957031 c 0,69,70
 199.544921875 1521.70410156 199.544921875 1521.70410156 292.400390625 1549.79980469 c 0,71,72
 300.774414062 1552.3125 300.774414062 1552.3125 319.0390625 1556.96875 c 0,73,74
 375.064453125 1571.83984375 375.064453125 1571.83984375 395.719726562 1585.87988281 c 0,75,76
 416.966796875 1601.33203125 416.966796875 1601.33203125 402.887695312 1617.95117188 c 1,77,78
 395.075195312 1624.58496094 395.075195312 1624.58496094 384.240234375 1625.24023438 c 0,45,46
EndSplineSet
EndChar

StartChar: afii57455
Encoding: 1615 1615 315
AltUni2: 00fe78.ffffffff.0
Width: 134
VWidth: 1639
GlyphClass: 2
Flags: HW
AnchorPoint: "GposMark2BaseAnchorHamzaErabAbove_01_01" 168.842 1348.36 mark 0
AnchorPoint: "GposMark2BaseAnchorHamzaErabBelow_01_01" 168.842 1941.92 mark 0
AnchorPoint: "GposMark2BaseAnchorClassErabAbove_01_02" 168.842 1348.36 mark 0
AnchorPoint: "GposMark2MarkAnchorHamzaErabAbove_01_01" 168.842 1348.36 mark 0
AnchorPoint: "GposMark2MarkAnchorHamzaErabBelow_01_01" 168.842 1941.92 mark 0
AnchorPoint: "GposMark2MarkAnchorShaddaErabAbove_01_02" 168.842 1348.36 mark 0
AnchorPoint: "GposMark2MarkAnchorShaddaErabBelow_01_02" 168.842 1941.92 mark 0
LayerCount: 2
Fore
SplineSet
124.916015625 1625.24023438 m 1,0,1
 76.134765625 1746.36914062 76.134765625 1746.36914062 126.556640625 1840.08007812 c 1,2,3
 170.908203125 1916.67089844 170.908203125 1916.67089844 244.63671875 1936.83984375 c 0,4,5
 264.084960938 1941.91503906 264.084960938 1941.91503906 311.875976562 1941.75976562 c 0,6,7
 378.215820312 1940.60351562 378.215820312 1940.60351562 415.196289062 1912.24023438 c 0,8,9
 448.084960938 1885.94433594 448.084960938 1885.94433594 456.196289062 1849.91992188 c 0,10,11
 457.657226562 1845.53613281 457.657226562 1845.53613281 457.979492188 1834.70898438 c 0,12,13
 458.998046875 1820.6953125 458.998046875 1820.6953125 461.116210938 1815.48046875 c 0,14,15
 464.965820312 1807.78125 464.965820312 1807.78125 473.396484375 1794.26171875 c 0,16,17
 492.319335938 1762.04296875 492.319335938 1762.04296875 493.916015625 1740.04003906 c 0,18,19
 495.264648438 1659.90527344 495.264648438 1659.90527344 444.716796875 1595.71972656 c 0,20,21
 433.279296875 1582.64941406 433.279296875 1582.64941406 411.916015625 1561.28027344 c 0,22,23
 410.150390625 1559.51464844 410.150390625 1559.51464844 405.248046875 1555.90722656 c 0,24,25
 396.288085938 1548.3203125 396.288085938 1548.3203125 393.875976562 1544.87988281 c 0,26,27
 392.236328125 1541.59960938 392.236328125 1541.59960938 395.516601562 1537.5 c 128,-1,28
 398.795898438 1533.40039062 398.795898438 1533.40039062 405.356445312 1527.66015625 c 2,29,-1
 411.916015625 1521.91992188 l 1,30,31
 437.1953125 1491.0234375 437.1953125 1491.0234375 420.26953125 1465.29980469 c 0,32,33
 414.55078125 1458.51855469 414.55078125 1458.51855469 408.63671875 1454.6796875 c 0,34,35
 379.259765625 1440.37402344 379.259765625 1440.37402344 336.4765625 1464.51953125 c 0,36,37
 334.086914062 1465.71484375 334.086914062 1465.71484375 328.735351562 1469.50683594 c 0,38,39
 318.1640625 1476.23046875 318.1640625 1476.23046875 313.516601562 1477.63964844 c 1,40,41
 305.21875 1476.79003906 305.21875 1476.79003906 293.8359375 1469.44042969 c 0,42,43
 286.456054688 1466.16015625 286.456054688 1466.16015625 272.516601562 1458.78027344 c 0,44,45
 257.953125 1451.20410156 257.953125 1451.20410156 251.196289062 1448.12011719 c 0,46,47
 108.559570312 1383.00292969 108.559570312 1383.00292969 64.54296875 1370.93945312 c 0,48,49
 40.9072265625 1364.64746094 40.9072265625 1364.64746094 19.9560546875 1361.20019531 c 0,50,51
 -61.2509765625 1348.35839844 -61.2509765625 1348.35839844 -65.3232421875 1400.55957031 c 1,52,53
 -117.61328125 1401.51367188 -117.61328125 1401.51367188 -130.923828125 1410.40039062 c 1,54,55
 -141.560546875 1422.46484375 -141.560546875 1422.46484375 -144.043945312 1431.71972656 c 0,56,57
 -157.580078125 1479.09667969 -157.580078125 1479.09667969 -140.35546875 1514.33105469 c 0,58,59
 -136.201171875 1521.37402344 -136.201171875 1521.37402344 -132.563476562 1525.20019531 c 0,60,61
 -119.9375 1536.85449219 -119.9375 1536.85449219 -60.486328125 1551.5703125 c 0,62,63
 -50.2158203125 1554.26367188 -50.2158203125 1554.26367188 -44.00390625 1556.36035156 c 0,64,65
 31.9833984375 1582.93066406 31.9833984375 1582.93066406 69.15625 1599 c 0,66,67
 75.486328125 1601.87695312 75.486328125 1601.87695312 88.2158203125 1608.88183594 c 0,68,69
 112.770507812 1621.90039062 112.770507812 1621.90039062 124.916015625 1625.24023438 c 1,0,1
306.956054688 1630.16015625 m 1,70,71
 345.068359375 1657.34179688 345.068359375 1657.34179688 374.196289062 1699.04003906 c 0,72,73
 411.084960938 1754.34375 411.084960938 1754.34375 411.916015625 1795.79980469 c 0,74,75
 411.916015625 1841.48535156 411.916015625 1841.48535156 358.198242188 1876.60644531 c 0,76,77
 330.672851562 1893.58398438 330.672851562 1893.58398438 306.956054688 1894.20019531 c 0,78,79
 237.625976562 1894.20019531 237.625976562 1894.20019531 180.833007812 1805.90527344 c 0,80,81
 173.077148438 1793.50390625 173.077148438 1793.50390625 167.556640625 1782.6796875 c 0,82,83
 151.745117188 1749.5 151.745117188 1749.5 151.15625 1726.91992188 c 1,84,85
 153.953125 1691.94140625 153.953125 1691.94140625 195.436523438 1640 c 1,86,-1
 182.31640625 1633.44042969 l 1,87,-1
 195.436523438 1617.04003906 l 1,88,-1
 182.31640625 1610.48046875 l 1,89,-1
 195.436523438 1594.08007812 l 1,90,91
 189.255859375 1591.80761719 189.255859375 1591.80761719 162.63671875 1576.04003906 c 1,92,93
 109.522460938 1549.63085938 109.522460938 1549.63085938 82.2763671875 1538.3203125 c 0,94,95
 59.2763671875 1529.42089844 59.2763671875 1529.42089844 -60.4033203125 1492.40039062 c 0,96,97
 -95.193359375 1480.80371094 -95.193359375 1480.80371094 -93.380859375 1467.42675781 c 0,98,99
 -92.23828125 1464.31542969 -92.23828125 1464.31542969 -91.5634765625 1462.87988281 c 0,100,101
 -75.998046875 1440.23925781 -75.998046875 1440.23925781 -8.4892578125 1461.23046875 c 0,102,103
 -4.67578125 1462.38476562 -4.67578125 1462.38476562 -3.00390625 1462.87988281 c 0,104,105
 76.3251953125 1489.58203125 76.3251953125 1489.58203125 141.31640625 1521.91992188 c 0,106,107
 149.649414062 1526.33203125 149.649414062 1526.33203125 166.711914062 1536.38769531 c 0,108,109
 208.091796875 1560.27441406 208.091796875 1560.27441406 228.236328125 1566.20019531 c 0,110,111
 234.879882812 1567.14941406 234.879882812 1567.14941406 250.189453125 1564.68164062 c 0,112,113
 261.518554688 1563.07421875 261.518554688 1563.07421875 265.956054688 1562.91992188 c 0,114,115
 268.543945312 1562.91992188 268.543945312 1562.91992188 272.590820312 1564.41113281 c 0,116,117
 279.352539062 1565.44042969 279.352539062 1565.44042969 282.356445312 1564.55957031 c 0,118,119
 286.284179688 1563.08691406 286.284179688 1563.08691406 296.30078125 1556.34667969 c 0,120,121
 322.854492188 1538.4765625 322.854492188 1538.4765625 333.196289062 1546.51953125 c 1,122,123
 344.71484375 1562.61523438 344.71484375 1562.61523438 306.956054688 1584.24023438 c 1,124,-1
 321.716796875 1595.71972656 l 1,125,-1
 321.716796875 1597.36035156 l 1,126,-1
 306.956054688 1607.20019531 l 1,127,-1
 321.716796875 1618.6796875 l 1,128,-1
 321.716796875 1620.3203125 l 1,129,-1
 306.956054688 1630.16015625 l 1,70,71
251.196289062 1845 m 0,130,131
 312.6484375 1859.45898438 312.6484375 1859.45898438 346.708007812 1837.00878906 c 0,132,133
 351.3203125 1833.96875 351.3203125 1833.96875 354.516601562 1830.24023438 c 0,134,135
 357.795898438 1826.95996094 357.795898438 1826.95996094 359.436523438 1823.6796875 c 128,-1,136
 361.076171875 1820.40039062 361.076171875 1820.40039062 362.716796875 1815.48046875 c 128,-1,137
 364.356445312 1810.55957031 364.356445312 1810.55957031 365.176757812 1808.09960938 c 128,-1,138
 365.99609375 1805.63964844 365.99609375 1805.63964844 365.99609375 1799.90039062 c 128,-1,139
 365.99609375 1794.16015625 365.99609375 1794.16015625 365.99609375 1792.51953125 c 128,-1,140
 365.99609375 1790.87988281 365.99609375 1790.87988281 365.99609375 1783.5 c 2,141,-1
 365.99609375 1776.12011719 l 2,142,143
 365.53125 1731.31347656 365.53125 1731.31347656 364.356445312 1726.91992188 c 0,144,145
 357.639648438 1700.72265625 357.639648438 1700.72265625 326.63671875 1669.51953125 c 0,146,147
 303.237304688 1647.70214844 303.237304688 1647.70214844 287.276367188 1644.91992188 c 0,148,149
 285.32421875 1644.92578125 285.32421875 1644.92578125 272.516601562 1646.55957031 c 1,150,151
 223.921875 1645.53613281 223.921875 1645.53613281 205.276367188 1669.51953125 c 0,152,153
 188.896484375 1690.93847656 188.896484375 1690.93847656 188.875976562 1733.48046875 c 0,154,155
 191.234375 1832.24609375 191.234375 1832.24609375 251.196289062 1845 c 0,130,131
303.676757812 1741.6796875 m 1,156,-1
 285.63671875 1722 l 1,157,-1
 303.676757812 1741.6796875 l 1,156,-1
EndSplineSet
EndChar

StartChar: afii57456
Encoding: 1616 1616 316
AltUni2: 00fe7a.ffffffff.0
Width: 116
VWidth: 1639
GlyphClass: 2
Flags: HW
AnchorPoint: "GposMark2BaseAnchorClassErabBelow_01_02" 17.9155 -107.931 mark 0
LayerCount: 2
Fore
SplineSet
-201.639648438 -382.120117188 m 1,0,1
 -253.228515625 -382.120117188 -253.228515625 -382.120117188 -264.077148438 -375.634765625 c 0,2,3
 -268.272460938 -372.609375 -268.272460938 -372.609375 -270.520507812 -370.639648438 c 0,4,5
 -281.97265625 -355.849609375 -281.97265625 -355.849609375 -282 -323.080078125 c 0,6,7
 -282 -266.65234375 -282 -266.65234375 -266.413085938 -250.458984375 c 0,8,9
 -257.6484375 -242.55078125 -257.6484375 -242.55078125 -247.559570312 -237.799804688 c 0,10,11
 -211.7578125 -223.341796875 -211.7578125 -223.341796875 -16.1181640625 -164.284179688 c 0,12,13
 2.1591796875 -158.736328125 2.1591796875 -158.736328125 16.4794921875 -154.16015625 c 0,14,15
 32.6484375 -149.142578125 32.6484375 -149.142578125 65.48828125 -137.166015625 c 0,16,17
 130.514648438 -113.772460938 130.514648438 -113.772460938 162.440429688 -108.240234375 c 0,18,19
 166.8125 -107.930664062 166.8125 -107.930664062 210 -108.240234375 c 0,20,21
 226.946289062 -108.546875 226.946289062 -108.546875 234.599609375 -109.879882812 c 0,22,23
 243.958984375 -110.814453125 243.958984375 -110.814453125 251 -114.799804688 c 0,24,25
 272.478515625 -126.05078125 272.478515625 -126.05078125 270.698242188 -162.91796875 c 0,26,27
 270.309570312 -185.122070312 270.309570312 -185.122070312 273.959960938 -195.16015625 c 0,28,29
 276.1875 -197.533203125 276.1875 -197.533203125 295.280273438 -209.919921875 c 1,30,31
 317.831054688 -234.9765625 317.831054688 -234.9765625 302.791015625 -268.194335938 c 0,32,33
 300.328125 -272.823242188 300.328125 -272.823242188 298.559570312 -275.51953125 c 0,34,35
 283.39453125 -296.518554688 283.39453125 -296.518554688 209.897460938 -314.912109375 c 0,36,37
 194.782226562 -318.831054688 194.782226562 -318.831054688 187.040039062 -321.440429688 c 0,38,39
 146.4453125 -334.512695312 146.4453125 -334.512695312 64.009765625 -359.532226562 c 0,40,41
 -50.8740234375 -394.455078125 -50.8740234375 -394.455078125 -106.520507812 -413.280273438 c 1,42,43
 -185.984375 -436.45703125 -185.984375 -436.45703125 -199.026367188 -394.696289062 c 0,44,45
 -200.80859375 -387.950195312 -200.80859375 -387.950195312 -201.639648438 -382.120117188 c 1,0,1
195.240234375 -157.440429688 m 0,46,47
 188.79296875 -158.784179688 188.79296875 -158.784179688 164.080078125 -167.280273438 c 0,48,49
 107.584960938 -186.002929688 107.584960938 -186.002929688 91.919921875 -190.240234375 c 0,50,51
 9.927734375 -215.373046875 9.927734375 -215.373046875 -149.16015625 -267.3203125 c 0,52,53
 -155.868164062 -269.715820312 -155.868164062 -269.715820312 -170.513671875 -273.697265625 c 0,54,55
 -206.97265625 -284.395507812 -206.97265625 -284.395507812 -219.6796875 -295.200195312 c 0,56,57
 -240.500976562 -316.020507812 -240.500976562 -316.020507812 -220.985351562 -327.510742188 c 0,58,59
 -217.907226562 -328.985351562 -217.907226562 -328.985351562 -216.400390625 -329.639648438 c 0,60,61
 -206.559570312 -332.919921875 -206.559570312 -332.919921875 -185.501953125 -323.84765625 c 2,62,-1
 -183.599609375 -323.080078125 l 2,63,64
 -171.299804688 -318.98046875 -171.299804688 -318.98046875 -146.700195312 -311.599609375 c 0,65,66
 -121.553710938 -304.00390625 -121.553710938 -304.00390625 -109.799804688 -300.120117188 c 0,67,68
 -63.7392578125 -284.416992188 -63.7392578125 -284.416992188 29.5341796875 -255.7421875 c 0,69,70
 82.755859375 -239.362304688 82.755859375 -239.362304688 108.3203125 -231.240234375 c 0,71,72
 117.666992188 -228.124023438 117.666992188 -228.124023438 138.981445312 -222.799804688 c 0,73,74
 187.264648438 -210.168945312 187.264648438 -210.168945312 205.080078125 -198.440429688 c 0,75,76
 218.159179688 -189.803710938 218.159179688 -189.803710938 219.83984375 -180.400390625 c 0,77,78
 221.899414062 -165.985351562 221.899414062 -165.985351562 201.734375 -158.725585938 c 0,79,80
 197.563476562 -157.69140625 197.563476562 -157.69140625 195.240234375 -157.440429688 c 0,46,47
EndSplineSet
EndChar

StartChar: afii57457
Encoding: 1617 1617 317
AltUni2: 00fe7c.ffffffff.0
Width: 169
VWidth: 1639
GlyphClass: 2
Flags: HW
AnchorPoint: "GposMark2BaseAnchorHamzaErabAbove_01_01" 243.575 1352.04 mark 0
AnchorPoint: "GposMark2BaseAnchorHamzaErabBelow_01_01" 243.575 1806.3 mark 0
AnchorPoint: "GposMark2BaseAnchorClassErabAbove_01_02" 243.575 1352.04 mark 0
AnchorPoint: "GposMark2MarkAnchorHamzaErabAbove_01_01" 243.575 1352.04 mark 0
AnchorPoint: "GposMark2MarkAnchorHamzaErabBelow_01_01" 243.575 1806.3 mark 0
AnchorPoint: "GposMark2MarkAnchorShaddaErabAbove_01_02" 243.575 1956.3 basemark 0
AnchorPoint: "GposMark2MarkAnchorShaddaErabBelow_01_02" 243.575 1202.04 basemark 0
LayerCount: 2
Fore
SplineSet
118.526367188 1587.51953125 m 1,0,1
 158.767578125 1621.30761719 158.767578125 1621.30761719 171.006835938 1692.48046875 c 1,2,3
 181.274414062 1736.97363281 181.274414062 1736.97363281 184.176757812 1741.53515625 c 0,4,5
 192.365234375 1751.58007812 192.365234375 1751.58007812 202.166992188 1754.79980469 c 0,6,7
 245.9453125 1766.73925781 245.9453125 1766.73925781 274.0703125 1752.17675781 c 0,8,9
 279.877929688 1748.14453125 279.877929688 1748.14453125 282.526367188 1744.95996094 c 0,10,11
 287.278320312 1737.23828125 287.278320312 1737.23828125 290.129882812 1695.11328125 c 0,12,13
 291.759765625 1680.88378906 291.759765625 1680.88378906 295.646484375 1672.79980469 c 0,14,15
 296.24609375 1670.40136719 296.24609375 1670.40136719 308.609375 1663.7734375 c 0,16,17
 311.20703125 1661.91796875 311.20703125 1661.91796875 312.046875 1661.3203125 c 0,18,19
 318.672851562 1655.640625 318.672851562 1655.640625 322.53125 1628.80273438 c 0,20,21
 323.1796875 1625.25390625 323.1796875 1625.25390625 323.526367188 1623.59960938 c 0,22,23
 325.986328125 1616.21972656 325.986328125 1616.21972656 333.3671875 1618.6796875 c 0,24,25
 351.5078125 1625.54296875 351.5078125 1625.54296875 361.247070312 1667.87988281 c 1,26,27
 363.6875 1687.35839844 363.6875 1687.35839844 361.247070312 1761.36035156 c 1,28,29
 362.962890625 1793.42871094 362.962890625 1793.42871094 379.287109375 1802.36035156 c 0,30,31
 387.61328125 1806.29785156 387.61328125 1806.29785156 420.287109375 1805.63964844 c 0,32,33
 450.40625 1805.20410156 450.40625 1805.20410156 454.7265625 1804 c 0,34,35
 477.651367188 1794.17480469 477.651367188 1794.17480469 482.862304688 1749.30664062 c 0,36,37
 485.783203125 1727.69921875 485.783203125 1727.69921875 489.166992188 1718.71972656 c 0,38,39
 491.506835938 1712.48046875 491.506835938 1712.48046875 500.74609375 1702.10449219 c 0,40,41
 511.004882812 1689.4609375 511.004882812 1689.4609375 513.766601562 1682.63964844 c 0,42,43
 545.723632812 1582.77636719 545.723632812 1582.77636719 505.250976562 1489.55957031 c 0,44,45
 486.040039062 1447.69335938 486.040039062 1447.69335938 456.3671875 1423.51953125 c 0,46,47
 408.016601562 1384.37988281 408.016601562 1384.37988281 345.608398438 1399.69921875 c 0,48,49
 333.962890625 1402.93359375 333.962890625 1402.93359375 325.166992188 1407.12011719 c 0,50,51
 320.594726562 1409.15234375 320.594726562 1409.15234375 297.404296875 1430.20605469 c 0,52,53
 292.212890625 1434.484375 292.212890625 1434.484375 289.086914062 1436.63964844 c 0,54,55
 283.4609375 1439.92285156 283.4609375 1439.92285156 264.486328125 1443.20019531 c 1,56,57
 238.315429688 1379.40820312 238.315429688 1379.40820312 166.84375 1361.34179688 c 0,58,59
 126.201171875 1352.04394531 126.201171875 1352.04394531 90.646484375 1364.48046875 c 0,60,61
 81.4560546875 1367.54296875 81.4560546875 1367.54296875 57.8115234375 1389.95605469 c 0,62,63
 50.91015625 1395.92675781 50.91015625 1395.92675781 46.3671875 1398.91992188 c 0,64,65
 39.7431640625 1403.05957031 39.7431640625 1403.05957031 22.9560546875 1405.515625 c 0,66,67
 5.765625 1408.59960938 5.765625 1408.59960938 -1.193359375 1412.04003906 c 0,68,69
 -45.080078125 1436.73144531 -45.080078125 1436.73144531 -52.033203125 1515.36035156 c 1,70,71
 -58.57421875 1647.75195312 -58.57421875 1647.75195312 -20.873046875 1700.6796875 c 0,72,73
 -7.7900390625 1719.57714844 -7.7900390625 1719.57714844 39.5302734375 1715.71386719 c 0,74,75
 42.193359375 1715.50878906 42.193359375 1715.50878906 43.0869140625 1715.44042969 c 0,76,77
 72.880859375 1713.53710938 72.880859375 1713.53710938 79.1669921875 1703.95996094 c 1,78,79
 86.427734375 1686.46679688 86.427734375 1686.46679688 84.0869140625 1628.51953125 c 1,80,81
 117.458007812 1625.60742188 117.458007812 1625.60742188 118.526367188 1587.51953125 c 1,0,1
418.646484375 1751.51953125 m 1,82,83
 409.256835938 1738.65234375 409.256835938 1738.65234375 410.446289062 1703.95996094 c 0,84,85
 410.446289062 1619.1171875 410.446289062 1619.1171875 400.040039062 1596.02148438 c 1,86,87
 387.657226562 1573.02734375 387.657226562 1573.02734375 367.806640625 1566.20019531 c 0,88,89
 359.717773438 1564.04589844 359.717773438 1564.04589844 316.966796875 1564.55957031 c 0,90,91
 276.466796875 1566.48828125 276.466796875 1566.48828125 259.56640625 1594.08007812 c 0,92,93
 246.399414062 1618.125 246.399414062 1618.125 243.166992188 1661.3203125 c 0,94,95
 239.184570312 1693.18164062 239.184570312 1693.18164062 237.927734375 1695.25878906 c 0,96,97
 235.0234375 1698.91015625 235.0234375 1698.91015625 233.327148438 1700.6796875 c 1,98,99
 230.046875 1695.75976562 230.046875 1695.75976562 227.586914062 1690.83984375 c 128,-1,100
 225.126953125 1685.91992188 225.126953125 1685.91992188 223.486328125 1678.54003906 c 128,-1,101
 221.846679688 1671.16015625 221.846679688 1671.16015625 221.026367188 1668.70019531 c 128,-1,102
 220.20703125 1666.24023438 220.20703125 1666.24023438 218.56640625 1655.58007812 c 2,103,-1
 216.926757812 1644.91992188 l 1,104,105
 197.030273438 1554.13183594 197.030273438 1554.13183594 151.327148438 1535.04003906 c 1,106,107
 134.965820312 1530.1328125 134.965820312 1530.1328125 107.046875 1530.12011719 c 0,108,109
 58.9951171875 1528.71484375 58.9951171875 1528.71484375 43.0869140625 1551.44042969 c 1,110,111
 34.5712890625 1568.84082031 34.5712890625 1568.84082031 34.88671875 1628.51953125 c 0,112,113
 34.197265625 1655.27441406 34.197265625 1655.27441406 31.6064453125 1661.3203125 c 1,114,115
 20.6572265625 1651.65429688 20.6572265625 1651.65429688 5.3671875 1612.12011719 c 1,116,117
 -15.0234375 1550.94824219 -15.0234375 1550.94824219 11.0615234375 1493.15429688 c 1,118,119
 37.8134765625 1439.95703125 37.8134765625 1439.95703125 92.287109375 1451.40039062 c 0,120,121
 109.506835938 1456.3203125 109.506835938 1456.3203125 126.7265625 1466.16015625 c 0,122,123
 149.484375 1479.78222656 149.484375 1479.78222656 164.446289062 1498.95996094 c 0,124,125
 187.005859375 1528.43554688 187.005859375 1528.43554688 193.966796875 1556.36035156 c 1,126,-1
 195.606445312 1556.36035156 l 1,127,-1
 205.446289062 1533.40039062 l 1,128,-1
 208.7265625 1533.40039062 l 1,129,-1
 216.926757812 1556.36035156 l 1,130,-1
 218.56640625 1556.36035156 l 1,131,-1
 228.407226562 1533.40039062 l 1,132,-1
 231.686523438 1533.40039062 l 1,133,-1
 239.88671875 1556.36035156 l 1,134,-1
 241.526367188 1556.36035156 l 1,135,136
 252.838867188 1511.11132812 252.838867188 1511.11132812 294.0859375 1492.90429688 c 0,137,138
 307.203125 1487.83496094 307.203125 1487.83496094 318.606445312 1487.48046875 c 0,139,140
 346.3671875 1488.44042969 346.3671875 1488.44042969 377.646484375 1512.08007812 c 1,141,142
 441.013671875 1564.88574219 441.013671875 1564.88574219 442.1875 1659.10644531 c 0,143,144
 442.13671875 1676.21972656 442.13671875 1676.21972656 439.966796875 1690.83984375 c 0,145,146
 432.120117188 1735.56933594 432.120117188 1735.56933594 418.646484375 1751.51953125 c 1,82,83
EndSplineSet
EndChar

StartChar: afii57458
Encoding: 1618 1618 318
AltUni2: 00fe7e.ffffffff.0
Width: 56
VWidth: 1639
GlyphClass: 2
Flags: HW
AnchorPoint: "GposMark2BaseAnchorHamzaErabAbove_01_01" 169.631 1352.43 mark 0
AnchorPoint: "GposMark2BaseAnchorHamzaErabBelow_01_01" 169.631 1828.14 mark 0
AnchorPoint: "GposMark2BaseAnchorClassErabAbove_01_02" 169.631 1352.43 mark 0
AnchorPoint: "GposMark2MarkAnchorHamzaErabAbove_01_01" 169.631 1352.43 mark 0
AnchorPoint: "GposMark2MarkAnchorHamzaErabBelow_01_01" 169.631 1828.14 mark 0
AnchorPoint: "GposMark2MarkAnchorShaddaErabAbove_01_02" 169.631 1352.43 mark 0
AnchorPoint: "GposMark2MarkAnchorShaddaErabBelow_01_02" 169.631 1828.14 mark 0
LayerCount: 2
Fore
SplineSet
114.719726562 1812.20019531 m 1,0,1
 239.553710938 1828.13671875 239.553710938 1828.13671875 304.591796875 1750.515625 c 0,2,3
 312.408203125 1740.74902344 312.408203125 1740.74902344 318.080078125 1731.83984375 c 128,-1,4
 323.747070312 1723.02441406 323.747070312 1723.02441406 338.140625 1673.08789062 c 0,5,6
 340.6328125 1665.02929688 340.6328125 1665.02929688 342.6796875 1659.6796875 c 0,7,8
 345.139648438 1653.94042969 345.139648438 1653.94042969 351.700195312 1644.09960938 c 0,9,10
 358.373046875 1633.50976562 358.373046875 1633.50976562 360.719726562 1628.51953125 c 0,11,12
 370.7890625 1605.54492188 370.7890625 1605.54492188 377.120117188 1561.28027344 c 1,13,14
 385.262695312 1466.82421875 385.262695312 1466.82421875 312.693359375 1402.37304688 c 0,15,16
 271.341796875 1367.04003906 271.341796875 1367.04003906 221.3203125 1359.55957031 c 1,17,18
 159.102539062 1352.43066406 159.102539062 1352.43066406 109.799804688 1377.59960938 c 0,19,20
 103.875 1381.30273438 103.875 1381.30273438 94.12890625 1389.9609375 c 0,21,22
 81.701171875 1400.33007812 81.701171875 1400.33007812 75.3603515625 1403.83984375 c 0,23,24
 70.4404296875 1406.29980469 70.4404296875 1406.29980469 58.9599609375 1408.75976562 c 0,25,26
 47.1279296875 1411.67675781 47.1279296875 1411.67675781 42.5595703125 1413.6796875 c 0,27,28
 -6.3720703125 1439.67089844 -6.3720703125 1439.67089844 -27.9599609375 1480.91992188 c 1,29,30
 -45.9033203125 1520.3125 -45.9033203125 1520.3125 -46 1589.16015625 c 0,31,32
 -43.990234375 1749.703125 -43.990234375 1749.703125 65.51953125 1800.71972656 c 0,33,34
 76.5732421875 1804.80761719 76.5732421875 1804.80761719 114.719726562 1812.20019531 c 1,0,1
145.879882812 1764.63964844 m 1,35,36
 116.619140625 1761.56152344 116.619140625 1761.56152344 85.2001953125 1740.04003906 c 0,37,38
 15.935546875 1693.86328125 15.935546875 1693.86328125 3.2509765625 1614.88964844 c 0,39,40
 0.9619140625 1598.51074219 0.9619140625 1598.51074219 1.5595703125 1584.24023438 c 0,41,42
 6.681640625 1515.95214844 6.681640625 1515.95214844 65.173828125 1472.25878906 c 0,43,44
 100.7578125 1447.07910156 100.7578125 1447.07910156 137.6796875 1448.12011719 c 0,45,46
 211.600585938 1451.20019531 211.600585938 1451.20019531 263.34375 1524.27636719 c 0,47,48
 292.696289062 1567.30175781 292.696289062 1567.30175781 295.120117188 1610.48046875 c 0,49,50
 298.1015625 1677.55761719 298.1015625 1677.55761719 234.76953125 1730.04785156 c 0,51,52
 191.0078125 1764.85839844 191.0078125 1764.85839844 145.879882812 1764.63964844 c 1,35,36
98.3203125 1710.51953125 m 1,53,54
 194.006835938 1725.953125 194.006835938 1725.953125 241.864257812 1674.59960938 c 0,55,56
 245.477539062 1670.4609375 245.477539062 1670.4609375 247.559570312 1667.87988281 c 0,57,58
 263.939453125 1646.46191406 263.939453125 1646.46191406 263.959960938 1603.91992188 c 0,59,60
 263.495117188 1558.75878906 263.495117188 1558.75878906 262.3203125 1554.71972656 c 0,61,62
 249.32421875 1516.71972656 249.32421875 1516.71972656 195.080078125 1505.51953125 c 0,63,64
 92.06640625 1484.91699219 92.06640625 1484.91699219 52.58203125 1524.22167969 c 0,65,66
 49.2333984375 1527.95019531 49.2333984375 1527.95019531 47.4794921875 1530.12011719 c 0,67,68
 32.740234375 1549.82128906 32.740234375 1549.82128906 32.7197265625 1592.44042969 c 0,69,70
 35.0830078125 1696.08789062 35.0830078125 1696.08789062 98.3203125 1710.51953125 c 1,53,54
116.360351562 1558 m 1,71,72
 162.673828125 1544.34765625 162.673828125 1544.34765625 196.719726562 1572.75976562 c 1,73,74
 215.469726562 1594.18457031 215.469726562 1594.18457031 213.120117188 1603.91992188 c 1,75,76
 201.038085938 1629.18945312 201.038085938 1629.18945312 167.200195312 1618.6796875 c 1,77,78
 130.5703125 1600.83300781 130.5703125 1600.83300781 116.360351562 1558 c 1,71,72
EndSplineSet
EndChar

StartChar: uni0654
Encoding: 1620 1620 320
Width: 218
VWidth: 1639
GlyphClass: 2
Flags: HW
AnchorPoint: "GposMark2BaseAnchorClassErabAbove_01_02" 258.844 1343.08 mark 0
AnchorPoint: "GposMark2MarkAnchorHamzaErabAbove_01_01" 258.844 2031.19 basemark 0
AnchorPoint: "GposMark2MarkAnchorHamzaErabBelow_01_01" 258.844 1193.08 basemark 0
LayerCount: 2
Fore
SplineSet
49.3125 1559.63964844 m 1,0,1
 46.9375 1564.98339844 46.9375 1564.98339844 41.287109375 1575.74707031 c 0,2,3
 31.16015625 1595.74023438 31.16015625 1595.74023438 27.9921875 1605.55957031 c 0,4,5
 22.931640625 1626.21972656 22.931640625 1626.21972656 23.072265625 1682.63964844 c 0,6,7
 23.072265625 1801.46289062 23.072265625 1801.46289062 116.145507812 1855.10449219 c 0,8,9
 136.365234375 1866.28027344 136.365234375 1866.28027344 157.551757812 1872.87988281 c 0,10,11
 185.559570312 1881.1875 185.559570312 1881.1875 252.671875 1881.08007812 c 0,12,13
 351.94140625 1879.59570312 351.94140625 1879.59570312 387.15234375 1835.16015625 c 0,14,15
 395.112304688 1823.66113281 395.112304688 1823.66113281 395.459960938 1786.63183594 c 0,16,17
 395.868164062 1777.27246094 395.868164062 1777.27246094 396.9921875 1771.20019531 c 1,18,19
 400.650390625 1766.23339844 400.650390625 1766.23339844 416.671875 1751.51953125 c 1,20,21
 438.83984375 1724.36425781 438.83984375 1724.36425781 429.791992188 1695.75976562 c 1,22,23
 418.266601562 1669.71191406 418.266601562 1669.71191406 365.83203125 1677.71972656 c 0,24,25
 276.444335938 1693.68261719 276.444335938 1693.68261719 247.799804688 1680.32226562 c 1,26,27
 225.81640625 1667.96582031 225.81640625 1667.96582031 218.232421875 1644.91992188 c 1,28,29
 223.876953125 1643.79101562 223.876953125 1643.79101562 234.717773438 1640.38574219 c 0,30,31
 255.672851562 1634.47363281 255.672851562 1634.47363281 265.791992188 1635.08007812 c 0,32,33
 281.251953125 1636.14648438 281.251953125 1636.14648438 355.161132812 1659.41308594 c 0,34,35
 385.62109375 1668.5390625 385.62109375 1668.5390625 406.83203125 1669.51953125 c 0,36,37
 472.774414062 1669.51953125 472.774414062 1669.51953125 480.596679688 1667.56835938 c 0,38,39
 503.170898438 1660.109375 503.170898438 1660.109375 510.15234375 1644.91992188 c 0,40,41
 511.259765625 1641.59667969 511.259765625 1641.59667969 510.36328125 1601.29199219 c 0,42,43
 510.771484375 1589.45703125 510.771484375 1589.45703125 513.431640625 1582.59960938 c 0,44,45
 514.275390625 1581.19433594 514.275390625 1581.19433594 533.426757812 1571.10644531 c 0,46,47
 536.698242188 1568.86425781 536.698242188 1568.86425781 538.032226562 1567.83984375 c 0,48,49
 559.842773438 1543.84863281 559.842773438 1543.84863281 538.143554688 1510.52246094 c 0,50,51
 534.30859375 1505.33691406 534.30859375 1505.33691406 531.471679688 1502.24023438 c 0,52,53
 506.750976562 1478.8203125 506.750976562 1478.8203125 413.166992188 1454.42773438 c 0,54,55
 406.1640625 1452.57421875 406.1640625 1452.57421875 401.912109375 1451.40039062 c 0,56,57
 304.803710938 1422.76464844 304.803710938 1422.76464844 152.631835938 1371.04003906 c 1,58,59
 51.4033203125 1343.07714844 51.4033203125 1343.07714844 49.3125 1402.20019531 c 1,60,61
 0.6845703125 1392.71679688 0.6845703125 1392.71679688 -22.84765625 1413.6796875 c 1,62,63
 -42.1552734375 1437.27832031 -42.1552734375 1437.27832031 -30.7861328125 1493.4453125 c 0,64,65
 -28.888671875 1502.81933594 -28.888671875 1502.81933594 -26.1279296875 1508.79980469 c 0,66,67
 -14.78515625 1534.32128906 -14.78515625 1534.32128906 41.908203125 1556.66796875 c 0,68,69
 46.87109375 1558.6484375 46.87109375 1558.6484375 49.3125 1559.63964844 c 1,0,1
126.392578125 1525.20019531 m 1,70,71
 73.6015625 1515.09570312 73.6015625 1515.09570312 37.83203125 1485.83984375 c 0,72,73
 14.77734375 1468.54882812 14.77734375 1468.54882812 25.931640625 1456.41210938 c 0,74,75
 31.30078125 1452.70019531 31.30078125 1452.70019531 37.83203125 1451.40039062 c 0,76,77
 45.0537109375 1451.00097656 45.0537109375 1451.00097656 68.9921875 1459.59960938 c 2,78,-1
 132.952148438 1479.28027344 l 1,79,80
 270.4375 1525.03613281 270.4375 1525.03613281 355.9921875 1549.79980469 c 0,81,82
 417.893554688 1568.53417969 417.893554688 1568.53417969 439.631835938 1582.59960938 c 1,83,84
 460.23046875 1600.89453125 460.23046875 1600.89453125 457.671875 1608.83984375 c 1,85,86
 444.1953125 1630.40332031 444.1953125 1630.40332031 382.2890625 1607.38183594 c 0,87,88
 375.436523438 1604.91308594 375.436523438 1604.91308594 372.392578125 1603.91992188 c 0,89,90
 365.01171875 1602.28027344 365.01171875 1602.28027344 349.431640625 1598.1796875 c 0,91,92
 333.376953125 1594.015625 333.376953125 1594.015625 326.471679688 1592.44042969 c 0,93,94
 240.922851562 1569.31835938 240.922851562 1569.31835938 178.849609375 1597.58496094 c 1,95,96
 137.271484375 1618.85546875 137.271484375 1618.85546875 132.952148438 1659.6796875 c 1,97,-1
 132.952148438 1710.51953125 l 1,98,99
 141.987304688 1794.77148438 141.987304688 1794.77148438 287.112304688 1774.48046875 c 0,100,101
 291.696289062 1773.90722656 291.696289062 1773.90722656 302.248046875 1771.51855469 c 0,102,103
 323.124023438 1767.27050781 323.124023438 1767.27050781 331.392578125 1767.91992188 c 0,104,105
 352.610351562 1769.84863281 352.610351562 1769.84863281 339.322265625 1790.09472656 c 0,106,107
 336.440429688 1793.81152344 336.440429688 1793.81152344 334.671875 1795.79980469 c 0,108,109
 273.271484375 1860.54980469 273.271484375 1860.54980469 179.842773438 1818.84472656 c 0,110,111
 103.698242188 1784.85351562 103.698242188 1784.85351562 78.33984375 1713.33300781 c 0,112,113
 71.455078125 1693.91308594 71.455078125 1693.91308594 70.6318359375 1674.44042969 c 0,114,115
 70.0009765625 1627.97070312 70.0009765625 1627.97070312 126.392578125 1571.12011719 c 1,116,-1
 109.9921875 1566.20019531 l 1,117,-1
 126.392578125 1548.16015625 l 1,118,-1
 109.9921875 1543.24023438 l 1,119,-1
 126.392578125 1525.20019531 l 1,70,71
EndSplineSet
EndChar

StartChar: uni0655
Encoding: 1621 1621 321
Width: 219
VWidth: 1639
GlyphClass: 2
Flags: HW
AnchorPoint: "GposMark2BaseAnchorClassErabBelow_01_02" 38.8438 -109.772 mark 0
LayerCount: 2
Fore
SplineSet
-170.6875 -431.3203125 m 1,0,1
 -173.0625 -425.9765625 -173.0625 -425.9765625 -178.712890625 -415.212890625 c 0,2,3
 -188.83984375 -395.219726562 -188.83984375 -395.219726562 -192.0078125 -385.400390625 c 0,4,5
 -197.068359375 -364.740234375 -197.068359375 -364.740234375 -196.927734375 -308.3203125 c 0,6,7
 -196.927734375 -189.497070312 -196.927734375 -189.497070312 -103.854492188 -135.85546875 c 0,8,9
 -83.634765625 -124.680664062 -83.634765625 -124.680664062 -62.4482421875 -118.080078125 c 0,10,11
 -34.4404296875 -109.772460938 -34.4404296875 -109.772460938 32.671875 -109.879882812 c 0,12,13
 131.94140625 -111.364257812 131.94140625 -111.364257812 167.15234375 -155.799804688 c 0,14,15
 175.112304688 -167.298828125 175.112304688 -167.298828125 175.459960938 -204.328125 c 0,16,17
 175.868164062 -213.6875 175.868164062 -213.6875 176.9921875 -219.759765625 c 1,18,19
 180.650390625 -224.7265625 180.650390625 -224.7265625 196.671875 -239.440429688 c 1,20,21
 218.83984375 -266.595703125 218.83984375 -266.595703125 209.791992188 -295.200195312 c 1,22,23
 198.266601562 -321.248046875 198.266601562 -321.248046875 145.83203125 -313.240234375 c 0,24,25
 56.4443359375 -297.278320312 56.4443359375 -297.278320312 27.7998046875 -310.637695312 c 1,26,27
 5.81640625 -322.994140625 5.81640625 -322.994140625 -1.767578125 -346.040039062 c 1,28,29
 3.876953125 -347.168945312 3.876953125 -347.168945312 14.7177734375 -350.57421875 c 0,30,31
 35.037109375 -356.955078125 35.037109375 -356.955078125 45.7919921875 -355.879882812 c 0,32,33
 61.251953125 -354.813476562 61.251953125 -354.813476562 135.161132812 -331.546875 c 0,34,35
 165.62109375 -322.420898438 165.62109375 -322.420898438 186.83203125 -321.440429688 c 0,36,37
 252.774414062 -321.440429688 252.774414062 -321.440429688 260.596679688 -323.391601562 c 0,38,39
 283.170898438 -330.850585938 283.170898438 -330.850585938 290.15234375 -346.040039062 c 0,40,41
 291.259765625 -349.36328125 291.259765625 -349.36328125 290.36328125 -389.66796875 c 0,42,43
 290.771484375 -401.502929688 290.771484375 -401.502929688 293.431640625 -408.360351562 c 0,44,45
 294.275390625 -409.765625 294.275390625 -409.765625 313.426757812 -419.853515625 c 0,46,47
 316.698242188 -422.095703125 316.698242188 -422.095703125 318.032226562 -423.120117188 c 0,48,49
 339.842773438 -447.111328125 339.842773438 -447.111328125 318.143554688 -480.4375 c 0,50,51
 314.30859375 -485.623046875 314.30859375 -485.623046875 311.471679688 -488.719726562 c 0,52,53
 286.750976562 -512.139648438 286.750976562 -512.139648438 193.166992188 -536.532226562 c 0,54,55
 186.1640625 -538.385742188 186.1640625 -538.385742188 181.912109375 -539.559570312 c 0,56,57
 84.8037109375 -568.1953125 84.8037109375 -568.1953125 -67.3681640625 -619.919921875 c 1,58,59
 -168.596679688 -647.883789062 -168.596679688 -647.883789062 -170.6875 -588.759765625 c 1,60,61
 -219.315429688 -598.243164062 -219.315429688 -598.243164062 -242.84765625 -577.280273438 c 1,62,63
 -262.155273438 -553.681640625 -262.155273438 -553.681640625 -250.786132812 -497.514648438 c 0,64,65
 -248.888671875 -488.140625 -248.888671875 -488.140625 -246.127929688 -482.16015625 c 0,66,67
 -234.78515625 -456.638671875 -234.78515625 -456.638671875 -178.091796875 -434.291992188 c 0,68,69
 -173.12890625 -432.311523438 -173.12890625 -432.311523438 -170.6875 -431.3203125 c 1,0,1
-93.607421875 -465.759765625 m 1,70,71
 -146.3984375 -475.864257812 -146.3984375 -475.864257812 -182.16796875 -505.120117188 c 0,72,73
 -205.22265625 -522.411132812 -205.22265625 -522.411132812 -194.068359375 -534.547851562 c 0,74,75
 -188.69921875 -538.259765625 -188.69921875 -538.259765625 -182.16796875 -539.559570312 c 0,76,77
 -174.946289062 -539.958984375 -174.946289062 -539.958984375 -151.0078125 -531.360351562 c 2,78,-1
 -87.0478515625 -511.6796875 l 1,79,80
 50.4375 -465.923828125 50.4375 -465.923828125 135.9921875 -441.16015625 c 0,81,82
 197.893554688 -422.426757812 197.893554688 -422.426757812 219.631835938 -408.360351562 c 1,83,84
 240.23046875 -390.06640625 240.23046875 -390.06640625 237.671875 -382.120117188 c 1,85,86
 224.1953125 -360.556640625 224.1953125 -360.556640625 162.2890625 -383.578125 c 0,87,88
 155.436523438 -386.046875 155.436523438 -386.046875 152.392578125 -387.040039062 c 0,89,90
 145.01171875 -388.6796875 145.01171875 -388.6796875 129.431640625 -392.780273438 c 0,91,92
 113.376953125 -396.944335938 113.376953125 -396.944335938 106.471679688 -398.51953125 c 0,93,94
 20.9228515625 -421.641601562 20.9228515625 -421.641601562 -41.150390625 -393.375 c 1,95,96
 -82.728515625 -372.104492188 -82.728515625 -372.104492188 -87.0478515625 -331.280273438 c 1,97,-1
 -87.0478515625 -280.440429688 l 1,98,99
 -78.0126953125 -196.188476562 -78.0126953125 -196.188476562 67.1123046875 -216.48046875 c 0,100,101
 71.6962890625 -217.052734375 71.6962890625 -217.052734375 82.248046875 -219.44140625 c 0,102,103
 103.124023438 -223.689453125 103.124023438 -223.689453125 111.392578125 -223.040039062 c 0,104,105
 132.610351562 -221.111328125 132.610351562 -221.111328125 119.322265625 -200.865234375 c 0,106,107
 116.440429688 -197.1484375 116.440429688 -197.1484375 114.671875 -195.16015625 c 0,108,109
 53.271484375 -130.41015625 53.271484375 -130.41015625 -40.1572265625 -172.115234375 c 0,110,111
 -116.301757812 -206.106445312 -116.301757812 -206.106445312 -141.66015625 -277.626953125 c 0,112,113
 -148.544921875 -297.046875 -148.544921875 -297.046875 -149.368164062 -316.51953125 c 0,114,115
 -149.999023438 -362.989257812 -149.999023438 -362.989257812 -93.607421875 -419.83984375 c 1,116,-1
 -110.0078125 -424.759765625 l 1,117,-1
 -93.607421875 -442.799804688 l 1,118,-1
 -110.0078125 -447.719726562 l 1,119,-1
 -93.607421875 -465.759765625 l 1,70,71
EndSplineSet
EndChar

StartChar: uni0656
Encoding: 1622 1622 322
Width: 104
VWidth: 1639
GlyphClass: 2
Flags: HW
AnchorPoint: "GposMark2BaseAnchorClassErabBelow_01_02" -8.38965 -106.258 mark 0
LayerCount: 2
Fore
SplineSet
-10.3203125 -536.280273438 m 1,0,1
 -64.8984375 -536.280273438 -64.8984375 -536.280273438 -77.1611328125 -527.08203125 c 0,2,3
 -81.7099609375 -522.8515625 -81.7099609375 -522.8515625 -84.1201171875 -519.879882812 c 0,4,5
 -88.470703125 -511.953125 -88.470703125 -511.953125 -90.6806640625 -482.16015625 c 0,6,7
 -93.875 -454.202148438 -93.875 -454.202148438 -97.240234375 -396.879882812 c 1,8,9
 -111.90234375 -244.974609375 -111.90234375 -244.974609375 -112 -195.16015625 c 0,10,11
 -112 -141.9765625 -112 -141.9765625 -110.989257812 -138.392578125 c 0,12,13
 -107.739257812 -129.647460938 -107.739257812 -129.647460938 -103.80078125 -124.639648438 c 1,14,15
 -78.7294921875 -106.2578125 -78.7294921875 -106.2578125 -18.5205078125 -108.240234375 c 0,16,17
 24.9345703125 -108.918945312 24.9345703125 -108.918945312 38.8798828125 -114.799804688 c 1,18,19
 60.3408203125 -127.5 60.3408203125 -127.5 60.19921875 -172.200195312 c 0,20,21
 61.3173828125 -196.072265625 61.3173828125 -196.072265625 63.4794921875 -198.440429688 c 0,22,23
 67.1494140625 -201.498046875 67.1494140625 -201.498046875 74.8330078125 -205.727539062 c 0,24,25
 87.3232421875 -213.931640625 87.3232421875 -213.931640625 91.359375 -219.759765625 c 0,26,27
 95.220703125 -229.038085938 95.220703125 -229.038085938 94.6396484375 -262.400390625 c 2,28,-1
 94.6396484375 -350.959960938 l 1,29,-1
 94.6396484375 -542.83984375 l 2,30,31
 94.6396484375 -576.969726562 94.6396484375 -576.969726562 48.03125 -580.692382812 c 0,32,33
 18.4912109375 -582.033203125 18.4912109375 -582.033203125 1.16015625 -569.080078125 c 1,34,35
 -7.173828125 -560.598632812 -7.173828125 -560.598632812 -10.3203125 -536.280273438 c 1,0,1
-30 -155.799804688 m 0,36,37
 -64.8857421875 -161.381835938 -64.8857421875 -161.381835938 -62.7119140625 -203.828125 c 0,38,39
 -62.5234375 -207.51953125 -62.5234375 -207.51953125 -61.9375 -215.078125 c 0,40,41
 -61.3505859375 -223.12109375 -61.3505859375 -223.12109375 -61.16015625 -226.3203125 c 0,42,43
 -59.7021484375 -255.475585938 -59.7021484375 -255.475585938 -54.1953125 -313.787109375 c 0,44,45
 -47.3720703125 -387.22265625 -47.3720703125 -387.22265625 -46.400390625 -423.120117188 c 0,46,47
 -46.400390625 -487.350585938 -46.400390625 -487.350585938 -15.5908203125 -487.4453125 c 0,48,49
 -12.1552734375 -487.25390625 -12.1552734375 -487.25390625 -10.3203125 -487.080078125 c 0,50,51
 17.0673828125 -472.666992188 17.0673828125 -472.666992188 14.279296875 -413.280273438 c 1,52,-1
 14.279296875 -193.51953125 l 1,53,54
 12.048828125 -164.522460938 12.048828125 -164.522460938 -15.341796875 -156.78125 c 0,55,56
 -23.4287109375 -155.1796875 -23.4287109375 -155.1796875 -30 -155.799804688 c 0,36,37
EndSplineSet
EndChar

StartChar: uni0670
Encoding: 1648 1648 326
Width: 104
VWidth: 1639
GlyphClass: 2
Flags: HW
AnchorPoint: "GposMark2BaseAnchorHamzaErabAbove_01_01" 158.61 1354.81 mark 0
AnchorPoint: "GposMark2BaseAnchorHamzaErabBelow_01_01" 158.61 1830.58 mark 0
AnchorPoint: "GposMark2BaseAnchorClassErabAbove_01_02" 158.61 1354.81 mark 0
AnchorPoint: "GposMark2MarkAnchorHamzaErabAbove_01_01" 158.61 1354.81 mark 0
AnchorPoint: "GposMark2MarkAnchorHamzaErabBelow_01_01" 158.61 1830.58 mark 0
AnchorPoint: "GposMark2MarkAnchorShaddaErabAbove_01_02" 158.61 1354.81 mark 0
AnchorPoint: "GposMark2MarkAnchorShaddaErabBelow_01_02" 158.61 1830.58 mark 0
LayerCount: 2
Fore
SplineSet
156.6796875 1400.55957031 m 1,0,1
 102.1015625 1400.55957031 102.1015625 1400.55957031 89.8388671875 1409.7578125 c 0,2,3
 85.2900390625 1413.98828125 85.2900390625 1413.98828125 82.8798828125 1416.95996094 c 0,4,5
 78.529296875 1424.88671875 78.529296875 1424.88671875 76.3193359375 1454.6796875 c 0,6,7
 73.125 1482.63769531 73.125 1482.63769531 69.759765625 1539.95996094 c 1,8,9
 55.09765625 1691.86621094 55.09765625 1691.86621094 55 1741.6796875 c 0,10,11
 55 1794.86425781 55 1794.86425781 56.0107421875 1798.44824219 c 0,12,13
 59.2607421875 1807.19238281 59.2607421875 1807.19238281 63.19921875 1812.20019531 c 1,14,15
 88.2705078125 1830.58203125 88.2705078125 1830.58203125 148.479492188 1828.59960938 c 0,16,17
 191.934570312 1827.92089844 191.934570312 1827.92089844 205.879882812 1822.04003906 c 1,18,19
 227.340820312 1809.33984375 227.340820312 1809.33984375 227.19921875 1764.63964844 c 0,20,21
 228.317382812 1740.76757812 228.317382812 1740.76757812 230.479492188 1738.40039062 c 0,22,23
 234.149414062 1735.34179688 234.149414062 1735.34179688 241.833007812 1731.11230469 c 0,24,25
 254.323242188 1722.90820312 254.323242188 1722.90820312 258.359375 1717.08007812 c 0,26,27
 262.220703125 1707.80175781 262.220703125 1707.80175781 261.639648438 1674.44042969 c 2,28,-1
 261.639648438 1585.87988281 l 1,29,-1
 261.639648438 1394 l 2,30,31
 261.639648438 1359.87011719 261.639648438 1359.87011719 215.03125 1356.14746094 c 0,32,33
 185.491210938 1354.80664062 185.491210938 1354.80664062 168.16015625 1367.75976562 c 1,34,35
 159.826171875 1376.2421875 159.826171875 1376.2421875 156.6796875 1400.55957031 c 1,0,1
137 1781.04003906 m 0,36,37
 102.114257812 1775.45800781 102.114257812 1775.45800781 104.288085938 1733.01171875 c 0,38,39
 104.4765625 1729.3203125 104.4765625 1729.3203125 105.0625 1721.76171875 c 0,40,41
 105.649414062 1713.71875 105.649414062 1713.71875 105.83984375 1710.51953125 c 0,42,43
 107.297851562 1681.36425781 107.297851562 1681.36425781 112.8046875 1623.05371094 c 0,44,45
 119.627929688 1549.61816406 119.627929688 1549.61816406 120.599609375 1513.71972656 c 0,46,47
 120.599609375 1449.48925781 120.599609375 1449.48925781 151.409179688 1449.39453125 c 0,48,49
 154.844726562 1449.5859375 154.844726562 1449.5859375 156.6796875 1449.75976562 c 0,50,51
 184.067382812 1464.17285156 184.067382812 1464.17285156 181.279296875 1523.55957031 c 1,52,-1
 181.279296875 1743.3203125 l 1,53,54
 179.048828125 1772.31738281 179.048828125 1772.31738281 151.658203125 1780.05957031 c 0,55,56
 143.571289062 1781.66015625 143.571289062 1781.66015625 137 1781.04003906 c 0,36,37
EndSplineSet
EndChar

StartChar: uni0674
Encoding: 1652 1652 327
Width: 110
GlyphClass: 2
Flags: HW
AnchorPoint: "GposMark2BaseAnchorClassErabAbove_01_02" 359.5 1014 mark 0
AnchorPoint: "GposMark2MarkAnchorHamzaErabAbove_01_01" 359.5 1579 basemark 0
AnchorPoint: "GposMark2MarkAnchorHamzaErabBelow_01_01" 359.5 864 basemark 0
LayerCount: 2
Fore
SplineSet
533 1178 m 2,0,1
 528 1160 528 1160 521 1145 c 128,-1,2
 514 1130 514 1130 509 1129 c 0,3,4
 461 1118 461 1118 421 1109 c 128,-1,5
 381 1100 381 1100 363 1095 c 0,6,7
 317 1082 317 1082 274 1062 c 128,-1,8
 231 1042 231 1042 196 1018 c 1,9,10
 192 1014 192 1014 188 1014 c 0,11,12
 185 1014 185 1014 180 1018 c 128,-1,13
 175 1022 175 1022 175 1025 c 256,14,15
 175 1028 175 1028 180 1032 c 1,16,-1
 180 1031 l 1,17,18
 191 1051 191 1051 217 1076 c 128,-1,19
 243 1101 243 1101 283 1136 c 1,20,21
 195 1171 195 1171 195 1233 c 0,22,23
 195 1282 195 1282 269 1355 c 1,24,25
 346 1429 346 1429 410 1429 c 0,26,27
 421 1429 421 1429 433.5 1425.5 c 128,-1,28
 446 1422 446 1422 456 1415.5 c 128,-1,29
 466 1409 466 1409 472.5 1400.5 c 128,-1,30
 479 1392 479 1392 479 1382 c 0,31,32
 479 1368 479 1368 475.5 1353.5 c 128,-1,33
 472 1339 472 1339 466 1327 c 128,-1,34
 460 1315 460 1315 452.5 1307.5 c 128,-1,35
 445 1300 445 1300 437 1300 c 0,36,37
 433 1300 433 1300 425.5 1307.5 c 128,-1,38
 418 1315 418 1315 408 1323.5 c 128,-1,39
 398 1332 398 1332 385.5 1339.5 c 128,-1,40
 373 1347 373 1347 359 1347 c 256,41,42
 345 1347 345 1347 329 1339.5 c 128,-1,43
 313 1332 313 1332 299 1321.5 c 128,-1,44
 285 1311 285 1311 276 1299 c 128,-1,45
 267 1287 267 1287 267 1277 c 0,46,47
 267 1259 267 1259 279 1244 c 128,-1,48
 291 1229 291 1229 309.5 1218 c 128,-1,49
 328 1207 328 1207 352 1201 c 128,-1,50
 376 1195 376 1195 400 1195 c 0,51,52
 403 1195 403 1195 424 1200 c 128,-1,53
 445 1205 445 1205 470 1210.5 c 128,-1,54
 495 1216 495 1216 517 1221 c 128,-1,55
 539 1226 539 1226 544 1226 c 1,56,-1
 533 1178 l 2,0,1
EndSplineSet
EndChar

StartChar: afii57388
Encoding: 1548 1548 329
Width: 692
VWidth: 1639
GlyphClass: 2
Flags: W
LayerCount: 2
Fore
SplineSet
354.919921875 275.51953125 m 1,0,1
 410.750976562 266.586914062 410.750976562 266.586914062 436.940429688 201.04296875 c 0,2,3
 438.067382812 198.103515625 438.067382812 198.103515625 438.559570312 196.799804688 c 0,2,3
 441.01953125 190.240234375 441.01953125 190.240234375 443.479492188 175.48046875 c 0,4,5
 446.296875 160.327148438 446.296875 160.327148438 448.399414062 154.16015625 c 0,4,5
 451.50390625 145.624023438 451.50390625 145.624023438 460.728515625 129.885742188 c 0,6,7
 471.19140625 111.298828125 471.19140625 111.298828125 474.639648438 101.6796875 c 0,6,7
 502.142578125 16.880859375 502.142578125 16.880859375 448.283203125 -47.259765625 c 0,8,9
 437.018554688 -59.890625 437.018554688 -59.890625 425.439453125 -68.8798828125 c 0,8,9
 365.267578125 -115.166992188 365.267578125 -115.166992188 283.989257812 -89.033203125 c 0,10,11
 275.8515625 -86.248046875 275.8515625 -86.248046875 269.639648438 -83.6396484375 c 0,10,11
 261.439453125 -79.5400390625 261.439453125 -79.5400390625 247.5 -68.0595703125 c 0,12,13
 232.790039062 -56.4931640625 232.790039062 -56.4931640625 225.359375 -52.48046875 c 0,12,13
 218.849609375 -48.759765625 218.849609375 -48.759765625 204.846679688 -45.5556640625 c 0,14,15
 193.782226562 -42.7412109375 193.782226562 -42.7412109375 189.279296875 -41 c 0,14,15
 139.106445312 -15.48046875 139.106445312 -15.48046875 118.759765625 32.7998046875 c 0,16,17
 104.005859375 68.9384765625 104.005859375 68.9384765625 104 141.040039062 c 0,18,19
 105.045898438 300.188476562 105.045898438 300.188476562 186 410 c 1,20,21
 245.29296875 484.83203125 245.29296875 484.83203125 345.080078125 485.440429688 c 0,22,23
 390.23046875 485.440429688 390.23046875 485.440429688 399.688476562 478.444335938 c 0,24,25
 403.709960938 474.696289062 403.709960938 474.696289062 405.759765625 472.3203125 c 0,24,25
 416.55078125 457.48046875 416.55078125 457.48046875 410.6796875 396.879882812 c 1,26,27
 443.428710938 395.15625 443.428710938 395.15625 446.104492188 366.159179688 c 0,28,29
 446.274414062 352.880859375 446.274414062 352.880859375 440.200195312 341.120117188 c 0,28,29
 430.788085938 325.719726562 430.788085938 325.719726562 381.508789062 295.409179688 c 0,30,31
 363.827148438 284.01953125 363.827148438 284.01953125 354.919921875 275.51953125 c 1,0,1
231.919921875 273.879882812 m 1,30,31
 240.048828125 340.0625 240.048828125 340.0625 294.240234375 380.48046875 c 0,32,33
 301.607421875 385.637695312 301.607421875 385.637695312 316.889648438 394.560546875 c 0,34,35
 335.700195312 405.819335938 335.700195312 405.819335938 343.439453125 411.639648438 c 0,34,35
 356.559570312 420.38671875 356.559570312 420.38671875 356.559570312 428.040039062 c 0,36,37
 356.559570312 442.799804688 356.559570312 442.799804688 322.865234375 433.603515625 c 2,38,-1
 320.479492188 432.959960938 l 1,38,39
 274.74609375 415.811523438 274.74609375 415.811523438 240.120117188 373.919921875 c 0,40,41
 179.994140625 298.067382812 179.994140625 298.067382812 158.120117188 193.51953125 c 1,42,43
 148.732421875 132.9765625 148.732421875 132.9765625 156.479492188 103.3203125 c 0,44,45
 173.203125 38.283203125 173.203125 38.283203125 228.552734375 7.12109375 c 0,46,47
 262.049804688 -11.7373046875 262.049804688 -11.7373046875 295.879882812 -3.2802734375 c 0,46,47
 355.067382812 10.0849609375 355.067382812 10.0849609375 386.044921875 66.7724609375 c 0,48,49
 398.733398438 91.6552734375 398.733398438 91.6552734375 399.200195312 114.799804688 c 0,48,49
 399.200195312 172.067382812 399.200195312 172.067382812 350.334960938 210.739257812 c 0,50,51
 314.145507812 237.489257812 314.145507812 237.489257812 277.83984375 227.959960938 c 1,50,-1
 277.83984375 232.879882812 l 1,51,-1
 254.879882812 227.959960938 l 1,52,-1
 254.879882812 232.879882812 l 1,53,-1
 231.919921875 227.959960938 l 1,54,-1
 236.83984375 252.559570312 l 1,55,-1
 231.919921875 250.919921875 l 1,56,-1
 236.83984375 275.51953125 l 1,57,-1
 231.919921875 273.879882812 l 1,30,31
EndSplineSet
EndChar

StartChar: afii57403
Encoding: 1563 1563 334
Width: 692
VWidth: 1639
GlyphClass: 2
Flags: W
LayerCount: 2
Fore
SplineSet
354.919921875 738 m 1,0,1
 410.750976562 729.067382812 410.750976562 729.067382812 436.940429688 663.522460938 c 0,2,3
 438.067382812 660.583984375 438.067382812 660.583984375 438.559570312 659.280273438 c 0,2,3
 441.01953125 652.719726562 441.01953125 652.719726562 443.479492188 637.959960938 c 0,4,5
 446.296875 622.807617188 446.296875 622.807617188 448.399414062 616.639648438 c 0,4,5
 451.50390625 608.103515625 451.50390625 608.103515625 460.728515625 592.365234375 c 0,6,7
 471.19140625 573.779296875 471.19140625 573.779296875 474.639648438 564.16015625 c 0,6,7
 502.142578125 479.361328125 502.142578125 479.361328125 448.283203125 415.220703125 c 0,8,9
 437.018554688 402.588867188 437.018554688 402.588867188 425.439453125 393.599609375 c 0,8,9
 365.267578125 347.313476562 365.267578125 347.313476562 283.989257812 373.447265625 c 0,10,11
 275.8515625 376.232421875 275.8515625 376.232421875 269.639648438 378.83984375 c 0,10,11
 261.439453125 382.940429688 261.439453125 382.940429688 247.5 394.419921875 c 0,12,13
 232.790039062 405.987304688 232.790039062 405.987304688 225.359375 410 c 0,12,13
 218.849609375 413.719726562 218.849609375 413.719726562 204.846679688 416.924804688 c 0,14,15
 193.782226562 419.739257812 193.782226562 419.739257812 189.279296875 421.48046875 c 0,14,15
 139.106445312 447 139.106445312 447 118.759765625 495.280273438 c 0,16,17
 104.005859375 531.41796875 104.005859375 531.41796875 104 603.51953125 c 0,18,19
 105.045898438 762.668945312 105.045898438 762.668945312 186 872.48046875 c 1,20,21
 245.29296875 947.311523438 245.29296875 947.311523438 345.080078125 947.919921875 c 0,22,23
 390.23046875 947.919921875 390.23046875 947.919921875 399.688476562 940.924804688 c 0,24,25
 403.709960938 937.176757812 403.709960938 937.176757812 405.759765625 934.799804688 c 0,24,25
 416.55078125 919.9609375 416.55078125 919.9609375 410.6796875 859.360351562 c 1,26,27
 443.428710938 857.63671875 443.428710938 857.63671875 446.104492188 828.638671875 c 0,28,29
 446.274414062 815.361328125 446.274414062 815.361328125 440.200195312 803.599609375 c 0,28,29
 430.788085938 788.19921875 430.788085938 788.19921875 381.508789062 757.888671875 c 0,30,31
 363.827148438 746.5 363.827148438 746.5 354.919921875 738 c 1,0,1
231.919921875 736.360351562 m 1,30,31
 240.048828125 802.541992188 240.048828125 802.541992188 294.240234375 842.959960938 c 0,32,33
 301.607421875 848.1171875 301.607421875 848.1171875 316.889648438 857.041015625 c 0,34,35
 335.700195312 868.298828125 335.700195312 868.298828125 343.439453125 874.120117188 c 0,34,35
 356.559570312 882.866210938 356.559570312 882.866210938 356.559570312 890.51953125 c 0,36,37
 356.559570312 905.280273438 356.559570312 905.280273438 322.865234375 896.083007812 c 2,38,-1
 320.479492188 895.440429688 l 1,38,39
 274.74609375 878.291992188 274.74609375 878.291992188 240.120117188 836.400390625 c 0,40,41
 179.994140625 760.547851562 179.994140625 760.547851562 158.120117188 656 c 1,42,43
 148.732421875 595.456054688 148.732421875 595.456054688 156.479492188 565.799804688 c 0,44,45
 173.203125 500.763671875 173.203125 500.763671875 228.552734375 469.6015625 c 0,46,47
 262.893554688 451.668945312 262.893554688 451.668945312 295.879882812 459.200195312 c 0,46,47
 355.067382812 472.565429688 355.067382812 472.565429688 386.044921875 529.251953125 c 0,48,49
 398.733398438 554.135742188 398.733398438 554.135742188 399.200195312 577.280273438 c 0,48,49
 399.200195312 634.547851562 399.200195312 634.547851562 350.334960938 673.219726562 c 0,50,51
 314.145507812 699.969726562 314.145507812 699.969726562 277.83984375 690.440429688 c 1,50,-1
 277.83984375 695.360351562 l 1,51,-1
 254.879882812 690.440429688 l 1,52,-1
 254.879882812 695.360351562 l 1,53,-1
 231.919921875 690.440429688 l 1,54,-1
 236.83984375 715.040039062 l 1,55,-1
 231.919921875 713.400390625 l 1,56,-1
 236.83984375 738 l 1,57,-1
 231.919921875 736.360351562 l 1,30,31
205.6796875 244.360351562 m 0,58,59
 331.524414062 259.09765625 331.524414062 259.09765625 376.240234375 185.3203125 c 0,60,61
 381.021484375 177.549804688 381.021484375 177.549804688 390.442382812 134.48046875 c 0,62,63
 392.432617188 126.520507812 392.432617188 126.520507812 394.279296875 121.360351562 c 0,62,63
 397.649414062 112.59765625 397.649414062 112.59765625 407.178710938 97.2587890625 c 0,64,65
 420.698242188 74.234375 420.698242188 74.234375 423.799804688 60.6796875 c 0,64,65
 439.630859375 -9.6796875 439.630859375 -9.6796875 385.438476562 -57.8740234375 c 0,66,67
 359.662109375 -79.4541015625 359.662109375 -79.4541015625 328.6796875 -85.2802734375 c 0,66,67
 280.3125 -92.1767578125 280.3125 -92.1767578125 241.759765625 -68.8798828125 c 0,68,69
 236.01953125 -65.599609375 236.01953125 -65.599609375 226.1796875 -56.580078125 c 0,70,71
 215.588867188 -47.4345703125 215.588867188 -47.4345703125 210.599609375 -44.2802734375 c 0,70,71
 204.815429688 -41.3876953125 204.815429688 -41.3876953125 191.177734375 -39.0380859375 c 0,72,73
 181.471679688 -37.1533203125 181.471679688 -37.1533203125 177.799804688 -36.080078125 c 0,72,73
 136.647460938 -17.5439453125 136.647460938 -17.5439453125 113.83984375 26.240234375 c 1,74,75
 104.009765625 50.8896484375 104.009765625 50.8896484375 104 96.759765625 c 0,76,77
 104.416992188 141.088867188 104.416992188 141.088867188 107.279296875 152.51953125 c 0,78,79
 123.033203125 217.786132812 123.033203125 217.786132812 187.139648438 239.631835938 c 0,80,81
 197.1015625 242.755859375 197.1015625 242.755859375 205.6796875 244.360351562 c 0,58,59
245.040039062 196.799804688 m 0,80,81
 196.108398438 191.154296875 196.108398438 191.154296875 165.2109375 142.10546875 c 0,82,83
 152.782226562 120.836914062 152.782226562 120.836914062 151.559570312 101.6796875 c 0,82,83
 151.559570312 59.4921875 151.559570312 59.4921875 199.01953125 23.6484375 c 0,84,85
 226.806640625 3.953125 226.806640625 3.953125 249.959960938 4.919921875 c 0,84,85
 294.217773438 8.4609375 294.217773438 8.4609375 327.104492188 54.8203125 c 0,86,87
 344.278320312 79.0302734375 344.278320312 79.0302734375 343.439453125 101.6796875 c 0,86,87
 341.745117188 144.056640625 341.745117188 144.056640625 296.250976562 178.880859375 c 0,88,89
 268.674804688 198.586914062 268.674804688 198.586914062 245.040039062 196.799804688 c 0,80,81
EndSplineSet
EndChar

StartChar: afii57407
Encoding: 1567 1567 335
Width: 1143
VWidth: 1639
GlyphClass: 2
Flags: W
LayerCount: 2
Fore
SplineSet
569.323242188 244.360351562 m 1,0,1
 563.541992188 246.672851562 563.541992188 246.672851562 541.364257812 268.870117188 c 0,2,3
 536.3046875 273.345703125 536.3046875 273.345703125 533.243164062 275.51953125 c 0,2,3
 528.557617188 278.331054688 528.557617188 278.331054688 514.90234375 279.669921875 c 0,4,5
 504.353515625 281.004882812 504.353515625 281.004882812 500.443359375 282.080078125 c 0,4,5
 465.5 293.143554688 465.5 293.143554688 444.68359375 332.919921875 c 0,6,7
 436.483398438 350.231445312 436.483398438 350.231445312 431.700195312 414.805664062 c 0,8,9
 430.852539062 424.688476562 430.852539062 424.688476562 429.922851562 431.3203125 c 0,8,9
 418.834960938 492.59375 418.834960938 492.59375 382.36328125 539.559570312 c 0,10,11
 352.466796875 577.428710938 352.466796875 577.428710938 255.487304688 650.9765625 c 0,12,13
 159.922851562 724.798828125 159.922851562 724.798828125 129.803710938 787.200195312 c 1,12,13
 93.244140625 868.42578125 93.244140625 868.42578125 108.483398438 998.759765625 c 0,14,15
 117.021484375 1068.11816406 117.021484375 1068.11816406 141.283203125 1121.75976562 c 0,16,17
 224.6953125 1294.84082031 224.6953125 1294.84082031 445.379882812 1310.63769531 c 0,18,19
 465.265625 1311.9453125 465.265625 1311.9453125 484.04296875 1312 c 0,18,19
 555.166992188 1311.77636719 555.166992188 1311.77636719 590.643554688 1307.08007812 c 1,20,21
 730.1484375 1281.01074219 730.1484375 1281.01074219 828.443359375 1175.87988281 c 0,22,23
 861.953125 1138.02734375 861.953125 1138.02734375 892.403320312 1049.59960938 c 0,24,25
 895.68359375 1039.75976562 895.68359375 1039.75976562 905.5234375 1021.71972656 c 0,26,27
 915.379882812 1003.01269531 915.379882812 1003.01269531 918.643554688 993.83984375 c 0,26,27
 950.299804688 904.145507812 950.299804688 904.145507812 922 831.98828125 c 0,28,29
 913.00390625 810.918945312 913.00390625 810.918945312 900.603515625 797.040039062 c 0,28,29
 862.61328125 755.05078125 862.61328125 755.05078125 795.170898438 772.322265625 c 0,30,31
 780.5703125 776.4765625 780.5703125 776.4765625 769.403320312 782.280273438 c 0,30,31
 762.77734375 786.421875 762.77734375 786.421875 753.065429688 797.822265625 c 0,32,33
 743.07421875 808.536132812 743.07421875 808.536132812 738.243164062 811.799804688 c 0,32,33
 734.143554688 813.440429688 734.143554688 813.440429688 724.303710938 814.259765625 c 0,34,35
 714.141601562 815.513671875 714.141601562 815.513671875 710.36328125 816.719726562 c 0,34,35
 669.534179688 831.349609375 669.534179688 831.349609375 654.603515625 865.919921875 c 0,36,37
 648.896484375 879.528320312 648.896484375 879.528320312 640.690429688 949.497070312 c 0,38,39
 633.905273438 996.385742188 633.905273438 996.385742188 610.323242188 1020.08007812 c 1,38,39
 588.739257812 1038.08496094 588.739257812 1038.08496094 536.5234375 1029.91992188 c 1,40,41
 428.153320312 1018.51269531 428.153320312 1018.51269531 401.877929688 937.950195312 c 0,42,43
 399.942382812 931.529296875 399.942382812 931.529296875 398.763671875 926.599609375 c 0,42,43
 388.348632812 888.411132812 388.348632812 888.411132812 397.123046875 864.280273438 c 0,44,45
 404.983398438 844.068359375 404.983398438 844.068359375 453.59765625 800.567382812 c 0,46,47
 460.551757812 794.201171875 460.551757812 794.201171875 464.36328125 790.48046875 c 0,46,47
 480.094726562 774.748046875 480.094726562 774.748046875 515.147460938 744.282226562 c 0,48,49
 565.004882812 700.564453125 565.004882812 700.564453125 585.723632812 677.3203125 c 0,48,49
 612.673828125 644.979492188 612.673828125 644.979492188 647.672851562 551.45703125 c 0,50,51
 649.009765625 547.904296875 649.009765625 547.904296875 649.68359375 546.120117188 c 0,50,51
 687.34765625 446.823242188 687.34765625 446.823242188 691.54296875 412.330078125 c 0,52,53
 692.04296875 407.879882812 692.04296875 407.879882812 692.323242188 405.080078125 c 0,52,53
 702.646484375 287.38671875 702.646484375 287.38671875 659.5234375 249.280273438 c 0,54,55
 652.594726562 244.950195312 652.594726562 244.950195312 623.443359375 234.51953125 c 1,56,57
 671.215820312 220.87109375 671.215820312 220.87109375 691.880859375 163.734375 c 0,58,59
 693.227539062 159.766601562 693.227539062 159.766601562 693.962890625 157.440429688 c 0,58,59
 695.375 152.498046875 695.375 152.498046875 696.379882812 141.96484375 c 0,60,61
 698.243164062 127.452148438 698.243164062 127.452148438 700.5234375 121.360351562 c 0,60,61
 701.860351562 117.662109375 701.860351562 117.662109375 716.922851562 95.1201171875 c 1,62,63
 730.39453125 71.2490234375 730.39453125 71.2490234375 733.323242188 42.6396484375 c 0,64,65
 739.56640625 -26.0302734375 739.56640625 -26.0302734375 680.329101562 -67.4970703125 c 0,66,67
 643.954101562 -91.5546875 643.954101562 -91.5546875 603.763671875 -88.5595703125 c 0,66,67
 568.270507812 -84.8935546875 568.270507812 -84.8935546875 543.083007812 -67.240234375 c 0,68,69
 538.720703125 -64.33203125 538.720703125 -64.33203125 531.358398438 -57.2958984375 c 0,70,71
 521.510742188 -48.638671875 521.510742188 -48.638671875 516.842773438 -45.919921875 c 0,70,71
 511.922851562 -43.4599609375 511.922851562 -43.4599609375 500.443359375 -41 c 0,72,73
 488.611328125 -38.083984375 488.611328125 -38.083984375 484.04296875 -36.080078125 c 0,72,73
 446.446289062 -19.580078125 446.446289062 -19.580078125 425.002929688 16.400390625 c 1,74,75
 413.275390625 39.9326171875 413.275390625 39.9326171875 410.243164062 90.2001953125 c 1,76,77
 409.233398438 192.837890625 409.233398438 192.837890625 474.203125 229.599609375 c 0,78,79
 499.92578125 242.9453125 499.92578125 242.9453125 569.323242188 242.719726562 c 1,80,-1
 569.323242188 244.360351562 l 1,0,1
492.243164062 1266.08007812 m 1,81,82
 368.244140625 1253.66308594 368.244140625 1253.66308594 295.443359375 1203.75976562 c 0,83,84
 189.807617188 1130.40234375 189.807617188 1130.40234375 161.692382812 1001.59960938 c 0,85,86
 141.041992188 901.885742188 141.041992188 901.885742188 182.283203125 820 c 0,85,86
 213.333007812 760.811523438 213.333007812 760.811523438 311.087890625 687.645507812 c 0,87,88
 393.215820312 625.639648438 393.215820312 625.639648438 421.723632812 593.6796875 c 0,87,88
 465.522460938 540.686523438 465.522460938 540.686523438 475.842773438 477.240234375 c 0,89,90
 477.478515625 466.336914062 477.478515625 466.336914062 478.572265625 444.591796875 c 0,91,92
 481.43359375 400.786132812 481.43359375 400.786132812 490.603515625 380.48046875 c 0,91,92
 510.728515625 336.875 510.728515625 336.875 541.494140625 328.14453125 c 0,93,94
 550.801757812 326.396484375 550.801757812 326.396484375 557.842773438 328 c 0,93,94
 595.28515625 338.352539062 595.28515625 338.352539062 608.68359375 391.959960938 c 0,95,96
 626.025390625 465.665039062 626.025390625 465.665039062 580.803710938 565.799804688 c 0,97,98
 553.33984375 625.018554688 553.33984375 625.018554688 461.028320312 704.194335938 c 0,99,100
 371.142578125 781.290039062 371.142578125 781.290039062 343.091796875 828.8671875 c 0,101,102
 340.921875 832.634765625 340.921875 832.634765625 339.723632812 834.759765625 c 0,99,100
 313.704101562 884.55859375 313.704101562 884.55859375 313.483398438 957.759765625 c 0,101,102
 314.533203125 1024.75097656 314.533203125 1024.75097656 336.443359375 1056.16015625 c 0,103,104
 381.943359375 1119.66113281 381.943359375 1119.66113281 493.8828125 1120.12011719 c 1,105,106
 615.857421875 1118.57128906 615.857421875 1118.57128906 664.443359375 1056.16015625 c 0,107,108
 682.268554688 1032.09570312 682.268554688 1032.09570312 688.541992188 965.044921875 c 0,109,110
 692.272460938 931.07421875 692.272460938 931.07421875 700.5234375 911.83984375 c 0,109,110
 718.240234375 868.532226562 718.240234375 868.532226562 760.083007812 861.802734375 c 0,111,112
 779.51953125 859.75390625 779.51953125 859.75390625 795.643554688 867.559570312 c 0,111,112
 867.583984375 902.73046875 867.583984375 902.73046875 844.080078125 1011.20019531 c 0,113,114
 837.313476562 1042.42480469 837.313476562 1042.42480469 823.5234375 1069.28027344 c 0,113,114
 767.673828125 1183.04785156 767.673828125 1183.04785156 623.004882812 1239.19335938 c 0,115,116
 604.485351562 1246.22753906 604.485351562 1246.22753906 587.36328125 1251.3203125 c 0,115,116
 526.9453125 1267.60058594 526.9453125 1267.60058594 492.243164062 1266.08007812 c 1,81,82
549.643554688 195.16015625 m 0,117,118
 501.598632812 187.47265625 501.598632812 187.47265625 472.10546875 140.3203125 c 0,119,120
 458.685546875 118.865234375 458.685546875 118.865234375 459.443359375 98.400390625 c 0,119,120
 459.443359375 57.6044921875 459.443359375 57.6044921875 504.077148438 22.1201171875 c 0,121,122
 532.499023438 -0.474609375 532.499023438 -0.474609375 557.842773438 3.2802734375 c 0,121,122
 604.908203125 8.7109375 604.908203125 8.7109375 635.623046875 55.6669921875 c 0,123,124
 649.840820312 79.1259765625 649.840820312 79.1259765625 649.68359375 100.040039062 c 0,123,124
 649.68359375 142.325195312 649.68359375 142.325195312 603.14453125 177.432617188 c 0,125,126
 574.125976562 197.90234375 574.125976562 197.90234375 549.643554688 195.16015625 c 0,117,118
EndSplineSet
EndChar

StartChar: afii57409
Encoding: 1569 1569 336
AltUni2: 00fe80.ffffffff.0
Width: 912
VWidth: 1639
GlyphClass: 2
Flags: HW
AnchorPoint: "GposMark2BaseAnchorHamzaErabAbove_01_01" 381.344 722.36 basechar 0
AnchorPoint: "GposMark2BaseAnchorHamzaErabBelow_01_01" 381.344 -239.153 basechar 0
LayerCount: 2
Fore
SplineSet
129.563476562 167.280273438 m 1,0,1
 63.8369140625 265.138671875 63.8369140625 265.138671875 99.5966796875 389.916015625 c 0,2,3
 126.017578125 477.610351562 126.017578125 477.610351562 191.8828125 526.440429688 c 1,4,5
 257.20703125 572.09375 257.20703125 572.09375 365.72265625 572.360351562 c 0,6,7
 492.674804688 570.9921875 492.674804688 570.9921875 541.203125 516.599609375 c 0,8,9
 558.096679688 495.594726562 558.096679688 495.594726562 560.8828125 470.6796875 c 1,10,-1
 560.8828125 444.440429688 l 2,11,12
 562.033203125 441.564453125 562.033203125 441.564453125 574.323242188 429.702148438 c 0,13,14
 576.579101562 427.180664062 576.579101562 427.180664062 577.283203125 426.400390625 c 0,15,16
 589.38671875 407.297851562 589.38671875 407.297851562 593.682617188 393.599609375 c 0,17,18
 595.309570312 383.828125 595.309570312 383.828125 595.323242188 369 c 1,19,20
 587.518554688 310.462890625 587.518554688 310.462890625 489.611328125 329.530273438 c 0,21,22
 482.647460938 330.885742188 482.647460938 330.885742188 469.262695312 333.755859375 c 0,23,24
 447.762695312 338.264648438 447.762695312 338.264648438 439.5234375 339.48046875 c 0,25,26
 379.974609375 343.764648438 379.974609375 343.764648438 344.403320312 311.599609375 c 1,27,28
 326.458984375 291.846679688 326.458984375 291.846679688 326.36328125 282.080078125 c 1,29,30
 331.489257812 274.288085938 331.489257812 274.288085938 350.962890625 268.959960938 c 0,31,32
 393.666992188 256.455078125 393.666992188 256.455078125 429.682617188 262.400390625 c 0,33,34
 453.990234375 267.030273438 453.990234375 267.030273438 500.803710938 280.327148438 c 0,35,36
 585.76953125 304.4609375 585.76953125 304.4609375 631.403320312 303.400390625 c 0,37,38
 688.645507812 301.934570312 688.645507812 301.934570312 706.842773438 280.440429688 c 0,39,40
 717.0078125 267.502929688 717.0078125 267.502929688 719.108398438 228.639648438 c 0,41,42
 720.00390625 218.265625 720.00390625 218.265625 721.603515625 211.559570312 c 0,43,44
 722.10546875 210.302734375 722.10546875 210.302734375 738.428710938 195.473632812 c 0,45,46
 741.61328125 191.930664062 741.61328125 191.930664062 742.922851562 190.240234375 c 0,47,48
 762.87109375 160.551757812 762.87109375 160.551757812 752.762695312 124.639648438 c 0,49,50
 739.508789062 74.9365234375 739.508789062 74.9365234375 654.1171875 51.3642578125 c 0,51,52
 649.7265625 50.162109375 649.7265625 50.162109375 646.163085938 49.2001953125 c 0,53,54
 595.323242188 35.259765625 595.323242188 35.259765625 493.642578125 6.5595703125 c 0,55,56
 391.416015625 -22.28125 391.416015625 -22.28125 341.123046875 -36.080078125 c 2,57,-1
 219.762695312 -70.51953125 l 2,58,59
 154.374023438 -89.1533203125 154.374023438 -89.1533203125 123.002929688 -80.3603515625 c 0,60,61
 102.146484375 -74.0078125 102.146484375 -74.0078125 90.203125 -60.6796875 c 0,62,63
 89.017578125 -58.9013671875 89.017578125 -58.9013671875 87.0556640625 -54.4453125 c 0,64,65
 82.6640625 -46.5322265625 82.6640625 -46.5322265625 80.36328125 -44.2802734375 c 0,66,67
 72.5654296875 -41.0322265625 72.5654296875 -41.0322265625 54.123046875 -41 c 1,68,69
 24.748046875 -33.953125 24.748046875 -33.953125 9.8427734375 -18.0400390625 c 1,70,71
 -0.18359375 -3.4951171875 -0.18359375 -3.4951171875 0.0029296875 36.080078125 c 0,72,73
 0.4453125 78.1962890625 0.4453125 78.1962890625 3.283203125 88.5595703125 c 0,74,75
 24.4951171875 138.747070312 24.4951171875 138.747070312 129.563476562 167.280273438 c 1,0,1
201.72265625 131.200195312 m 1,76,77
 192.928710938 128.594726562 192.928710938 128.594726562 150.8828125 111.51953125 c 0,78,79
 87.3544921875 88.2744140625 87.3544921875 88.2744140625 70.5234375 72.16015625 c 0,80,81
 51.94921875 51.8671875 51.94921875 51.8671875 50.8427734375 41 c 0,82,83
 48.9814453125 20.5263671875 48.9814453125 20.5263671875 85.5478515625 8.7587890625 c 0,84,85
 91.431640625 7.13671875 91.431640625 7.13671875 95.123046875 6.5595703125 c 0,86,87
 110.389648438 7.11328125 110.389648438 7.11328125 139.403320312 18.0400390625 c 1,88,-1
 227.962890625 42.6396484375 l 2,89,90
 457.563476562 106.626953125 457.563476562 106.626953125 529.72265625 127.919921875 c 0,91,92
 611.96484375 151.907226562 611.96484375 151.907226562 617.119140625 154.283203125 c 0,93,94
 636.90234375 164.078125 636.90234375 164.078125 649.443359375 175.48046875 c 0,95,96
 676.3984375 205.141601562 676.3984375 205.141601562 667.483398438 224.6796875 c 0,97,98
 648.24609375 264.528320312 648.24609375 264.528320312 584.353515625 245.686523438 c 0,99,100
 581.2578125 244.7734375 581.2578125 244.7734375 575.134765625 242.903320312 c 0,101,102
 562.749023438 239.184570312 562.749023438 239.184570312 557.603515625 237.799804688 c 0,103,104
 419.94140625 199.6796875 419.94140625 199.6796875 329.642578125 216.48046875 c 1,105,106
 247.2734375 234.400390625 247.2734375 234.400390625 241.083007812 298.48046875 c 0,107,108
 238.625976562 328.482421875 238.625976562 328.482421875 241.083007812 357.51953125 c 1,109,110
 257.439453125 450.9140625 257.439453125 450.9140625 426.403320312 424.759765625 c 0,111,112
 479.287109375 415.666992188 479.287109375 415.666992188 485.443359375 416.559570312 c 0,113,114
 523.096679688 425.118164062 523.096679688 425.118164062 501.305664062 461.778320312 c 0,115,116
 496.176757812 470.407226562 496.176757812 470.407226562 488.72265625 477.240234375 c 0,117,118
 402.341796875 553.780273438 402.341796875 553.780273438 287.861328125 507.213867188 c 0,119,120
 192.326171875 468.354492188 192.326171875 468.354492188 154.22265625 375.990234375 c 0,121,122
 142.3984375 346.01953125 142.3984375 346.01953125 139.403320312 316.51953125 c 0,123,124
 134.670898438 267.624023438 134.670898438 267.624023438 198.73046875 181.162109375 c 0,125,126
 201.067382812 178.005859375 201.067382812 178.005859375 201.72265625 177.120117188 c 2,127,-1
 188.603515625 172.200195312 l 1,128,-1
 201.72265625 154.16015625 l 1,129,-1
 188.603515625 149.240234375 l 1,130,-1
 201.72265625 131.200195312 l 1,76,77
EndSplineSet
EndChar

StartChar: afii57410
Encoding: 1570 1570 337
AltUni2: 00fe81.ffffffff.0
Width: 557
VWidth: 1639
GlyphClass: 2
Flags: W
LayerCount: 2
Fore
SplineSet
637.353515625 1599 m 1,0,1
 688.921875 1599 688.921875 1599 666.21484375 1511.44433594 c 0,2,3
 663.563476562 1501.22363281 663.563476562 1501.22363281 660.313476562 1492.40039062 c 0,2,3
 627.94140625 1401.75976562 627.94140625 1401.75976562 520.291015625 1362.47265625 c 0,4,5
 510.018554688 1358.84863281 510.018554688 1358.84863281 501.233398438 1356.28027344 c 0,4,5
 438.262695312 1339.203125 438.262695312 1339.203125 292.868164062 1353.7109375 c 0,6,7
 233.720703125 1359.45410156 233.720703125 1359.45410156 201.11328125 1359.55957031 c 0,6,7
 103.806640625 1359.55957031 103.806640625 1359.55957031 68.7861328125 1341.52929688 c 0,8,9
 57.2587890625 1335.15625 57.2587890625 1335.15625 48.59375 1328.40039062 c 0,8,9
 41.9365234375 1322.48339844 41.9365234375 1322.48339844 11.04296875 1275.54199219 c 0,10,11
 -11.80859375 1243.70019531 -11.80859375 1243.70019531 -35.046875 1238.20019531 c 1,10,11
 -71.1201171875 1233.57714844 -71.1201171875 1233.57714844 -84.2470703125 1254.59960938 c 0,12,13
 -85.6455078125 1257.3984375 -85.6455078125 1257.3984375 -86.6494140625 1265.94335938 c 0,14,15
 -88.7734375 1276.78320312 -88.7734375 1276.78320312 -90.806640625 1279.20019531 c 0,14,15
 -94.4990234375 1280.55859375 -94.4990234375 1280.55859375 -107.20703125 1279.20019531 c 1,16,17
 -148.905273438 1282.99121094 -148.905273438 1282.99121094 -146.92578125 1282.3125 c 1,18,19
 -155.000976562 1286.10644531 -155.000976562 1286.10644531 -159.686523438 1290.6796875 c 0,18,19
 -168.971679688 1304.26757812 -168.971679688 1304.26757812 -167.88671875 1354.63964844 c 0,20,21
 -166.470703125 1465.40332031 -166.470703125 1465.40332031 -100.646484375 1530.12011719 c 1,22,23
 -36.76953125 1590.25 -36.76953125 1590.25 91.2333984375 1587.51953125 c 0,24,25
 126.90234375 1587.43359375 126.90234375 1587.43359375 279.833007812 1579.3203125 c 0,26,27
 356.6015625 1575.69335938 356.6015625 1575.69335938 374.953125 1579.3203125 c 0,28,29
 425.608398438 1591.52539062 425.608398438 1591.52539062 488.11328125 1644.91992188 c 0,30,31
 531.88671875 1680.73535156 531.88671875 1680.73535156 542.786132812 1684.74804688 c 0,32,33
 550.08984375 1686.97851562 550.08984375 1686.97851562 555.353515625 1687.55957031 c 0,32,33
 559.442382812 1687.55957031 559.442382812 1687.55957031 569.94140625 1688.265625 c 0,34,35
 612.432617188 1690.16113281 612.432617188 1690.16113281 624.233398438 1681 c 1,34,35
 640.528320312 1659.20703125 640.528320312 1659.20703125 637.353515625 1599 c 1,0,1
579.953125 1631.79980469 m 1,36,37
 569.287109375 1630.89257812 569.287109375 1630.89257812 532.393554688 1597.36035156 c 1,38,39
 471.286132812 1546.57519531 471.286132812 1546.57519531 422.513671875 1533.40039062 c 0,40,41
 380.794921875 1523.50292969 380.794921875 1523.50292969 301.153320312 1530.12011719 c 0,42,43
 275.733398438 1531.75976562 275.733398438 1531.75976562 225.712890625 1534.21972656 c 0,44,45
 175.123046875 1536.73242188 175.123046875 1536.73242188 150.2734375 1538.3203125 c 0,44,45
 48.9931640625 1543.63574219 48.9931640625 1543.63574219 -3.88671875 1520.28027344 c 1,46,47
 -82.8603515625 1479.04492188 -82.8603515625 1479.04492188 -112.126953125 1394 c 1,48,49
 -126.241210938 1340.45019531 -126.241210938 1340.45019531 -107.20703125 1331.6796875 c 1,50,51
 -94.0869140625 1328.40039062 -94.0869140625 1328.40039062 -73.423828125 1360.21289062 c 2,52,-1
 -72.7666015625 1361.20019531 l 2,52,53
 -31.5048828125 1424.84277344 -31.5048828125 1424.84277344 12.513671875 1439.91992188 c 1,54,55
 43.2314453125 1448.21972656 43.2314453125 1448.21972656 119.11328125 1448.12011719 c 0,56,57
 153.958984375 1448.03222656 153.958984375 1448.03222656 302.79296875 1439.91992188 c 1,58,59
 403.888671875 1432.16503906 403.888671875 1432.16503906 468.43359375 1462.87988281 c 1,60,61
 549.715820312 1508.13769531 549.715820312 1508.13769531 576.672851562 1572.75976562 c 0,62,63
 589.345703125 1600.04882812 589.345703125 1600.04882812 588.153320312 1617.04003906 c 0,64,65
 586.14453125 1629.546875 586.14453125 1629.546875 579.953125 1631.79980469 c 1,36,37
256.873046875 1313.63964844 m 1,66,67
 362.522460938 1324.95214844 362.522460938 1324.95214844 396.2734375 1262.79980469 c 0,68,69
 399.123046875 1257.91503906 399.123046875 1257.91503906 410.311523438 1211.48730469 c 0,70,71
 412.4453125 1203.68066406 412.4453125 1203.68066406 414.313476562 1198.83984375 c 0,70,71
 416.7734375 1193.91992188 416.7734375 1193.91992188 423.333007812 1184.90039062 c 0,72,73
 430.022460938 1175.22070312 430.022460938 1175.22070312 432.353515625 1170.95996094 c 0,72,73
 447.456054688 1137.15625 447.456054688 1137.15625 450.393554688 1093.87988281 c 0,74,75
 452.939453125 1056.96386719 452.939453125 1056.96386719 450.540039062 829.876953125 c 0,76,77
 450.393554688 816.034179688 450.393554688 816.034179688 450.393554688 803.599609375 c 2,76,-1
 450.393554688 224.6796875 l 1,77,-1
 450.393554688 65.599609375 l 2,78,79
 450.137695312 -17.3818359375 450.137695312 -17.3818359375 448.752929688 -26.240234375 c 0,80,81
 433.818359375 -92.5068359375 433.818359375 -92.5068359375 370.033203125 -103.3203125 c 1,82,83
 328.418945312 -105.134765625 328.418945312 -105.134765625 302.79296875 -85.2802734375 c 0,84,85
 300.219726562 -82.7060546875 300.219726562 -82.7060546875 295.533203125 -75.9814453125 c 0,86,87
 288.096679688 -65.3095703125 288.096679688 -65.3095703125 283.11328125 -62.3203125 c 0,86,87
 277.490234375 -59.5087890625 277.490234375 -59.5087890625 261.9609375 -58.169921875 c 0,88,89
 249.979492188 -56.873046875 249.979492188 -56.873046875 245.393554688 -55.759765625 c 0,88,89
 198.043945312 -33.53125 198.043945312 -33.53125 191.2734375 27.8798828125 c 0,90,91
 190.950195312 31.8798828125 190.950195312 31.8798828125 186.353515625 162.360351562 c 0,92,93
 183.893554688 211.559570312 183.893554688 211.559570312 180.61328125 309.959960938 c 0,94,95
 177.288085938 408.90625 177.288085938 408.90625 174.873046875 457.559570312 c 0,94,95
 172.413085938 514.139648438 172.413085938 514.139648438 168.313476562 627.299804688 c 0,96,97
 164.181640625 741.006835938 164.181640625 741.006835938 161.752929688 797.040039062 c 0,96,97
 153.592773438 961.864257812 153.592773438 961.864257812 153.553710938 993.83984375 c 0,98,99
 153.553710938 1003.6796875 153.553710938 1003.6796875 152.733398438 1022.54003906 c 0,100,101
 151.913085938 1041.40039062 151.913085938 1041.40039062 151.913085938 1051.24023438 c 0,100,101
 146.83203125 1190.98535156 146.83203125 1190.98535156 167.255859375 1241.94433594 c 1,102,103
 194.596679688 1304.04589844 194.596679688 1304.04589844 256.873046875 1313.63964844 c 1,66,67
284.752929688 1264.44042969 m 0,102,103
 247.625 1256.26171875 247.625 1256.26171875 222.43359375 1213.59960938 c 0,104,105
 194.932617188 1167.765625 194.932617188 1167.765625 198.517578125 1069.08789062 c 0,106,107
 199.436523438 1042.23925781 199.436523438 1042.23925781 199.473632812 1029.91992188 c 0,106,107
 200.154296875 973.612304688 200.154296875 973.612304688 217.513671875 588.759765625 c 0,108,109
 219.408203125 547.067382812 219.408203125 547.067382812 220.767578125 462.59765625 c 0,110,111
 223.072265625 326.787109375 223.072265625 326.787109375 228.993164062 260.759765625 c 0,110,111
 231.651367188 234.850585938 231.651367188 234.850585938 235.553710938 123 c 1,112,113
 240.081054688 55.6123046875 240.081054688 55.6123046875 242.11328125 47.5595703125 c 0,114,115
 258.159179688 -3.7880859375 258.159179688 -3.7880859375 293.953125 -10.904296875 c 0,116,117
 300.803710938 -11.79296875 300.803710938 -11.79296875 306.073242188 -11.48046875 c 0,116,117
 348.515625 -4.7646484375 348.515625 -4.7646484375 365.11328125 47.5595703125 c 1,118,119
 374.772460938 84.05078125 374.772460938 84.05078125 370.551757812 202.353515625 c 0,120,121
 370.06640625 217.506835938 370.06640625 217.506835938 370.033203125 227.959960938 c 2,120,-1
 370.033203125 1006.95996094 l 2,121,122
 370.033203125 1020.79785156 370.033203125 1020.79785156 370.916015625 1049.57226562 c 0,123,124
 373.67578125 1161.484375 373.67578125 1161.484375 353.633789062 1210.3203125 c 0,123,124
 337.819335938 1249.85449219 337.819335938 1249.85449219 303.537109375 1262.01367188 c 0,125,126
 293.080078125 1264.98925781 293.080078125 1264.98925781 284.752929688 1264.44042969 c 0,102,103
EndSplineSet
AlternateSubs2: "gsub_alternate_dfl_aalt_arab_FAR_Lookup_01_Subtable_01" uniFE82 afii57410
Substitution2: "gsub_single_rtl_fina_arab_FAR_Lookup_01_Subtable_01" uniFE82
PairPos2: "gpos_pair_dfl_kern_arab_FAR_Lookup_01_Subtable_01" gafarabic dx=0 dy=0 dh=0 dv=0 dx=0 dy=0 dh=0 dv=0
EndChar

StartChar: uniFE83
Encoding: 1571 1571 339
AltUni2: 00fe83.ffffffff.0
Width: 662
VWidth: 1639
GlyphClass: 2
Flags: W
LayerCount: 2
Fore
SplineSet
258.872070312 1313.63964844 m 0,0,1
 361.314453125 1322.47558594 361.314453125 1322.47558594 393.3515625 1269.36035156 c 0,2,3
 395.91796875 1264.86816406 395.91796875 1264.86816406 411.693359375 1211.80371094 c 0,4,5
 414.212890625 1203.98925781 414.212890625 1203.98925781 416.311523438 1198.83984375 c 0,4,5
 418.771484375 1193.09960938 418.771484375 1193.09960938 425.33203125 1183.25976562 c 0,6,7
 432.00390625 1172.66992188 432.00390625 1172.66992188 434.3515625 1167.6796875 c 0,6,7
 447.887695312 1136.94335938 447.887695312 1136.94335938 450.751953125 1100.44042969 c 0,8,9
 453.260742188 1049.82226562 453.260742188 1049.82226562 452.391601562 793.759765625 c 2,10,-1
 452.391601562 231.240234375 l 1,11,-1
 452.391601562 73.7998046875 l 2,12,13
 452.147460938 -2.7998046875 452.147460938 -2.7998046875 449.111328125 -22.9599609375 c 0,14,15
 440.264648438 -90.783203125 440.264648438 -90.783203125 386.89453125 -100.905273438 c 0,16,17
 383.567382812 -101.438476562 383.567382812 -101.438476562 381.872070312 -101.6796875 c 0,16,17
 335.138671875 -106.6484375 335.138671875 -106.6484375 308.071289062 -86.919921875 c 0,18,19
 304.326171875 -83.923828125 304.326171875 -83.923828125 297.548828125 -75.2314453125 c 0,20,21
 288.900390625 -65.15625 288.900390625 -65.15625 285.111328125 -62.3203125 c 0,20,21
 279.73828125 -58.7373046875 279.73828125 -58.7373046875 264.05859375 -57.4384765625 c 0,22,23
 250.706054688 -55.8896484375 250.706054688 -55.8896484375 245.751953125 -54.1201171875 c 0,22,23
 203.180664062 -38.6640625 203.180664062 -38.6640625 193.271484375 18.0400390625 c 0,24,25
 192.725585938 23.3701171875 192.725585938 23.3701171875 188.3515625 134.48046875 c 0,26,27
 184.934570312 195.104492188 184.934570312 195.104492188 181.791992188 305.040039062 c 0,28,29
 178.271484375 387.1796875 178.271484375 387.1796875 173.328125 551.939453125 c 0,30,31
 164.360351562 848.560546875 164.360351562 848.560546875 153.911132812 995.48046875 c 0,30,31
 152.2734375 1020.0546875 152.2734375 1020.0546875 152.271484375 1064.36035156 c 0,32,33
 149.684570312 1185.9609375 149.684570312 1185.9609375 160.909179688 1225.42285156 c 0,34,35
 179.390625 1283.91601562 179.390625 1283.91601562 224.431640625 1305.44042969 c 0,34,35
 237.501953125 1310.57324219 237.501953125 1310.57324219 258.872070312 1313.63964844 c 0,0,1
285.111328125 1264.44042969 m 1,36,37
 247.357421875 1256.42382812 247.357421875 1256.42382812 221.151367188 1208.6796875 c 0,38,39
 196.673828125 1162.30078125 196.673828125 1162.30078125 200.565429688 1060.51855469 c 0,40,41
 201.471679688 1036.82226562 201.471679688 1036.82226562 201.471679688 1023.36035156 c 0,40,41
 201.537109375 1020.06933594 201.537109375 1020.06933594 211.311523438 774.080078125 c 0,42,43
 213.771484375 712.580078125 213.771484375 712.580078125 217.872070312 590.400390625 c 0,44,45
 222.000976562 467.6640625 222.000976562 467.6640625 224.431640625 406.719726562 c 0,44,45
 225.087890625 386.383789062 225.087890625 386.383789062 227.44921875 345.711914062 c 0,46,47
 230.9296875 284.157226562 230.9296875 284.157226562 230.991210938 254.200195312 c 0,46,47
 231.0625 248.020507812 231.0625 248.020507812 235.911132812 139.400390625 c 0,48,49
 240.063476562 60.517578125 240.063476562 60.517578125 240.741210938 57.2587890625 c 0,50,51
 242.467773438 49.74609375 242.467773438 49.74609375 244.111328125 44.2802734375 c 0,50,51
 257.98046875 -0.1015625 257.98046875 -0.1015625 291.984375 -10.005859375 c 0,52,53
 300.831054688 -11.9423828125 300.831054688 -11.9423828125 308.071289062 -11.48046875 c 0,52,53
 347.8984375 -4.9404296875 347.8984375 -4.9404296875 365.471679688 47.5595703125 c 1,54,55
 375.412109375 85.11328125 375.412109375 85.11328125 372.32421875 207.232421875 c 0,56,57
 372.053710938 219.430664062 372.053710938 219.430664062 372.03125 227.959960938 c 2,56,-1
 372.03125 1008.59960938 l 2,57,58
 372.03125 1021.50878906 372.03125 1021.50878906 372.842773438 1048.859375 c 0,59,60
 375.544921875 1163.78613281 375.544921875 1163.78613281 353.991210938 1211.95996094 c 1,59,60
 323.484375 1268.25585938 323.484375 1268.25585938 285.111328125 1264.44042969 c 1,36,37
88.3115234375 1618.6796875 m 1,0,1
 85.9365234375 1624.0234375 85.9365234375 1624.0234375 80.287109375 1634.78710938 c 0,2,3
 70.16015625 1654.78027344 70.16015625 1654.78027344 66.9912109375 1664.59960938 c 0,2,3
 61.9306640625 1685.25976562 61.9306640625 1685.25976562 62.0712890625 1741.6796875 c 0,4,5
 62.0712890625 1860.50292969 62.0712890625 1860.50292969 155.145507812 1914.14453125 c 0,6,7
 175.365234375 1925.31933594 175.365234375 1925.31933594 196.551757812 1931.91992188 c 0,6,7
 224.559570312 1940.22753906 224.559570312 1940.22753906 291.671875 1940.12011719 c 0,8,9
 390.940429688 1938.63574219 390.940429688 1938.63574219 426.151367188 1894.20019531 c 0,10,11
 434.112304688 1882.70117188 434.112304688 1882.70117188 434.459960938 1845.671875 c 0,12,13
 434.868164062 1836.3125 434.868164062 1836.3125 435.991210938 1830.24023438 c 1,12,13
 439.650390625 1825.2734375 439.650390625 1825.2734375 455.671875 1810.55957031 c 1,14,15
 477.838867188 1783.40429688 477.838867188 1783.40429688 468.791992188 1754.79980469 c 1,16,17
 457.265625 1728.75195312 457.265625 1728.75195312 404.83203125 1736.75976562 c 0,18,19
 315.443359375 1752.72167969 315.443359375 1752.72167969 286.799804688 1739.36230469 c 1,20,21
 264.815429688 1727.00585938 264.815429688 1727.00585938 257.231445312 1703.95996094 c 1,20,21
 262.876953125 1702.83105469 262.876953125 1702.83105469 273.717773438 1699.42578125 c 0,22,23
 294.671875 1693.51367188 294.671875 1693.51367188 304.791992188 1694.12011719 c 0,22,23
 320.251953125 1695.18652344 320.251953125 1695.18652344 394.161132812 1718.453125 c 0,24,25
 424.620117188 1727.57910156 424.620117188 1727.57910156 445.83203125 1728.55957031 c 0,24,25
 511.774414062 1728.55957031 511.774414062 1728.55957031 519.595703125 1726.60839844 c 0,26,27
 542.170898438 1719.14941406 542.170898438 1719.14941406 549.151367188 1703.95996094 c 0,26,27
 550.259765625 1700.63671875 550.259765625 1700.63671875 549.36328125 1660.33203125 c 0,28,29
 549.770507812 1648.49707031 549.770507812 1648.49707031 552.431640625 1641.63964844 c 0,28,29
 553.275390625 1640.234375 553.275390625 1640.234375 572.426757812 1630.14648438 c 0,30,31
 575.698242188 1627.90429688 575.698242188 1627.90429688 577.03125 1626.87988281 c 0,30,31
 598.841796875 1602.88867188 598.841796875 1602.88867188 577.143554688 1569.5625 c 0,32,33
 573.30859375 1564.37695312 573.30859375 1564.37695312 570.471679688 1561.28027344 c 0,32,33
 545.750976562 1537.86035156 545.750976562 1537.86035156 452.166992188 1513.46777344 c 0,34,35
 445.778320312 1511.80273438 445.778320312 1511.80273438 440.911132812 1510.44042969 c 0,34,35
 343.802734375 1481.8046875 343.802734375 1481.8046875 191.631835938 1430.08007812 c 1,36,37
 90.4033203125 1402.11621094 90.4033203125 1402.11621094 88.3115234375 1461.24023438 c 1,38,39
 39.68359375 1451.75683594 39.68359375 1451.75683594 16.1513671875 1472.71972656 c 1,40,41
 -3.15625 1496.31835938 -3.15625 1496.31835938 8.2138671875 1552.48535156 c 0,42,43
 10.111328125 1561.859375 10.111328125 1561.859375 12.8720703125 1567.83984375 c 0,42,43
 24.21484375 1593.36132812 24.21484375 1593.36132812 80.908203125 1615.70800781 c 0,44,45
 85.87109375 1617.68847656 85.87109375 1617.68847656 88.3115234375 1618.6796875 c 1,0,1
165.391601562 1584.24023438 m 1,44,45
 112.600585938 1574.13574219 112.600585938 1574.13574219 76.83203125 1544.87988281 c 0,46,47
 53.77734375 1527.58886719 53.77734375 1527.58886719 64.931640625 1515.45214844 c 0,48,49
 70.2998046875 1511.74023438 70.2998046875 1511.74023438 76.83203125 1510.44042969 c 0,48,49
 84.0537109375 1510.04101562 84.0537109375 1510.04101562 107.991210938 1518.63964844 c 2,50,51
 171.951171875 1538.3203125 l 1,52,53
 309.436523438 1584.07617188 309.436523438 1584.07617188 394.991210938 1608.83984375 c 0,54,55
 456.892578125 1627.57324219 456.892578125 1627.57324219 478.631835938 1641.63964844 c 1,56,57
 499.229492188 1659.93359375 499.229492188 1659.93359375 496.671875 1667.87988281 c 1,58,59
 483.194335938 1689.44335938 483.194335938 1689.44335938 421.288085938 1666.421875 c 0,60,61
 414.435546875 1663.953125 414.435546875 1663.953125 411.391601562 1662.95996094 c 0,60,61
 404.01171875 1661.3203125 404.01171875 1661.3203125 388.431640625 1657.21972656 c 0,62,63
 372.376953125 1653.05566406 372.376953125 1653.05566406 365.471679688 1651.48046875 c 0,62,63
 279.922851562 1628.35839844 279.922851562 1628.35839844 217.848632812 1656.625 c 1,64,65
 176.271484375 1677.89550781 176.271484375 1677.89550781 171.951171875 1718.71972656 c 1,64,65
 171.951171875 1769.55957031 l 1,66,67
 180.987304688 1853.81152344 180.987304688 1853.81152344 326.111328125 1833.51953125 c 0,68,69
 330.696289062 1832.94726562 330.696289062 1832.94726562 341.248046875 1830.55859375 c 0,70,71
 362.123046875 1826.31054688 362.123046875 1826.31054688 370.391601562 1826.95996094 c 0,70,71
 391.609375 1828.88867188 391.609375 1828.88867188 378.322265625 1849.13476562 c 0,72,73
 376.30859375 1852.203125 376.30859375 1852.203125 373.671875 1854.83984375 c 0,72,73
 312.270507812 1919.58984375 312.270507812 1919.58984375 218.841796875 1877.88476562 c 0,74,75
 142.697265625 1843.89355469 142.697265625 1843.89355469 117.33984375 1772.37304688 c 0,76,77
 110.454101562 1752.953125 110.454101562 1752.953125 109.631835938 1733.48046875 c 0,74,75
 109.000976562 1687.01074219 109.000976562 1687.01074219 165.391601562 1630.16015625 c 1,76,-1
 148.991210938 1625.24023438 l 1,77,-1
 165.391601562 1607.20019531 l 1,78,-1
 148.991210938 1602.28027344 l 1,79,-1
 165.391601562 1584.24023438 l 1,44,45
EndSplineSet
AlternateSubs2: "gsub_alternate_dfl_aalt_arab_FAR_Lookup_01_Subtable_01" uniFE84 uniFE83
Substitution2: "gsub_single_rtl_fina_arab_FAR_Lookup_01_Subtable_01" uniFE84
EndChar

StartChar: uniFE84
Encoding: 65156 65156 340
Width: 565
VWidth: 1639
GlyphClass: 2
Flags: W
LayerCount: 2
Fore
SplineSet
469.670898438 -65.599609375 m 1,0,1
 353.850585938 -64.9345703125 353.850585938 -64.9345703125 289.270507812 -37.7197265625 c 0,2,3
 280.451171875 -33.310546875 280.451171875 -33.310546875 264.197265625 -22.55859375 c 0,4,5
 243.692382812 -9.400390625 243.692382812 -9.400390625 233.510742188 -4.919921875 c 0,4,5
 144.462890625 38.16796875 144.462890625 38.16796875 112.192382812 84.380859375 c 0,6,7
 109.131835938 88.90234375 109.131835938 88.90234375 107.23046875 91.83984375 c 0,6,7
 57.8896484375 167.393554688 57.8896484375 167.393554688 45.271484375 345.405273438 c 0,8,9
 44.958984375 349.821289062 44.958984375 349.821289062 44.349609375 358.563476562 c 0,10,11
 43.5927734375 369.383789062 43.5927734375 369.383789062 43.2705078125 373.919921875 c 0,8,9
 39.9501953125 421.227539062 39.9501953125 421.227539062 31.791015625 651.080078125 c 1,10,11
 23.62890625 828.16015625 23.62890625 828.16015625 23.5908203125 864.280273438 c 0,12,13
 23.5908203125 909.33984375 23.5908203125 909.33984375 19.2958984375 1000.45605469 c 0,14,15
 16.109375 1068.953125 16.109375 1068.953125 15.390625 1102.08007812 c 0,14,15
 11.66015625 1181.35546875 11.66015625 1181.35546875 13.7509765625 1203.75976562 c 0,16,17
 29.02734375 1301.03808594 29.02734375 1301.03808594 97.390625 1315.28027344 c 0,18,19
 186.731445312 1331.90136719 186.731445312 1331.90136719 233.510742188 1295.59960938 c 0,20,21
 254.420898438 1279.33691406 254.420898438 1279.33691406 266.674804688 1228.79882812 c 0,22,23
 270.185546875 1215.00683594 270.185546875 1215.00683594 272.87109375 1207.04003906 c 0,22,23
 274.627929688 1200.01171875 274.627929688 1200.01171875 283.83984375 1187.77050781 c 0,24,25
 291.833007812 1176.33886719 291.833007812 1176.33886719 294.190429688 1170.95996094 c 0,24,25
 307.3046875 1134.84570312 307.3046875 1134.84570312 307.310546875 1066 c 2,26,-1
 307.310546875 534.639648438 l 1,27,-1
 307.310546875 390.3203125 l 2,28,29
 307.991210938 333.327148438 307.991210938 333.327148438 313.87109375 321.440429688 c 0,30,31
 348.19140625 267.540039062 348.19140625 267.540039062 469.670898438 267.3203125 c 1,32,-1
 469.670898438 221.400390625 l 1,33,34
 366.627929688 221.400390625 366.627929688 221.400390625 342.524414062 227.018554688 c 0,35,36
 302.821289062 237.298828125 302.821289062 237.298828125 277.791015625 260.759765625 c 0,35,36
 226.986328125 310.0703125 226.986328125 310.0703125 226.840820312 440.330078125 c 0,37,38
 226.833984375 446.729492188 226.833984375 446.729492188 226.896484375 459.322265625 c 0,39,40
 226.946289062 470.779296875 226.946289062 470.779296875 226.951171875 475.599609375 c 2,37,-1
 226.951171875 956.120117188 l 1,38,-1
 226.951171875 1097.16015625 l 2,39,40
 226.4140625 1172.82128906 226.4140625 1172.82128906 217.110351562 1200.48046875 c 0,41,42
 203.998046875 1247.68554688 203.998046875 1247.68554688 166.23046875 1264.73046875 c 0,43,44
 153.958007812 1269.44824219 153.958007812 1269.44824219 143.310546875 1269.36035156 c 0,43,44
 94.4326171875 1265.73925781 94.4326171875 1265.73925781 68.9306640625 1194.86816406 c 0,45,46
 65.1044921875 1183.64355469 65.1044921875 1183.64355469 62.951171875 1174.24023438 c 0,45,46
 59.7734375 1152.76757812 59.7734375 1152.76757812 64.5908203125 1061.08007812 c 0,47,48
 71.1005859375 922.743164062 71.1005859375 922.743164062 71.150390625 856.080078125 c 0,49,50
 71.216796875 849.700195312 71.216796875 849.700195312 80.9912109375 608.440429688 c 1,51,52
 93.1142578125 370.016601562 93.1142578125 370.016601562 95.0400390625 352.288085938 c 0,53,54
 96.98828125 334.78515625 96.98828125 334.78515625 99.0302734375 319.799804688 c 0,53,54
 120.237304688 174.383789062 120.237304688 174.383789062 169.80859375 115.383789062 c 0,55,56
 179.086914062 104.775390625 179.086914062 104.775390625 187.590820312 96.759765625 c 0,55,56
 265.256835938 27.01953125 265.256835938 27.01953125 420.221679688 23.3876953125 c 0,57,58
 439.857421875 22.9658203125 439.857421875 22.9658203125 469.670898438 22.9599609375 c 1,57,-1
 469.670898438 -65.599609375 l 1,0,1
97.390625 1623.59960938 m 1,0,1
 95.015625 1628.94335938 95.015625 1628.94335938 89.3662109375 1639.70703125 c 0,2,3
 79.2392578125 1659.70019531 79.2392578125 1659.70019531 76.0703125 1669.51953125 c 0,2,3
 71.0107421875 1690.1796875 71.0107421875 1690.1796875 71.150390625 1746.59960938 c 0,4,5
 71.150390625 1865.42285156 71.150390625 1865.42285156 164.224609375 1919.06445312 c 0,6,7
 184.444335938 1930.24023438 184.444335938 1930.24023438 205.630859375 1936.83984375 c 0,6,7
 233.638671875 1945.14746094 233.638671875 1945.14746094 300.750976562 1945.04003906 c 0,8,9
 400.020507812 1943.55566406 400.020507812 1943.55566406 435.23046875 1899.12011719 c 0,10,11
 443.19140625 1887.62109375 443.19140625 1887.62109375 443.5390625 1850.59179688 c 0,12,13
 443.947265625 1841.23242188 443.947265625 1841.23242188 445.0703125 1835.16015625 c 1,12,13
 448.729492188 1830.19335938 448.729492188 1830.19335938 464.750976562 1815.48046875 c 1,14,15
 486.91796875 1788.32421875 486.91796875 1788.32421875 477.87109375 1759.71972656 c 1,16,17
 466.344726562 1733.671875 466.344726562 1733.671875 413.911132812 1741.6796875 c 0,18,19
 324.522460938 1757.64257812 324.522460938 1757.64257812 295.87890625 1744.28222656 c 1,20,21
 273.89453125 1731.92578125 273.89453125 1731.92578125 266.310546875 1708.87988281 c 1,20,21
 271.956054688 1707.75097656 271.956054688 1707.75097656 282.796875 1704.34667969 c 0,22,23
 303.750976562 1698.43359375 303.750976562 1698.43359375 313.87109375 1699.04003906 c 0,22,23
 329.331054688 1700.10644531 329.331054688 1700.10644531 403.240234375 1723.37402344 c 0,24,25
 433.69921875 1732.49902344 433.69921875 1732.49902344 454.911132812 1733.48046875 c 0,24,25
 520.853515625 1733.48046875 520.853515625 1733.48046875 528.674804688 1731.52832031 c 0,26,27
 551.25 1724.06933594 551.25 1724.06933594 558.23046875 1708.87988281 c 0,26,27
 559.338867188 1705.55664062 559.338867188 1705.55664062 558.442382812 1665.25195312 c 0,28,29
 558.849609375 1653.41699219 558.849609375 1653.41699219 561.510742188 1646.55957031 c 0,28,29
 562.354492188 1645.15429688 562.354492188 1645.15429688 581.505859375 1635.06640625 c 0,30,31
 584.77734375 1632.82421875 584.77734375 1632.82421875 586.110351562 1631.79980469 c 0,30,31
 607.920898438 1607.80859375 607.920898438 1607.80859375 586.22265625 1574.48242188 c 0,32,33
 582.387695312 1569.296875 582.387695312 1569.296875 579.55078125 1566.20019531 c 0,32,33
 554.830078125 1542.78027344 554.830078125 1542.78027344 461.24609375 1518.38769531 c 0,34,35
 454.2421875 1516.53417969 454.2421875 1516.53417969 449.991210938 1515.36035156 c 0,34,35
 352.881835938 1486.72460938 352.881835938 1486.72460938 200.7109375 1435 c 1,36,37
 99.482421875 1407.03710938 99.482421875 1407.03710938 97.390625 1466.16015625 c 1,38,39
 48.7626953125 1456.67675781 48.7626953125 1456.67675781 25.23046875 1477.63964844 c 1,40,41
 5.9228515625 1501.23828125 5.9228515625 1501.23828125 17.29296875 1557.40527344 c 0,42,43
 19.1904296875 1566.77929688 19.1904296875 1566.77929688 21.951171875 1572.75976562 c 0,42,43
 33.2939453125 1598.28125 33.2939453125 1598.28125 89.9873046875 1620.62792969 c 0,44,45
 94.9501953125 1622.60839844 94.9501953125 1622.60839844 97.390625 1623.59960938 c 1,0,1
174.470703125 1589.16015625 m 1,44,45
 121.6796875 1579.05566406 121.6796875 1579.05566406 85.9111328125 1549.79980469 c 0,46,47
 62.8564453125 1532.50878906 62.8564453125 1532.50878906 74.0107421875 1520.37207031 c 0,48,49
 79.3798828125 1516.66015625 79.3798828125 1516.66015625 85.9111328125 1515.36035156 c 0,48,49
 93.1328125 1514.9609375 93.1328125 1514.9609375 117.0703125 1523.55957031 c 2,50,51
 181.030273438 1543.24023438 l 1,52,53
 318.515625 1588.99609375 318.515625 1588.99609375 404.0703125 1613.75976562 c 0,54,55
 465.971679688 1632.49414062 465.971679688 1632.49414062 487.7109375 1646.55957031 c 1,56,57
 508.30859375 1664.85449219 508.30859375 1664.85449219 505.750976562 1672.79980469 c 1,58,59
 492.2734375 1694.36328125 492.2734375 1694.36328125 430.3671875 1671.34179688 c 0,60,61
 423.515625 1668.87402344 423.515625 1668.87402344 420.470703125 1667.87988281 c 0,60,61
 413.090820312 1666.24023438 413.090820312 1666.24023438 397.510742188 1662.13964844 c 0,62,63
 381.456054688 1657.97558594 381.456054688 1657.97558594 374.55078125 1656.40039062 c 0,62,63
 289.001953125 1633.27832031 289.001953125 1633.27832031 226.928710938 1661.54492188 c 1,64,65
 185.350585938 1682.81542969 185.350585938 1682.81542969 181.030273438 1723.63964844 c 1,64,65
 181.030273438 1774.48046875 l 1,66,67
 190.06640625 1858.73144531 190.06640625 1858.73144531 335.190429688 1838.44042969 c 0,68,69
 339.775390625 1837.8671875 339.775390625 1837.8671875 350.327148438 1835.47851562 c 0,70,71
 370.935546875 1830.81347656 370.935546875 1830.81347656 379.470703125 1831.87988281 c 0,70,71
 400.688476562 1833.80859375 400.688476562 1833.80859375 387.401367188 1854.0546875 c 0,72,73
 384.51953125 1857.77148438 384.51953125 1857.77148438 382.750976562 1859.75976562 c 0,72,73
 321.349609375 1924.50976562 321.349609375 1924.50976562 227.921875 1882.8046875 c 0,74,75
 151.776367188 1848.81347656 151.776367188 1848.81347656 126.418945312 1777.29296875 c 0,76,77
 119.750976562 1757.04199219 119.750976562 1757.04199219 118.7109375 1738.40039062 c 0,74,75
 118.080078125 1691.93066406 118.080078125 1691.93066406 174.470703125 1635.08007812 c 1,76,-1
 158.0703125 1630.16015625 l 1,77,-1
 174.470703125 1612.12011719 l 1,78,-1
 158.0703125 1607.20019531 l 1,79,-1
 174.470703125 1589.16015625 l 1,44,45
EndSplineSet
EndChar

